<svg xmlns="http://www.w3.org/2000/svg" viewBox="0 0 640 640"><defs><style>.a{fill:#fff;}</style></defs><title>drum_square_w&amp;amp;b</title><rect x="7.5" y="7.5" width="625" height="625" rx="92.5"/><path class="a" d="M538.68,14.56a85.31,85.31,0,0,1,85,85v440a85.31,85.31,0,0,1-85,85h-440a85.29,85.29,0,0,1-85-85v-440a85.29,85.29,0,0,1,85-85h440m0-15h-440c-55,0-100,45-100,100v440c0,55,45,100,100,100h440c55,0,100-45,100-100v-440c0-55-45-100-100-100Z" transform="translate(1.32 0.44)"/><path class="a" d="M585.61,238.68l-.25-.15-.22-.13c.05-.19.09-.38.14-.57v0a2.49,2.49,0,0,0-4.34-2.17,109.63,109.63,0,0,1-11.54-10c-5.08-4.86-9.94-10-14.75-15.21s-9.53-10.49-14-15.94-9.06-10.83-13.13-16.44a407.84,407.84,0,0,1-23-35.53,360.17,360.17,0,0,1-18.61-36.66,2.47,2.47,0,0,0-1.71-4.38h-.29c-6.49.37-13.54-.72-20.4-2s-13.8-3-20.67-4.67-13.72-3.55-20.48-5.64-13.51-4.11-20-6.58a409.31,409.31,0,0,1-38.71-17.13,365.42,365.42,0,0,1-33.73-19.25,2.5,2.5,0,0,0-.65-2.1,3.68,3.68,0,0,0-6.28,2.39A99.71,99.71,0,0,1,308.66,56c-6.09,3.51-12.4,6.73-18.73,9.9s-12.74,6.21-19.24,9-12.94,5.65-19.46,8A409,409,0,0,1,210.67,95a356.22,356.22,0,0,1-41.76,7.77h0a2.31,2.31,0,0,0-.47.11,2.43,2.43,0,0,0-1.53-1,2.48,2.48,0,0,0-2.88,2l0,.28c-1.16,6.4-3.86,13-6.73,19.37s-6.08,12.74-9.35,19-6.65,12.51-10.26,18.6-7.14,12.19-11.05,17.91a406.3,406.3,0,0,1-25.67,33.66A364.34,364.34,0,0,1,73.4,242c-.46-.66-.92-1.31-1.42-2a2.48,2.48,0,0,0-4.18,2.61l.13.26c2.82,5.86,4.52,12.79,5.94,19.63s2.57,13.87,3.61,20.88,2,14,2.64,21.08,1.38,14,1.58,21a404.43,404.43,0,0,1-1,42.32,359.62,359.62,0,0,1-5,39.42,43.24,43.24,0,0,0-5-1.78A2.48,2.48,0,0,0,68.86,410l.26.14c5.72,3.07,11.17,7.68,16.34,12.38s10.23,9.72,15.2,14.77,9.84,10.19,14.52,15.5,9.38,10.56,13.62,16.05c3.11,4,6.13,8.08,9.08,12.23l8.52-8q-4-5.82-8.28-11.46a251.09,251.09,0,0,0-30.31-31.82A205.93,205.93,0,0,0,90.7,416c-3.26-2.22-6.55-4.44-10.08-6.38,5.14-13.07,8.25-26.86,10.28-40.69a257.41,257.41,0,0,0,2.6-43.82,251.24,251.24,0,0,0-5.81-43.55A206.7,206.7,0,0,0,82,260.3a100,100,0,0,0-5.74-13.75c11.86-7.56,22.48-16.89,32.27-26.9a257.36,257.36,0,0,0,27.86-33.92,250.9,250.9,0,0,0,20.89-38.65,205.68,205.68,0,0,0,7.84-20.55c1.77-6,3.54-12.17,3.83-18.82l.1,0c14.65,1.09,29.35-.25,43.76-2.7A257.58,257.58,0,0,0,255.23,94a251.17,251.17,0,0,0,39.63-19,208.07,208.07,0,0,0,18.41-12c4.67-3.62,9.39-7.3,13.38-12.05a188.32,188.32,0,0,0,32,23.53,258.41,258.41,0,0,0,39.48,19.19A250.61,250.61,0,0,0,440.58,105a205.58,205.58,0,0,0,21.8,2.84c6.05.3,12.17.59,18.44-.51,3.1,13.94,8.37,27.3,14.58,40.08A257.19,257.19,0,0,0,517.93,185a250.93,250.93,0,0,0,29.34,32.72A208.21,208.21,0,0,0,564,232a87.06,87.06,0,0,0,14.44,9.1,190.09,190.09,0,0,0-10.73,36.92,258.06,258.06,0,0,0-4.62,43.65,250.64,250.64,0,0,0,3.79,43.77A208,208,0,0,0,571.6,387c1.91,6.23,3.86,12.55,7.5,18.44a186.66,186.66,0,0,0-32.16,24.37,258,258,0,0,0-29.56,32.45,251.46,251.46,0,0,0-22.85,37.53,206.43,206.43,0,0,0-8.87,20.11C483.73,525.37,481.81,531,481,537a195.27,195.27,0,0,0-35.61,1.14,258.16,258.16,0,0,0-43,8.77,251,251,0,0,0-40.59,16.83,206.66,206.66,0,0,0-19,11c-6.07,4.18-12.22,8.45-17,14.85a2.53,2.53,0,0,0-.34.62C315,580,303,571.57,290.45,564.15a258,258,0,0,0-39.56-19A250.65,250.65,0,0,0,208.38,534a205.27,205.27,0,0,0-21.81-2.74,21.93,21.93,0,0,0-10.38,2A177.36,177.36,0,0,0,166,507.07L159,514c4,7,7.87,14.09,11.43,21.36-.38.12-.76.24-1.16.35a2.48,2.48,0,0,0-1.8,2.54c.08,1.36,2.91,2.3,2.91,2.3.89,0,1.69-.14,2.42-.23l.33.68v0a2.49,2.49,0,0,0,4.69-1.58,20.58,20.58,0,0,1,7.69.17c6.92,1.26,13.82,2.88,20.69,4.57s13.74,3.5,20.51,5.55,13.53,4,20,6.5a406.72,406.72,0,0,1,38.79,17,356.31,356.31,0,0,1,36.87,21.09h0a2.5,2.5,0,0,0,3.15-.33,2.38,2.38,0,0,0,.56-.9,2.48,2.48,0,0,0,3.2,0l.22-.19c4.93-4.24,11.19-7.65,17.44-10.79s12.75-6,19.24-8.87,13.06-5.51,19.69-8,13.23-4.95,19.87-6.93A408.23,408.23,0,0,1,447,548.32c11.32-2.12,22.72-3.81,34.22-4.87a2.48,2.48,0,0,0,4.14-.36c1.25-.09,2.5-.2,3.76-.28h0a2.49,2.49,0,0,0,.15-5c-.77-.1-1.53-.19-2.3-.27a108.83,108.83,0,0,1,6.37-14.37c3.19-6.26,6.73-12.4,10.31-18.51s7.29-12.16,11.2-18.05,7.76-11.8,12-17.32A408.15,408.15,0,0,1,554.16,437a356.49,356.49,0,0,1,30.77-29.29l0,0a2.49,2.49,0,0,0,.58-3.11,2.46,2.46,0,0,0-1.32-1.13,92.46,92.46,0,0,1-4.43-18.38c-1.14-6.93-1.93-14-2.65-21s-1.32-14.11-1.66-21.18-.73-14.1-.61-21a407.63,407.63,0,0,1,2.95-42.23A368.92,368.92,0,0,1,584,243.27a2.47,2.47,0,0,0,1.61-4.59Z" transform="translate(1.32 0.44)"/><path d="M167.62,123.86a16.64,16.64,0,1,1,16.63-16.64A16.65,16.65,0,0,1,167.62,123.86Z" transform="translate(1.32 0.44)"/><path class="a" d="M167.62,94.59A12.64,12.64,0,1,1,155,107.22a12.63,12.63,0,0,1,12.64-12.63m0-8a20.64,20.64,0,1,0,20.63,20.63,20.66,20.66,0,0,0-20.63-20.63Z" transform="translate(1.32 0.44)"/><path d="M488,123.86a16.64,16.64,0,1,1,16.64-16.64A16.65,16.65,0,0,1,488,123.86Z" transform="translate(1.32 0.44)"/><path class="a" d="M488,94.59a12.64,12.64,0,1,1-12.64,12.63A12.63,12.63,0,0,1,488,94.59m0-8a20.64,20.64,0,1,0,20.63,20.63A20.66,20.66,0,0,0,488,86.59Z" transform="translate(1.32 0.44)"/><circle cx="588.1" cy="244.21" r="16.64"/><path class="a" d="M586.77,231.13a12.64,12.64,0,1,1-12.63,12.64,12.64,12.64,0,0,1,12.63-12.64m0-8a20.64,20.64,0,1,0,20.64,20.64,20.66,20.66,0,0,0-20.64-20.64Z" transform="translate(1.32 0.44)"/><path d="M582.87,429.72a16.64,16.64,0,1,1,16.63-16.64A16.66,16.66,0,0,1,582.87,429.72Z" transform="translate(1.32 0.44)"/><path class="a" d="M582.87,400.44a12.64,12.64,0,1,1-12.64,12.64,12.63,12.63,0,0,1,12.64-12.64m0-8a20.64,20.64,0,1,0,20.63,20.64,20.66,20.66,0,0,0-20.63-20.64Z" transform="translate(1.32 0.44)"/><path d="M483.52,563.11a16.64,16.64,0,1,1,16.64-16.64A16.66,16.66,0,0,1,483.52,563.11Z" transform="translate(1.32 0.44)"/><path class="a" d="M483.52,533.84a12.64,12.64,0,1,1-12.64,12.63,12.64,12.64,0,0,1,12.64-12.63m0-8a20.64,20.64,0,1,0,20.64,20.63,20.66,20.66,0,0,0-20.64-20.63Z" transform="translate(1.32 0.44)"/><path d="M327.24,611.11a16.64,16.64,0,1,1,16.64-16.64A16.65,16.65,0,0,1,327.24,611.11Z" transform="translate(1.32 0.44)"/><path class="a" d="M327.24,581.84a12.64,12.64,0,1,1-12.63,12.63,12.64,12.64,0,0,1,12.63-12.63m0-8a20.64,20.64,0,1,0,20.64,20.63,20.65,20.65,0,0,0-20.64-20.63Z" transform="translate(1.32 0.44)"/><circle cx="172.85" cy="543.01" r="16.64"/><path class="a" d="M171.52,529.93a12.64,12.64,0,1,1-12.63,12.64,12.64,12.64,0,0,1,12.63-12.64m0-8a20.64,20.64,0,1,0,20.64,20.64,20.66,20.66,0,0,0-20.64-20.64Z" transform="translate(1.32 0.44)"/><path d="M73.29,429.72a16.64,16.64,0,1,1,16.64-16.64A16.67,16.67,0,0,1,73.29,429.72Z" transform="translate(1.32 0.44)"/><path class="a" d="M73.29,400.44a12.64,12.64,0,1,1-12.64,12.64,12.64,12.64,0,0,1,12.64-12.64m0-8a20.64,20.64,0,1,0,20.64,20.64,20.66,20.66,0,0,0-20.64-20.64Z" transform="translate(1.32 0.44)"/><path d="M70.78,264a16.64,16.64,0,1,1,16.63-16.64A16.65,16.65,0,0,1,70.78,264Z" transform="translate(1.32 0.44)"/><path class="a" d="M70.78,234.68a12.64,12.64,0,1,1-12.64,12.63,12.64,12.64,0,0,1,12.64-12.63m0-8a20.64,20.64,0,1,0,20.63,20.63,20.66,20.66,0,0,0-20.63-20.63Z" transform="translate(1.32 0.44)"/><path d="M328,63.66A16.64,16.64,0,1,1,344.6,47,16.65,16.65,0,0,1,328,63.66Z" transform="translate(1.32 0.44)"/><path class="a" d="M328,34.39A12.64,12.64,0,1,1,315.33,47,12.63,12.63,0,0,1,328,34.39m0-8A20.64,20.64,0,1,0,348.6,47,20.65,20.65,0,0,0,328,26.39Z" transform="translate(1.32 0.44)"/><path class="a" d="M176,119.7c10.48,3.41,22.59,4.66,32.92,5A235,235,0,0,0,173.44,151C175.9,140.3,177,129.51,176,119.7m-7.14-11.5a2.54,2.54,0,0,0-1.6.58,2.5,2.5,0,0,0-.87,2.65c6.3,22.27-3.31,55.81-17.2,77.7A227.18,227.18,0,0,1,251,113.22a181.29,181.29,0,0,1-36.23,3.54c-17,0-34-2.34-44.66-8.25a2.47,2.47,0,0,0-1.2-.31Z" transform="translate(1.32 0.44)"/><path class="a" d="M328.45,68.28c6.22,8.25,15.36,16.5,25.42,23.92A236,236,0,0,0,330.12,91c-7.35,0-14.69.34-22,1,8.15-7.11,15.31-15.16,20.31-23.75m153.91,49.6c.34,11.41,3.86,24.58,8.7,37.19A236.1,236.1,0,0,0,451,124.61c9.72-.53,21.07-2.28,31.35-6.73m63,114.33c10,8,20.54,14.14,30.9,16.95-6.38,8.64-11.73,20-15.74,31.93a233.38,233.38,0,0,0-15.16-48.88m13.45,145.51c3.41,12.12,8.28,23.5,15,32-10.64,3.26-21.77,9.36-32,16.74a235.33,235.33,0,0,0,17.07-48.71m-73.6,123.74c-4.62,11.95-7.55,24.13-7.22,35a132.88,132.88,0,0,0-31.43-7.14,233.93,233.93,0,0,0,38.65-27.83M327.83,54.35h-.1a2.33,2.33,0,0,0-1,.23h0c-.06,0-.1.08-.15.11a2.41,2.41,0,0,0-.63.47,2.48,2.48,0,0,0-.44.71,1.25,1.25,0,0,0-.08.12c-7.57,20.6-32.71,41-55.84,51.19A226.87,226.87,0,0,1,330.12,99c125.15,0,226.6,101.45,226.6,226.6,0,96.73-60.61,179.29-145.92,211.8a125.29,125.29,0,0,1,17.39-1.15c20.23,0,42.22,4.18,55.4,11.49.05,0,.11,0,.16,0a2.54,2.54,0,0,0,.59.19l.32,0,.14,0a2.72,2.72,0,0,0,.69-.09,2.49,2.49,0,0,0,.87-.45,2.56,2.56,0,0,0,.64-.75h0s0-.08,0-.12a2.84,2.84,0,0,0,.26-.81,2.6,2.6,0,0,0-.07-.88s0-.06,0-.09h0c-7-24.78,15.52-65.81,31.36-85.85,15.27-19.31,44.24-40.9,66.29-43.6a1.86,1.86,0,0,0,.47-.16,2.4,2.4,0,0,0,.38-.12,2.45,2.45,0,0,0,.79-.63l0,0h0a2.6,2.6,0,0,0,.44-.88,2.49,2.49,0,0,0,.07-1h0s0,0,0-.05a2.24,2.24,0,0,0-.29-.87,2.61,2.61,0,0,0-.58-.7l0-.05h0c-19.64-15.47-26.93-60.29-25.84-87.17,1-25.11,12.14-61.53,28.32-76.6v0a2.54,2.54,0,0,0,.56-.78,2.51,2.51,0,0,0,.2-.86.24.24,0,0,0,0-.08h0a2.52,2.52,0,0,0-.15-1,2.48,2.48,0,0,0-.52-.83h0s-.07,0-.09-.07a2.64,2.64,0,0,0-.7-.5,2.3,2.3,0,0,0-.73-.18,1.74,1.74,0,0,0-.22-.05c-24-.92-52.7-28.1-69.27-53-13.65-20.5-31-59.19-26.73-81h0a0,0,0,0,0,0,0,2.53,2.53,0,0,0,0-1,3,3,0,0,0-.31-.76s0-.1-.06-.14h0a2.56,2.56,0,0,0-.7-.69,2.45,2.45,0,0,0-.9-.37h-.11a2.39,2.39,0,0,0-.87,0,2.45,2.45,0,0,0-.83.35s-.05,0-.07,0h0c-11,7.38-26.92,10.54-43.25,10.54-15,0-30.41-2.68-42.69-7.23-23.22-8.6-61.48-33.22-71.05-53.77a.54.54,0,0,0-.09-.12,2.46,2.46,0,0,0-.49-.67,2.57,2.57,0,0,0-.67-.41,1.4,1.4,0,0,0-.16-.1h0a2.47,2.47,0,0,0-.86-.15Z" transform="translate(1.32 0.44)"/><path class="a" d="M330.12,119.75a206,206,0,1,1-129.42,366L279,410.46a41.77,41.77,0,0,0,6,.44,34.86,34.86,0,0,0,18.81-5.2c7.74-5,13.71-14.4,16.14-24.91a182.51,182.51,0,0,0,22.25-8.5c12.61-5.78,29.87-15.42,40.52-28.56,21.74-26.85,15-64.82.73-79.16-7-7.05-20.5-14.59-37.33-14.59-12.39,0-24.69,3.91-36.56,11.62-13.1,8.51-24.13,23.12-32.8,43.43a192.17,192.17,0,0,0-8.5,24.72c-10.7,3.23-22.64,12-29.13,26.72a26.91,26.91,0,0,0-1.52,16.74l-75,72.11a203.18,203.18,0,0,1-27-51.87,206,206,0,0,1,194.48-273.7m0-9a214.88,214.88,0,0,0-168.6,348.08l86.29-82.95c-2.32-5.72-2.49-11.18-.46-15.76,6.28-14.21,18.76-21.66,27.85-22.67l.4-.09a184.38,184.38,0,0,1,9.43-28.8c8-18.62,17.85-31.89,29.43-39.42,10.38-6.74,21-10.16,31.65-10.16,14.08,0,25.21,6.17,30.95,11.93,11.62,11.72,17,44.48-1.34,67.16-9.54,11.77-25.53,20.65-37.27,26-9.66,4.42-20.49,8.25-26.46,9.46-.85,9.85-5.95,20-13.09,24.6A26,26,0,0,1,285,401.9a33.31,33.31,0,0,1-8.83-1.21L187.3,486.13A214.86,214.86,0,1,0,330.12,110.75Z" transform="translate(1.32 0.44)"/><path class="a" d="M113.81,234.63a231.91,231.91,0,0,0-13.42,43.17c-4.17-10.62-9.57-20.39-16.08-28,9.43-3.06,19.67-8.53,29.5-15.22M101.22,377.56a229.66,229.66,0,0,0,15.11,45c-9.8-7-20.13-12.43-30.1-15,6-8.16,11.06-18.72,15-30M143,197.86C126.49,218,94.26,241.7,73,244.29a1.45,1.45,0,0,0-.29.11,2.43,2.43,0,0,0-.63.2,2.78,2.78,0,0,0-.64.54.9.9,0,0,0-.1.09l0,0a2.48,2.48,0,0,0-.43.86,2.51,2.51,0,0,0-.08,1h0a2.66,2.66,0,0,0,.29.89.45.45,0,0,0,.11.13,2.62,2.62,0,0,0,.5.6l0,.05c19.63,15.45,31.62,55.46,30.49,83.13-1,25.63-12.18,62.6-28.37,77.72h0a3.06,3.06,0,0,0-.21.29,2.09,2.09,0,0,0-.35.49,2.84,2.84,0,0,0-.23.9s0,0,0,.07v.09a2.53,2.53,0,0,0,.67,1.7v0l.05,0a2.61,2.61,0,0,0,.77.54,3,3,0,0,0,.47.12,2.62,2.62,0,0,0,.45.1c24,.93,55.41,27.09,71.9,51.85.88,1.32,1.76,2.68,2.62,4.11L153,467A226.62,226.62,0,0,1,143,197.86Z" transform="translate(1.32 0.44)"/><path class="a" d="M179.07,505.13a234.73,234.73,0,0,0,33.37,23.47h-.13c-9.73,0-22.43,1-33.43,5.27a99.58,99.58,0,0,0-3.61-25.09l3.8-3.65m124.28,53.56a235.86,235.86,0,0,0,26.77,1.53q9,0,18.06-.7c-8.35,7.06-15.7,15-20.76,23.29-6.07-8.67-14.62-16.93-24.07-24.12M178.8,494.29l-12.53,12c4,13.16,5.8,26.21,3.81,36.4,0,0,0,.09,0,.13a3,3,0,0,0,0,.85,2.53,2.53,0,0,0,.29.7,1.67,1.67,0,0,0,.08.2h0a2.48,2.48,0,0,0,.69.68,2.35,2.35,0,0,0,.91.38,2.7,2.7,0,0,0,.48,0,2.38,2.38,0,0,0,.26,0c.13,0,.25,0,.38-.06a2.17,2.17,0,0,0,.54-.24,1,1,0,0,0,.22-.08c9.12-6.1,23.14-8.71,38.36-8.71a155.88,155.88,0,0,1,51.59,9c22.84,8.46,52.14,29.4,61.65,49.8h0a2.57,2.57,0,0,0,.51.7c.06.06.13.1.19.15a2.2,2.2,0,0,0,.58.37c.05,0,.08.06.13.08H327a3,3,0,0,0,.78.14h0a2.52,2.52,0,0,0,.94-.21l.11,0a.52.52,0,0,0,.11-.1,2.24,2.24,0,0,0,.56-.39,1.36,1.36,0,0,0,.17-.17,2.41,2.41,0,0,0,.46-.75c7-19.06,31.31-38.77,54.23-49.58A226.86,226.86,0,0,1,178.8,494.29Z" transform="translate(1.32 0.44)"/><path class="a" d="M293.47,389.77c-4.07,2.64-11.55,3.34-19.72-.6L75.54,579.38a8.79,8.79,0,0,1-12.19-12.67L260.23,377.78c-3.42-4.79-5.33-10.07-3.76-13.62,4.71-10.64,11.77-13,18-13.57,0,0,1.33,4,10.67,12.69s14,4.31,14.55,6.58C301.68,378.5,298.81,386.31,293.47,389.77ZM308.81,364c4.49-.17,43.46-12.8,59.14-32.17s9.68-46.12,2-53.85c-6.45-6.5-25.74-16.25-50.07-.43s-34.29,60.6-35.23,65,.73,10.73,5.92,15A30.05,30.05,0,0,0,308.81,364Z" transform="translate(1.32 0.44)"/></svg>