<svg xmlns="http://www.w3.org/2000/svg" viewBox="0 0 640 640"><defs><style>.a{fill:#fff;}.b{fill:#010101;}</style></defs><title>drum_square_b&amp;amp;w</title><rect class="a" x="7.5" y="7.5" width="625" height="625" rx="92.5"/><path class="b" d="M539.56,14.06a85.29,85.29,0,0,1,85,85v440a85.29,85.29,0,0,1-85,85h-440a85.29,85.29,0,0,1-85-85v-440a85.29,85.29,0,0,1,85-85h440m0-15h-440c-55,0-100,45-100,100v440c0,55,45,100,100,100h440c55,0,100-45,100-100v-440c0-55-45-100-100-100Z" transform="translate(0.44 0.94)"/><path class="a" d="M180,101c-3.68,0-7.33-.13-10.84-.39a4,4,0,0,1-3.72-4.33,4,4,0,0,1,3.54-3.7,360.84,360.84,0,0,0,42.3-7.87,411.24,411.24,0,0,0,41.06-12.29c6-2.13,12.42-4.78,19.68-8.08,5.72-2.47,11.43-5.24,16.95-7.91l2.57-1.24c6.16-3.08,12.73-6.42,18.95-10,5.93-3.39,12.07-7.15,16.82-11.69l.21-.21a4,4,0,0,1,2.78-1.11,4,4,0,0,1,3.33,6.25c-4.7,7-10.85,11.77-16.8,16.36A209.62,209.62,0,0,1,297.9,67.12a256.39,256.39,0,0,1-40.51,19.42A264.49,264.49,0,0,1,214,97.86,202.56,202.56,0,0,1,180,101Z" transform="translate(0.44 0.94)"/><path d="M330.25,33.69a2.51,2.51,0,0,1,2.09,3.92c-4.54,6.76-10.55,11.43-16.48,16a213.44,213.44,0,0,1-18.71,12.21,255.49,255.49,0,0,1-40.28,19.3A261.55,261.55,0,0,1,213.7,96.38,202,202,0,0,1,180,99.51c-3.58,0-7.15-.12-10.73-.39a2.54,2.54,0,0,1-.11-5.05h0a363.06,363.06,0,0,0,42.45-7.89A416.24,416.24,0,0,0,252.8,73.84c6.64-2.37,13.24-5.14,19.79-8.12s13.07-6,19.55-9.17,12.85-6.48,19-10,12.34-7.34,17.11-11.91l.22-.2a2.47,2.47,0,0,1,1.74-.7m0-3h0a5.49,5.49,0,0,0-3.82,1.53l-.21.2c-4.63,4.43-10.68,8.13-16.52,11.47-6.19,3.57-12.74,6.9-18.9,10l-2.54,1.23c-5.5,2.66-11.19,5.41-16.86,7.87h0c-7.22,3.28-13.62,5.91-19.56,8a412.91,412.91,0,0,1-40.93,12.25,359.12,359.12,0,0,1-42.06,7.82h-.05a5.54,5.54,0,0,0-4.86,5.08,5.55,5.55,0,0,0,5.11,5.93c3.55.27,7.23.4,10.95.4a204.47,204.47,0,0,0,34.25-3.17A266.5,266.5,0,0,0,257.87,88a258.54,258.54,0,0,0,40.79-19.54,213.38,213.38,0,0,0,19-12.39l0,0,0,0c6-4.67,12.29-9.5,17.13-16.71a5.52,5.52,0,0,0-4.58-8.59Z" transform="translate(0.44 0.94)"/><path class="a" d="M72,243.12a4,4,0,0,1-2.75-7,362.28,362.28,0,0,0,29.6-31.22,412.21,412.21,0,0,0,26-34.08c3.58-5.25,7.23-11.17,11.17-18.1,3.17-5.37,6.17-11,9.06-16.37l1.35-2.51c3.18-6.11,6.53-12.69,9.45-19.23,2.81-6.23,5.57-12.89,6.73-19.35l.06-.29a4,4,0,0,1,3.95-3.3,4.56,4.56,0,0,1,.72.06,4,4,0,0,1,3.3,3.81c.31,8.43-1.87,15.89-4,23.11a212,212,0,0,1-8,21.06,257.18,257.18,0,0,1-21.37,39.52,264.44,264.44,0,0,1-28.49,34.69c-11.91,12.18-23.24,21.53-34.65,28.59A4.07,4.07,0,0,1,72,243.12Z" transform="translate(0.44 0.94)"/><path d="M166.63,93.18a2.28,2.28,0,0,1,.45,0,2.52,2.52,0,0,1,2.07,2.38c.3,8.14-1.82,15.45-3.92,22.64a209.87,209.87,0,0,1-8,20.88A255.28,255.28,0,0,1,136,178.41a262.31,262.31,0,0,1-28.32,34.48C97.33,223.5,86,233.39,73.34,241.24a2.53,2.53,0,0,1-3.06-4l0,0A362.84,362.84,0,0,0,100,205.88a415.85,415.85,0,0,0,26.1-34.21c4-5.82,7.68-11.95,11.23-18.2s7-12.57,10.43-18.91,6.59-12.81,9.5-19.33,5.67-13.19,6.84-19.69l.05-.29a2.52,2.52,0,0,1,2.48-2.07m0-3h0a5.52,5.52,0,0,0-5.43,4.54l0,.29c-1.14,6.3-3.86,12.85-6.63,19-2.91,6.53-6.25,13.08-9.42,19.18l-1.33,2.49c-2.89,5.39-5.87,11-9,16.28v0l0,0c-3.91,6.9-7.54,12.78-11.1,18A411.86,411.86,0,0,1,97.7,204,359.8,359.8,0,0,1,68.28,235l0,0a5.54,5.54,0,0,0,6.68,8.77c11.51-7.13,22.94-16.55,34.94-28.82a266.4,266.4,0,0,0,28.64-34.87A259,259,0,0,0,160,140.33a210.66,210.66,0,0,0,8.07-21.18l0,0v0c2.14-7.33,4.36-14.91,4-23.59a5.57,5.57,0,0,0-4.54-5.23,6.37,6.37,0,0,0-1-.08Z" transform="translate(0.44 0.94)"/><path class="a" d="M76.36,410.8a4,4,0,0,1-4-4.82A361.46,361.46,0,0,0,78,363.33a410.73,410.73,0,0,0,1-42.85c-.18-6.35-.71-13.29-1.6-21.21-.59-6.22-1.45-12.5-2.29-18.58l-.38-2.82c-1-6.81-2.18-14.1-3.66-21.11-1.39-6.69-3.07-13.7-5.92-19.61l-.13-.27a4,4,0,0,1,1.87-5.36,3.92,3.92,0,0,1,1.74-.4,4,4,0,0,1,3.17,1.54c5.21,6.64,7.83,14,10.36,21A210.55,210.55,0,0,1,88,275.45,257,257,0,0,1,94,320a264.59,264.59,0,0,1-2.65,44.82c-2.48,16.85-6.16,31.08-11.24,43.49A4,4,0,0,1,76.36,410.8Z" transform="translate(0.44 0.94)"/><path d="M68.62,232.62a2.54,2.54,0,0,1,2,1c5,6.41,7.61,13.57,10.13,20.62a208.39,208.39,0,0,1,5.83,21.57A253.75,253.75,0,0,1,92.48,320a261.76,261.76,0,0,1-2.64,44.54c-2.16,14.69-5.48,29.33-11.14,43.14a2.53,2.53,0,0,1-4.83-1.44v0a364.75,364.75,0,0,0,5.61-42.81,415,415,0,0,0,1-43c-.2-7.05-.8-14.18-1.61-21.33s-1.7-14.3-2.68-21.43S74,263.44,72.53,256.45s-3.17-14-6-19.95l-.13-.27a2.51,2.51,0,0,1,2.26-3.61m0-3h0a5.37,5.37,0,0,0-2.39.55,5.52,5.52,0,0,0-2.57,7.37l.13.26c2.78,5.77,4.43,12.67,5.8,19.26,1.48,7,2.63,14.25,3.64,21.05l.39,2.8c.83,6,1.69,12.32,2.27,18.47v.05c.89,7.89,1.41,14.78,1.59,21.08a408.19,408.19,0,0,1-1,42.72,359.28,359.28,0,0,1-5.55,42.41v.05a5.53,5.53,0,0,0,10.55,3.17C86.61,396.33,90.31,382,92.81,365a265.24,265.24,0,0,0,2.67-45,257.74,257.74,0,0,0-6-44.83,210.18,210.18,0,0,0-5.91-21.88v-.07C81,246,78.33,238.56,73,231.73a5.57,5.57,0,0,0-4.35-2.11Z" transform="translate(0.44 0.94)"/><path class="a" d="M175.76,542.46a4,4,0,0,1-3.66-2.33,359.91,359.91,0,0,0-20.55-37.8,411,411,0,0,0-24.38-35.26c-3.88-5-8.38-10.33-13.76-16.22-4.13-4.68-8.52-9.25-12.77-13.68l-2-2.05c-4.82-4.91-10-10.12-15.37-14.93-5-4.6-10.53-9.28-16.31-12.39l-.26-.14a4,4,0,0,1,1.9-7.55,4.11,4.11,0,0,1,1.1.15c8.12,2.31,14.54,6.69,20.75,10.93A210.79,210.79,0,0,1,108,425.33a257.72,257.72,0,0,1,31,32.53,264.74,264.74,0,0,1,24.19,37.82c7.9,15.09,13.29,28.76,16.48,41.79a4,4,0,0,1-.47,3,4,4,0,0,1-2.49,1.83A4.49,4.49,0,0,1,175.76,542.46Z" transform="translate(0.44 0.94)"/><path d="M68.63,401.61a2.72,2.72,0,0,1,.69.09c7.83,2.23,14.13,6.5,20.31,10.73a209.06,209.06,0,0,1,17.4,14,255.11,255.11,0,0,1,30.8,32.34,261.66,261.66,0,0,1,24,37.58c6.89,13.16,12.81,27,16.35,41.46a2.52,2.52,0,0,1-1.86,3.06,2.46,2.46,0,0,1-.6.07,2.55,2.55,0,0,1-2.3-1.46v0a363.27,363.27,0,0,0-20.62-37.93,417.08,417.08,0,0,0-24.47-35.39c-4.31-5.58-9-11-13.84-16.31s-9.78-10.56-14.77-15.76-10.14-10.22-15.44-15-10.79-9.46-16.61-12.59l-.26-.14a2.51,2.51,0,0,1,1.19-4.73m0-3h0A5.52,5.52,0,0,0,66,409l.26.14c5.64,3,11,7.63,16,12.16,5.31,4.79,10.5,10,15.33,14.89l1.95,2c4.23,4.41,8.61,9,12.7,13.61v0l0,0C117.65,457.72,122.13,463,126,468a409.34,409.34,0,0,1,24.3,35.15,357.88,357.88,0,0,1,20.44,37.58l0,0a5.55,5.55,0,0,0,5,3.2,5.42,5.42,0,0,0,1.32-.16,5.54,5.54,0,0,0,4.06-6.69c-3.22-13.15-8.65-26.93-16.61-42.13a265.71,265.71,0,0,0-24.31-38A258.6,258.6,0,0,0,109,424.21,212.38,212.38,0,0,0,91.38,410l0,0,0,0c-6.3-4.31-12.83-8.76-21.18-11.13a5.5,5.5,0,0,0-1.51-.21Z" transform="translate(0.44 0.94)"/><path class="a" d="M326.59,595.56a4.07,4.07,0,0,1-2.23-.66A362.22,362.22,0,0,0,287,573.54a413.82,413.82,0,0,0-39.26-17.18c-5.95-2.24-12.57-4.38-20.24-6.56-5.95-1.81-12.07-3.39-18-4.91l-2.82-.73c-6.68-1.64-13.86-3.34-20.92-4.62a23.09,23.09,0,0,0-4.2-.44,24.21,24.21,0,0,0-4.87.6,43.31,43.31,0,0,1-6,.81l-.29,0-.27-.09c-.9-.3-3.85-1.45-4-3.68a4,4,0,0,1,2.92-4.11,62,62,0,0,0,6.34-2.23,25.1,25.1,0,0,1,10.33-2.34l1.36,0a210.3,210.3,0,0,1,22.37,2.81A256.6,256.6,0,0,1,253,542.31a264.63,264.63,0,0,1,40.45,19.45c14.66,8.69,26.43,17.48,36,26.89a4,4,0,0,1,0,5.71A4,4,0,0,1,326.59,595.56Z" transform="translate(0.44 0.94)"/><path d="M185.79,529.58l1.29,0a212.62,212.62,0,0,1,22.18,2.78,255.29,255.29,0,0,1,43.2,11.33,262.23,262.23,0,0,1,40.21,19.33c12.77,7.57,25.06,16.2,35.69,26.67a2.53,2.53,0,0,1-1.77,4.34,2.6,2.6,0,0,1-1.4-.41l0,0a366.23,366.23,0,0,0-37.48-21.43A414.91,414.91,0,0,0,248.27,555c-6.6-2.49-13.43-4.64-20.35-6.6s-13.87-3.85-20.84-5.65-14-3.37-21-4.65a24.24,24.24,0,0,0-4.47-.46c-3.74,0-6,1.11-10.92,1.41,0,0-2.88-1-3-2.34a2.53,2.53,0,0,1,1.82-2.58c7.37-2.09,9.79-4.51,16.27-4.51m0-3v0h0c-4.7,0-7.56,1.13-10.88,2.45a63.75,63.75,0,0,1-6.2,2.18,5.55,5.55,0,0,0-4,5.64c.19,3.08,3.57,4.53,5,5l.54.18.58,0a45.08,45.08,0,0,0,6.16-.84,22.42,22.42,0,0,1,4.58-.57,21.78,21.78,0,0,1,3.92.41c7,1.28,14.18,3,20.86,4.61l2.73.71c5.92,1.52,12,3.1,18,4.9h0c7.63,2.17,14.21,4.3,20.11,6.52a412.9,412.9,0,0,1,39.15,17.13,359,359,0,0,1,37.13,21.23l.05,0a5.54,5.54,0,0,0,7-.74,5.55,5.55,0,0,0-.06-7.83c-9.65-9.49-21.51-18.36-36.27-27.11a266.1,266.1,0,0,0-40.67-19.56,258.63,258.63,0,0,0-43.75-11.47,213.27,213.27,0,0,0-22.49-2.83h-.07l-1.42,0Z" transform="translate(0.44 0.94)"/><path class="a" d="M330.57,594.49a4,4,0,0,1-3.21-6.44c5.07-6.75,11.47-11.16,17.66-15.43a212.67,212.67,0,0,1,19.51-11.29,257.71,257.71,0,0,1,41.5-17.2,264.75,264.75,0,0,1,44-9,217.92,217.92,0,0,1,25.15-1.55,154.6,154.6,0,0,1,19.77,1.21,4,4,0,0,1-.25,8A359.66,359.66,0,0,0,452,548.43a412.4,412.4,0,0,0-41.66,10.06c-6.09,1.81-12.66,4.1-20.09,7-5.85,2.16-11.69,4.61-17.34,7l-2.64,1.11c-7.31,3.16-13.43,5.91-19.46,9s-12.45,6.49-17.43,10.77l-.22.2A4.06,4.06,0,0,1,330.57,594.49Z" transform="translate(0.44 0.94)"/><path d="M475.16,535.12a152.75,152.75,0,0,1,19.59,1.2,2.53,2.53,0,0,1-.16,5h0a364.81,364.81,0,0,0-42.81,5.6,415,415,0,0,0-41.83,10.09c-6.75,2-13.49,4.43-20.19,7.05s-13.38,5.33-20,8.1-13.19,5.79-19.56,9-12.71,6.66-17.73,11l-.22.2a2.52,2.52,0,0,1-3.65-3.43c4.89-6.51,11.15-10.84,17.31-15.09a210,210,0,0,1,19.35-11.19,254.74,254.74,0,0,1,41.25-17.1,261.6,261.6,0,0,1,43.72-8.91,219.06,219.06,0,0,1,25-1.54m0-3a220.84,220.84,0,0,0-25.31,1.56,266.1,266.1,0,0,0-44.22,9A257.46,257.46,0,0,0,363.85,560a212,212,0,0,0-19.62,11.35l0,0,0,0c-6.29,4.33-12.79,8.82-18,15.76a5.52,5.52,0,0,0,8,7.5l.22-.19c4.86-4.17,11.1-7.54,17.11-10.56,6.38-3.23,13.1-6.21,19.41-8.94l2.6-1.09c5.64-2.37,11.47-4.81,17.27-7h.05c7.39-2.88,13.91-5.16,20-7a409.81,409.81,0,0,1,41.53-10,357.71,357.71,0,0,1,42.42-5.54h.05a5.53,5.53,0,0,0,.34-11,157.63,157.63,0,0,0-20-1.22Z" transform="translate(0.44 0.94)"/><path class="a" d="M488.53,544.49a4,4,0,0,1-4-4.08c.12-8.44,2.68-15.78,5.16-22.88a210.37,210.37,0,0,1,9.1-20.62,256.38,256.38,0,0,1,23.36-38.37,265.11,265.11,0,0,1,30.23-33.19c12.52-11.55,24.33-20.31,36.08-26.77a4,4,0,0,1,4.53,6.63,360.59,360.59,0,0,0-31.16,29.67,411.7,411.7,0,0,0-27.71,32.69c-3.85,5.06-7.8,10.79-12.08,17.51-3.46,5.21-6.74,10.64-9.91,15.9l-1.46,2.42c-3.49,5.94-7.17,12.33-10.42,18.72-3.13,6.08-6.23,12.58-7.72,19l-.07.29A4,4,0,0,1,488.53,544.49Z" transform="translate(0.44 0.94)"/><path d="M590.38,399.58a2.53,2.53,0,0,1,1.63,4.48h0a363.8,363.8,0,0,0-31.27,29.78,416,416,0,0,0-27.82,32.82c-4.26,5.61-8.28,11.54-12.15,17.6s-7.66,12.19-11.38,18.35-7.24,12.45-10.48,18.82-6.34,12.88-7.84,19.31L491,541a2.53,2.53,0,0,1-2.45,2,3,3,0,0,1-.58-.07,2.52,2.52,0,0,1-1.94-2.49c.11-8.14,2.61-15.33,5.08-22.4a209.92,209.92,0,0,1,9-20.45,255.09,255.09,0,0,1,23.23-38.15,261.22,261.22,0,0,1,30-33c10.92-10.07,22.7-19.36,35.78-26.56a2.57,2.57,0,0,1,1.22-.31m0-3h0a5.49,5.49,0,0,0-2.66.69c-11.87,6.52-23.76,15.34-36.37,27A265.48,265.48,0,0,0,521,457.61a258.46,258.46,0,0,0-23.53,38.62A212.49,212.49,0,0,0,488.28,517V517c-2.52,7.21-5.13,14.66-5.25,23.35a5.56,5.56,0,0,0,4.26,5.45,5.36,5.36,0,0,0,1.26.15,5.5,5.5,0,0,0,5.37-4.27l.07-.28c1.46-6.24,4.51-12.64,7.59-18.63,3.24-6.36,6.91-12.73,10.4-18.67l1.45-2.41c3.16-5.24,6.43-10.65,9.84-15.8l0,0v0c4.26-6.69,8.19-12.38,12-17.4a409.33,409.33,0,0,1,27.63-32.6,358.05,358.05,0,0,1,31-29.5l0,0a5.54,5.54,0,0,0-3.56-9.78Z" transform="translate(0.44 0.94)"/><path class="a" d="M589.66,406.56a4,4,0,0,1-3.27-1.69c-4.9-6.88-7.18-14.31-9.38-21.49a209,209,0,0,1-4.87-22,257.25,257.25,0,0,1-3.88-44.76A265.4,265.4,0,0,1,573,272c3.26-16.72,7.59-30.77,13.24-42.93a4.06,4.06,0,0,1,3.66-2.34,4,4,0,0,1,3.92,5,360.69,360.69,0,0,0-7.56,42.35,410.86,410.86,0,0,0-3,42.76c-.11,6.35.09,13.31.62,21.26.29,6.22.87,12.51,1.42,18.6l.26,2.9c.81,7.93,1.58,14.58,2.68,21.26s2.43,13.83,5,19.86l.12.27a4,4,0,0,1-2.12,5.28A4.06,4.06,0,0,1,589.66,406.56Z" transform="translate(0.44 0.94)"/><path d="M589.89,228.2a2.56,2.56,0,0,1,1.07.24,2.53,2.53,0,0,1,1.39,2.9v0a362.44,362.44,0,0,0-7.59,42.5,412.84,412.84,0,0,0-3,42.92c-.12,7,.15,14.2.62,21.38s1,14.36,1.69,21.53,1.53,14.32,2.69,21.37,2.51,14.13,5.1,20.21l.12.27a2.53,2.53,0,0,1-1.33,3.31,2.65,2.65,0,0,1-1,.2,2.53,2.53,0,0,1-2-1.06c-4.73-6.63-7-13.9-9.17-21.06a210.05,210.05,0,0,1-4.82-21.82,255.12,255.12,0,0,1-3.86-44.5,262.46,262.46,0,0,1,4.7-44.37c2.84-14.57,6.84-29,13.13-42.58a2.54,2.54,0,0,1,2.3-1.47m0-3h0a5.54,5.54,0,0,0-5,3.21c-5.7,12.28-10.07,26.43-13.35,43.27a267.32,267.32,0,0,0-4.76,44.88,258.27,258.27,0,0,0,3.9,45.05,208.66,208.66,0,0,0,4.9,22.14v.06c2.23,7.31,4.54,14.86,9.59,21.93a5.52,5.52,0,0,0,4.49,2.32,5.41,5.41,0,0,0,2.17-.45,5.52,5.52,0,0,0,2.91-7.24l-.12-.27c-2.51-5.89-3.84-12.85-4.9-19.5-1.16-7.05-2-14.36-2.67-21.2l-.25-2.81c-.56-6.09-1.13-12.39-1.42-18.56v0c-.52-7.92-.72-14.83-.61-21.13a411.09,411.09,0,0,1,3-42.63,360.43,360.43,0,0,1,7.51-42.11v-.05a5.54,5.54,0,0,0-5.37-6.86Z" transform="translate(0.44 0.94)"/><path class="a" d="M591.43,238.42a4.12,4.12,0,0,1-1.21-.18c-8.05-2.55-14.34-7.13-20.42-11.55A213.51,213.51,0,0,1,552.68,212a256,256,0,0,1-30-33.45,264.32,264.32,0,0,1-23.05-38.52c-7.44-15.32-12.42-29.15-15.21-42.27a4,4,0,0,1,.56-3,4,4,0,0,1,7.09.61,361.17,361.17,0,0,0,19.41,38.4,412.2,412.2,0,0,0,23.31,36c3.73,5.15,8.07,10.59,13.27,16.62,4,4.81,8.24,9.52,12.35,14.07l1.91,2.11c4.67,5,9.72,10.41,14.91,15.38,4.92,4.75,10.25,9.59,15.94,12.87l.26.14a4,4,0,0,1,1.87,2.44,4,4,0,0,1-.4,3A4,4,0,0,1,591.43,238.42Z" transform="translate(0.44 0.94)"/><path d="M488.38,94.41A2.52,2.52,0,0,1,490.7,96v0a364.1,364.1,0,0,0,19.48,38.54,415,415,0,0,0,23.4,36.11c4.14,5.7,8.65,11.26,13.34,16.71s9.46,10.86,14.29,16.2,9.83,10.52,15,15.46,10.5,9.79,16.22,13.09l.26.14a2.52,2.52,0,0,1-1.26,4.7,2.45,2.45,0,0,1-.76-.11c-7.76-2.46-13.93-6.92-20-11.33a209.09,209.09,0,0,1-17-14.54,254.88,254.88,0,0,1-29.82-33.25A262.64,262.64,0,0,1,501,139.4c-6.49-13.35-12-27.32-15.1-41.92a2.54,2.54,0,0,1,2-3,2.33,2.33,0,0,1,.53-.06m0-3a5.65,5.65,0,0,0-1.16.13A5.53,5.53,0,0,0,483,98.1c2.82,13.24,7.84,27.18,15.33,42.61a267,267,0,0,0,23.17,38.73,257.63,257.63,0,0,0,30.19,33.67,211.37,211.37,0,0,0,17.21,14.75l0,0,0,0c6.18,4.49,12.56,9.13,20.84,11.76a5.52,5.52,0,0,0,4.43-10l-.26-.15c-5.55-3.2-10.8-8-15.64-12.65-5.16-4.94-10.2-10.29-14.87-15.34l-1.89-2.09c-4.1-4.54-8.34-9.23-12.29-14l0,0v0c-5.18-6-9.49-11.42-13.19-16.52A410.38,410.38,0,0,1,512.78,133a360.84,360.84,0,0,1-19.3-38.18l0,0a5.51,5.51,0,0,0-5.08-3.36Z" transform="translate(0.44 0.94)"/><path class="a" d="M476,101c-3,0-6-.15-8.63-.29A210.43,210.43,0,0,1,445,97.78,256.76,256.76,0,0,1,401.6,86.2a264.06,264.06,0,0,1-40.37-19.63c-14.62-8.75-26.35-17.59-35.87-27a4,4,0,0,1,2.84-6.9,4.07,4.07,0,0,1,2.24.68,361.08,361.08,0,0,0,37.25,21.52,412.92,412.92,0,0,0,39.2,17.35c5.93,2.26,12.54,4.43,20.2,6.65,6,1.84,12.1,3.45,18,5l2.76.73c6.68,1.66,13.85,3.39,20.9,4.71a98.25,98.25,0,0,0,17.8,2.12c.89,0,1.75,0,2.58-.07l.29,0h.23a4,4,0,0,1,1.08,7.89A53.53,53.53,0,0,1,476,101Z" transform="translate(0.44 0.94)"/><path d="M328.2,34.12a2.53,2.53,0,0,1,1.4.43h0A363.56,363.56,0,0,0,367,56.15a412.8,412.8,0,0,0,39.34,17.42c6.58,2.51,13.4,4.69,20.32,6.69s13.85,3.9,20.82,5.74,14,3.42,21,4.73a98.23,98.23,0,0,0,18.08,2.15c.9,0,1.79,0,2.67-.08h.43a2.52,2.52,0,0,1,.68,5A52.71,52.71,0,0,1,476,99.47c-2.88,0-5.72-.14-8.56-.29a209.76,209.76,0,0,1-22.16-2.88,254.19,254.19,0,0,1-43.15-11.51A260.82,260.82,0,0,1,362,65.28c-12.75-7.62-25-16.3-35.59-26.82a2.54,2.54,0,0,1,1.79-4.34m0-3a5.53,5.53,0,0,0-5.53,5.56,5.47,5.47,0,0,0,1.63,3.91c9.61,9.54,21.43,18.46,36.15,27.27A266.41,266.41,0,0,0,401,87.59a258.37,258.37,0,0,0,43.69,11.66,211.92,211.92,0,0,0,22.48,2.93h.07c2.68.13,5.71.29,8.71.29a55.36,55.36,0,0,0,15.18-1.85,5.52,5.52,0,0,0-1.49-10.84h-.31l-.29,0c-.8,0-1.64.07-2.5.07a97.27,97.27,0,0,1-17.51-2.09c-7-1.31-14.17-3-20.85-4.7l-2.73-.72c-5.91-1.55-12-3.16-17.93-5h-.05c-7.62-2.2-14.19-4.37-20.08-6.61a409.27,409.27,0,0,1-39.07-17.3,359,359,0,0,1-37.05-21.39l0,0a5.57,5.57,0,0,0-3.07-.93Z" transform="translate(0.44 0.94)"/><path class="a" d="M167.62,113.86a16.64,16.64,0,1,1,16.63-16.64A16.65,16.65,0,0,1,167.62,113.86Z" transform="translate(0.44 0.94)"/><path d="M167.62,84.59A12.64,12.64,0,1,1,155,97.22a12.63,12.63,0,0,1,12.64-12.63m0-8a20.64,20.64,0,1,0,20.63,20.63,20.66,20.66,0,0,0-20.63-20.63Z" transform="translate(0.44 0.94)"/><path class="a" d="M488,113.86a16.64,16.64,0,1,1,16.64-16.64A16.65,16.65,0,0,1,488,113.86Z" transform="translate(0.44 0.94)"/><path d="M488,84.59a12.64,12.64,0,1,1-12.64,12.63A12.63,12.63,0,0,1,488,84.59m0-8a20.64,20.64,0,1,0,20.63,20.63A20.66,20.66,0,0,0,488,76.59Z" transform="translate(0.44 0.94)"/><circle class="a" cx="587.22" cy="234.71" r="16.64"/><path d="M586.77,221.13a12.64,12.64,0,1,1-12.63,12.64,12.64,12.64,0,0,1,12.63-12.64m0-8a20.64,20.64,0,1,0,20.64,20.64,20.66,20.66,0,0,0-20.64-20.64Z" transform="translate(0.44 0.94)"/><path class="a" d="M582.87,419.72a16.64,16.64,0,1,1,16.63-16.64A16.66,16.66,0,0,1,582.87,419.72Z" transform="translate(0.44 0.94)"/><path d="M582.87,390.44a12.64,12.64,0,1,1-12.64,12.64,12.63,12.63,0,0,1,12.64-12.64m0-8a20.64,20.64,0,1,0,20.63,20.64,20.66,20.66,0,0,0-20.63-20.64Z" transform="translate(0.44 0.94)"/><path class="a" d="M483.52,553.11a16.64,16.64,0,1,1,16.64-16.64A16.66,16.66,0,0,1,483.52,553.11Z" transform="translate(0.44 0.94)"/><path d="M483.52,523.84a12.64,12.64,0,1,1-12.64,12.63,12.64,12.64,0,0,1,12.64-12.63m0-8a20.64,20.64,0,1,0,20.64,20.63,20.66,20.66,0,0,0-20.64-20.63Z" transform="translate(0.44 0.94)"/><path class="a" d="M327.24,601.11a16.64,16.64,0,1,1,16.64-16.64A16.65,16.65,0,0,1,327.24,601.11Z" transform="translate(0.44 0.94)"/><path d="M327.24,571.84a12.64,12.64,0,1,1-12.63,12.63,12.64,12.64,0,0,1,12.63-12.63m0-8a20.64,20.64,0,1,0,20.64,20.63,20.65,20.65,0,0,0-20.64-20.63Z" transform="translate(0.44 0.94)"/><circle class="a" cx="171.96" cy="533.51" r="16.64"/><path d="M171.52,519.93a12.64,12.64,0,1,1-12.63,12.64,12.64,12.64,0,0,1,12.63-12.64m0-8a20.64,20.64,0,1,0,20.64,20.64,20.66,20.66,0,0,0-20.64-20.64Z" transform="translate(0.44 0.94)"/><path class="a" d="M73.29,419.72a16.64,16.64,0,1,1,16.64-16.64A16.67,16.67,0,0,1,73.29,419.72Z" transform="translate(0.44 0.94)"/><path d="M73.29,390.44a12.64,12.64,0,1,1-12.64,12.64,12.64,12.64,0,0,1,12.64-12.64m0-8a20.64,20.64,0,1,0,20.64,20.64,20.66,20.66,0,0,0-20.64-20.64Z" transform="translate(0.44 0.94)"/><path class="a" d="M70.78,254a16.64,16.64,0,1,1,16.63-16.64A16.65,16.65,0,0,1,70.78,254Z" transform="translate(0.44 0.94)"/><path d="M70.78,224.68a12.64,12.64,0,1,1-12.64,12.63,12.64,12.64,0,0,1,12.64-12.63m0-8a20.64,20.64,0,1,0,20.63,20.63,20.66,20.66,0,0,0-20.63-20.63Z" transform="translate(0.44 0.94)"/><path class="a" d="M328,53.66A16.64,16.64,0,1,1,344.6,37,16.65,16.65,0,0,1,328,53.66Z" transform="translate(0.44 0.94)"/><path d="M328,24.39A12.64,12.64,0,1,1,315.33,37,12.63,12.63,0,0,1,328,24.39m0-8A20.64,20.64,0,1,0,348.6,37,20.65,20.65,0,0,0,328,16.39Z" transform="translate(0.44 0.94)"/><path class="a" d="M165.53,154.09c5.89-17,8.75-35.56,5.52-50.61,13.67,6.29,33,7.28,43.7,7.28,3.26,0,6.57-.09,9.87-.26A230.34,230.34,0,0,0,165.53,154.09Z" transform="translate(0.44 0.94)"/><path d="M176,109.7c10.48,3.41,22.59,4.66,32.92,5A235,235,0,0,0,173.44,141C175.9,130.3,177,119.51,176,109.7m-7.14-11.5a2.54,2.54,0,0,0-1.6.58,2.5,2.5,0,0,0-.87,2.65c6.3,22.27-3.31,55.81-17.2,77.7A227.18,227.18,0,0,1,251,103.22a181.29,181.29,0,0,1-36.23,3.54c-17,0-34-2.34-44.66-8.25a2.47,2.47,0,0,0-1.2-.31Z" transform="translate(0.44 0.94)"/><path class="a" d="M482.62,532.75c-12.54-6.06-31.15-9.93-50.23-10.43a230.09,230.09,0,0,0,65.41-48.71C487.36,493,479.41,515.54,482.62,532.75Zm46.12-100.47a230.93,230.93,0,0,0,29.72-84.7c3.26,20.81,10.26,42.66,22.71,54.37C564.18,405.23,544.07,418,528.74,432.28Zm30.63-141.73A228.91,228.91,0,0,0,532,204.2c15.44,16.46,34.38,30.19,51.58,32.35C572.36,248.63,563.74,270.2,559.37,290.55ZM504.1,164.41a232.1,232.1,0,0,0-68.56-53.87c2.78.18,5.56.26,8.31.26,17,0,32-3.35,42.71-9.5C484.63,119.45,494,144.85,504.1,164.41ZM370.3,88.51a232.65,232.65,0,0,0-76.19-.7c14.32-10,27.6-23.25,33.88-37.4C335.62,63.8,352.93,77.83,370.3,88.51Z" transform="translate(0.44 0.94)"/><path d="M328.45,58.28c6.22,8.25,15.36,16.5,25.42,23.92A236,236,0,0,0,330.12,81c-7.35,0-14.69.34-22,1,8.15-7.11,15.31-15.16,20.31-23.75m153.91,49.6c.34,11.41,3.86,24.58,8.7,37.19A236.1,236.1,0,0,0,451,114.61c9.72-.53,21.07-2.28,31.35-6.73m63,114.33c10,8,20.54,14.14,30.9,16.95-6.38,8.64-11.73,20-15.74,31.93a233.38,233.38,0,0,0-15.16-48.88m13.45,145.51c3.41,12.12,8.28,23.5,15,32-10.64,3.26-21.77,9.36-32,16.74a235.33,235.33,0,0,0,17.07-48.71m-73.6,123.74c-4.62,12-7.55,24.13-7.22,35a132.88,132.88,0,0,0-31.43-7.14,233.93,233.93,0,0,0,38.65-27.83M327.83,44.35h-.1a2.33,2.33,0,0,0-1,.23h0c-.06,0-.1.08-.15.11a2.41,2.41,0,0,0-.63.47,2.48,2.48,0,0,0-.44.71,1.25,1.25,0,0,0-.08.12c-7.57,20.6-32.71,41-55.84,51.19A226.87,226.87,0,0,1,330.12,89c125.15,0,226.6,101.45,226.6,226.6,0,96.73-60.61,179.29-145.92,211.8a125.29,125.29,0,0,1,17.39-1.15c20.23,0,42.22,4.18,55.4,11.49.05,0,.11,0,.16,0a2.54,2.54,0,0,0,.59.19l.32,0,.14,0a2.72,2.72,0,0,0,.69-.09,2.49,2.49,0,0,0,.87-.45,2.56,2.56,0,0,0,.64-.75h0s0-.08,0-.12a2.84,2.84,0,0,0,.26-.81,2.6,2.6,0,0,0-.07-.88s0-.06,0-.09h0c-7-24.78,15.52-65.81,31.36-85.85,15.27-19.31,44.24-40.9,66.29-43.6a1.86,1.86,0,0,0,.47-.16,2.4,2.4,0,0,0,.38-.12,2.45,2.45,0,0,0,.79-.63l0,0h0a2.6,2.6,0,0,0,.44-.88,2.49,2.49,0,0,0,.07-1h0s0,0,0-.05a2.24,2.24,0,0,0-.29-.87,2.61,2.61,0,0,0-.58-.7l0-.05h0c-19.64-15.47-26.93-60.29-25.84-87.17,1-25.11,12.14-61.53,28.32-76.6v0a2.54,2.54,0,0,0,.56-.78,2.51,2.51,0,0,0,.2-.86.24.24,0,0,0,0-.08h0a2.52,2.52,0,0,0-.15-1,2.48,2.48,0,0,0-.52-.83h0s-.07,0-.09-.07a2.64,2.64,0,0,0-.7-.5,2.3,2.3,0,0,0-.73-.18,1.74,1.74,0,0,0-.22-.05c-24-.92-52.7-28.1-69.27-53-13.65-20.5-31-59.19-26.73-81h0a0,0,0,0,0,0,0,2.53,2.53,0,0,0,0-1,3,3,0,0,0-.31-.76s0-.1-.06-.14h0a2.56,2.56,0,0,0-.7-.69,2.45,2.45,0,0,0-.9-.37h-.11a2.39,2.39,0,0,0-.87,0,2.45,2.45,0,0,0-.83.35s-.05,0-.07,0h0c-11,7.38-26.92,10.54-43.25,10.54-15,0-30.41-2.68-42.69-7.23C377.94,91,339.68,66.35,330.11,45.8a.54.54,0,0,0-.09-.12,2.46,2.46,0,0,0-.49-.67,2.57,2.57,0,0,0-.67-.41,1.4,1.4,0,0,0-.16-.1h0a2.47,2.47,0,0,0-.86-.15Z" transform="translate(0.44 0.94)"/><path class="a" d="M330.12,526.47A210.27,210.27,0,0,1,193.21,476l84.14-80.89a37.41,37.41,0,0,0,7.64.8,29.87,29.87,0,0,0,16.08-4.39c7.26-4.71,12.89-14.39,14.55-24.7a167.94,167.94,0,0,0,24.49-9.07c12.12-5.55,28.68-14.77,38.71-27.15,8.87-11,13.42-25.29,12.8-40.37-.52-13.05-5-25.36-11.72-32.12-6.31-6.34-18.49-13.12-33.79-13.12-11.41,0-22.79,3.64-33.83,10.81-12.25,8-22.66,21.82-30.93,41.2a190.31,190.31,0,0,0-9,26.86c-10.07,2.06-22.24,10.16-28.65,24.65-2.16,4.86-2.33,10.45-.52,16.29L162,442.87A210.88,210.88,0,0,1,330.12,104.75a210.86,210.86,0,0,1,0,421.72Z" transform="translate(0.44 0.94)"/><path d="M330.12,108.75A206.86,206.86,0,1,1,256.37,509a204.68,204.68,0,0,1-57.17-33.21l79.45-76.39a41,41,0,0,0,6.34.5,33.91,33.91,0,0,0,18.27-5c7.67-5,13.55-14.37,15.83-24.86a180.35,180.35,0,0,0,22.69-8.62c12.51-5.73,29.63-15.29,40.15-28.28,21.4-26.43,14.77-63.74.8-77.83-6.87-6.9-20.09-14.29-36.62-14.29-12.2,0-24.31,3.86-36,11.45-12.93,8.41-23.84,22.87-32.43,43a191.39,191.39,0,0,0-8.6,25.12c-10.59,3-22.56,11.69-29,26.33a26.14,26.14,0,0,0-1.34,16.66l-76.24,73.3a204.64,204.64,0,0,1-27.75-53.06,207,207,0,0,1,195.42-275m0-8a214.88,214.88,0,0,0-168.6,348.08l86.29-82.95c-2.32-5.72-2.49-11.18-.46-15.76,6.28-14.21,18.76-21.66,27.85-22.67l.4-.09a184.38,184.38,0,0,1,9.43-28.8c8-18.62,17.85-31.89,29.43-39.42,10.38-6.74,21-10.16,31.65-10.16,14.08,0,25.21,6.17,30.95,11.93,11.62,11.72,17,44.48-1.34,67.16-9.54,11.77-25.53,20.65-37.27,26-9.66,4.42-20.49,8.25-26.46,9.46-.85,9.85-5.95,20-13.09,24.6A26,26,0,0,1,285,391.9a33.31,33.31,0,0,1-8.83-1.21L187.3,476.13A214.86,214.86,0,1,0,330.12,100.75Z" transform="translate(0.44 0.94)"/><path class="a" d="M128.61,427.93c-15.43-14.38-33.81-25.75-49.73-27.69,10.37-11.22,18.54-30.78,23.18-50A226.18,226.18,0,0,0,128.61,427.93Zm-27-143.32C96.62,266,88,248.05,76.7,237.73c14.26-2.89,32.14-13.4,47.41-25.84A228.77,228.77,0,0,0,101.58,284.61Z" transform="translate(0.44 0.94)"/><path d="M113.81,224.63a231.91,231.91,0,0,0-13.42,43.17c-4.17-10.62-9.57-20.39-16.08-28,9.43-3.06,19.67-8.53,29.5-15.22M101.22,367.56a229.66,229.66,0,0,0,15.11,45c-9.8-7-20.13-12.43-30.1-15,6-8.16,11.06-18.72,15-30M143,187.86C126.49,208,94.26,231.7,73,234.29a1.45,1.45,0,0,0-.29.11,2.43,2.43,0,0,0-.63.2,2.78,2.78,0,0,0-.64.54.9.9,0,0,0-.1.09l0,0a2.48,2.48,0,0,0-.43.86,2.51,2.51,0,0,0-.08,1h0a2.66,2.66,0,0,0,.29.89.45.45,0,0,0,.11.13,2.62,2.62,0,0,0,.5.6l0,.05c19.63,15.45,31.62,55.46,30.49,83.13-1,25.63-12.18,62.6-28.37,77.72h0a3.06,3.06,0,0,0-.21.29,2.09,2.09,0,0,0-.35.49,2.84,2.84,0,0,0-.23.9s0,0,0,.07v.09a2.53,2.53,0,0,0,.67,1.7v0l.05,0a2.61,2.61,0,0,0,.77.54,3,3,0,0,0,.47.12,2.62,2.62,0,0,0,.45.1c24,.93,55.41,27.09,71.9,51.85.88,1.32,1.76,2.68,2.62,4.11L153,457A226.62,226.62,0,0,1,143,187.86Z" transform="translate(0.44 0.94)"/><path class="a" d="M327.69,580.79c-7.92-14.37-24.52-28.68-41.53-38.78A231.51,231.51,0,0,0,362,544C347.27,554.12,333.85,567.16,327.69,580.79Zm-153.18-50.5c1.33-11.06-1.07-23.39-3.72-32.75l8.12-7.81a230.66,230.66,0,0,0,51.88,34,154.22,154.22,0,0,0-18.48-1.16C201.13,522.6,185.9,524,174.51,530.29Z" transform="translate(0.44 0.94)"/><path d="M179.07,495.13a234.73,234.73,0,0,0,33.37,23.47h-.13c-9.73,0-22.43,1-33.43,5.27a99.58,99.58,0,0,0-3.61-25.09l3.8-3.65m124.28,53.56a235.86,235.86,0,0,0,26.77,1.53q9,0,18.06-.7c-8.35,7.06-15.7,15-20.76,23.29-6.07-8.67-14.62-16.93-24.07-24.12M178.8,484.29l-12.53,12c4,13.16,5.8,26.21,3.81,36.4,0,0,0,.09,0,.13a3,3,0,0,0,0,.85,2.53,2.53,0,0,0,.29.7,1.67,1.67,0,0,0,.08.2h0a2.48,2.48,0,0,0,.69.68,2.35,2.35,0,0,0,.91.38,2.7,2.7,0,0,0,.48,0,2.38,2.38,0,0,0,.26,0c.13,0,.25,0,.38-.06a2.17,2.17,0,0,0,.54-.24,1,1,0,0,0,.22-.08c9.12-6.1,23.14-8.71,38.36-8.71a155.88,155.88,0,0,1,51.59,9c22.84,8.46,52.14,29.4,61.65,49.8h0a2.57,2.57,0,0,0,.51.7c.06.06.13.1.19.15a2.2,2.2,0,0,0,.58.37c.05,0,.08.06.13.08H327a3,3,0,0,0,.78.14h0a2.52,2.52,0,0,0,.94-.21l.11,0a.52.52,0,0,0,.11-.1,2.24,2.24,0,0,0,.56-.39,1.36,1.36,0,0,0,.17-.17,2.41,2.41,0,0,0,.46-.75c7-19.06,31.31-38.77,54.23-49.58A226.86,226.86,0,0,1,178.8,484.29Z" transform="translate(0.44 0.94)"/><circle class="a" cx="330.29" cy="315.61" r="207.36" transform="translate(-125.99 326.93) rotate(-45)"/><path d="M330.29,115.75a199.17,199.17,0,1,1-77.79,15.7,198.54,198.54,0,0,1,77.79-15.7m0-15c-118.66,0-214.86,96.19-214.86,214.86s96.2,214.86,214.86,214.86,214.86-96.19,214.86-214.86S449,100.75,330.29,100.75Z" transform="translate(0.44 0.94)"/><path d="M69.45,577.84a14.9,14.9,0,0,1-10.67-4.54,14.8,14.8,0,0,1,.42-20.92L252.59,366.8c-2.9-5.6-3.48-10.83-1.61-15.07,4.66-10.5,12.15-16.1,22.91-17.11.25,0,.5,0,.75,0a5.93,5.93,0,0,1,3.82,1.26,17.8,17.8,0,0,1,.35-4.58c1.83-8.57,12.26-52.16,37.82-68.78,9.72-6.32,19.64-9.52,29.5-9.52,12.85,0,22.94,5.56,28.1,10.76,10.62,10.71,15.39,40.84-1.61,61.85S314.82,359.74,309,360l-.79,0c-.77,0-1.58-.05-2.44-.13,1.9,10.25-1.65,20.16-9.07,25a21.34,21.34,0,0,1-11.66,3.13,31.08,31.08,0,0,1-10-1.74L79.69,573.71A14.69,14.69,0,0,1,69.45,577.84Z" transform="translate(0.44 0.94)"/><path class="a" d="M346.13,259c11.45,0,20,5.08,23.84,9,7.66,7.73,13.66,34.48-2,53.85s-54.65,32-59.14,32.17l-.57,0a30.4,30.4,0,0,1-17.65-6.47c-5.19-4.27-6.86-10.6-5.92-15s10.89-49.18,35.23-65c9.71-6.31,18.62-8.55,26.23-8.55m-71.68,81.63s1.33,4,10.67,12.69,14,4.31,14.55,6.58c2,8.64-.86,16.45-6.2,19.91a15.54,15.54,0,0,1-8.4,2.17,26.32,26.32,0,0,1-11.32-2.77L75.54,569.38a8.79,8.79,0,0,1-12.19-12.67L260.23,367.78c-3.42-4.79-5.33-10.07-3.76-13.62,4.71-10.64,11.77-13,18-13.57M346.13,247c-11,0-22.06,3.53-32.77,10.49-26.35,17.13-37.53,59.72-40.12,71.2-12.89,1.24-22.22,8.19-27.74,20.65-2.13,4.8-2.12,10.3-.07,16.05L55,548.05a20.8,20.8,0,0,0-.58,29.41,20.9,20.9,0,0,0,15,6.38A20.66,20.66,0,0,0,83.86,578L276.75,392.92a35.73,35.73,0,0,0,8.32,1A27.37,27.37,0,0,0,300,389.85c7.74-5,12.22-14.2,12.31-24.29,6.73-1.31,18.16-5.59,26.87-9.57,12-5.46,28.29-14.52,38.11-26.65a57.86,57.86,0,0,0,12.42-39.43c-.61-12.41-4.91-24.06-11.21-30.42-6-6.06-17.67-12.53-32.36-12.53Z" transform="translate(0.44 0.94)"/></svg>