<svg xmlns="http://www.w3.org/2000/svg" viewBox="0 0 640 640"><defs><style>.a{fill:#fff;}.b{fill:#010101;}</style></defs><title>drum_round_b&amp;amp;w</title><path class="a" d="M318.68,631.56a312.5,312.5,0,0,1-221-533.47A312.5,312.5,0,1,1,539.65,540,310.48,310.48,0,0,1,318.68,631.56Z" transform="translate(1.32 0.94)"/><path class="b" d="M318.68,14.06a305.09,305.09,0,0,1,118.71,586A305.08,305.08,0,0,1,200,38a303.06,303.06,0,0,1,118.72-24m0-15c-176.73,0-320,143.27-320,320s143.27,320,320,320,320-143.27,320-320-143.27-320-320-320Z" transform="translate(1.32 0.94)"/><path d="M555.9,222.21l-.22-.12-.18-.12c0-.16.07-.32.11-.48v0a2.13,2.13,0,0,0-3.72-1.86,93.43,93.43,0,0,1-9.87-8.53c-4.34-4.16-8.49-8.57-12.61-13s-8.15-9-12-13.62-7.75-9.27-11.23-14.06A351.29,351.29,0,0,1,486.5,140a308.35,308.35,0,0,1-15.92-31.35,2.09,2.09,0,0,0,.78-1.75,2.12,2.12,0,0,0-2.23-2l-.25,0c-5.55.31-11.58-.62-17.45-1.75s-11.8-2.51-17.67-4-11.73-3-17.52-4.83-11.55-3.51-17.09-5.62A349.73,349.73,0,0,1,366.06,74.1a315.29,315.29,0,0,1-28.85-16.46,3,3,0,0,0-5.92.25A86,86,0,0,1,319.09,66c-5.21,3-10.61,5.76-16,8.46s-10.9,5.31-16.45,7.71S275.56,87,270,89A350.47,350.47,0,0,1,235.3,99.35,304.66,304.66,0,0,1,199.59,106h0a1.37,1.37,0,0,0-.4.09,2.11,2.11,0,0,0-3.77.89l0,.25c-1,5.47-3.3,11.11-5.76,16.56s-5.19,10.89-8,16.26-5.69,10.7-8.77,15.91-6.11,10.41-9.45,15.31a348.66,348.66,0,0,1-21.95,28.78,311.38,311.38,0,0,1-23.52,25c-.39-.56-.78-1.12-1.21-1.67a2.12,2.12,0,0,0-3.57,2.23l.1.23c2.42,5,3.87,10.93,5.08,16.78s2.2,11.86,3.1,17.85,1.68,12,2.25,18,1.18,12,1.35,17.94a347.26,347.26,0,0,1-.84,36.18,312.15,312.15,0,0,1-4.29,33.71,35.89,35.89,0,0,0-4.27-1.52,2.12,2.12,0,0,0-1.58,3.9l.22.12c4.9,2.63,9.55,6.57,14,10.59s8.75,8.31,13,12.63,8.42,8.72,12.42,13.26,8,9,11.64,13.72q4,5.12,7.77,10.45l7.28-6.84c-2.27-3.32-4.62-6.59-7.08-9.81a214.05,214.05,0,0,0-25.91-27.2,178,178,0,0,0-14.64-11.8c-2.78-1.9-5.59-3.8-8.61-5.45a158,158,0,0,0,8.79-34.8,220,220,0,0,0,2.22-37.47,213.58,213.58,0,0,0-5-37.24,176.24,176.24,0,0,0-4.91-18.14A84,84,0,0,0,120.32,229a157.67,157.67,0,0,0,27.6-23,220.67,220.67,0,0,0,23.82-29,215.27,215.27,0,0,0,17.87-33.05,180.18,180.18,0,0,0,6.7-17.57c1.51-5.17,3-10.41,3.27-16.1l.09,0c12.52.93,25.1-.22,37.41-2.31a219.71,219.71,0,0,0,36.32-9.46,214.15,214.15,0,0,0,33.88-16.24A176.12,176.12,0,0,0,323,72a71.06,71.06,0,0,0,11.45-10.3,161.7,161.7,0,0,0,27.36,20.12,220.66,220.66,0,0,0,33.76,16.41,214.09,214.09,0,0,0,36.3,9.68,175.24,175.24,0,0,0,18.64,2.42c5.17.26,10.4.51,15.77-.43a156.7,156.7,0,0,0,12.46,34.27A220.41,220.41,0,0,0,498,176.33a213.84,213.84,0,0,0,25.08,28,178,178,0,0,0,14.28,12.24,74.68,74.68,0,0,0,12.35,7.77,162.72,162.72,0,0,0-9.17,31.57,221,221,0,0,0-4,37.33,214.63,214.63,0,0,0,3.25,37.43A174.91,174.91,0,0,0,543.92,349c1.63,5.33,3.3,10.73,6.41,15.77a160,160,0,0,0-27.5,20.84,220.45,220.45,0,0,0-25.27,27.75A213.06,213.06,0,0,0,478,445.44a176.07,176.07,0,0,0-7.59,17.19,72.5,72.5,0,0,0-4,14.7,166.43,166.43,0,0,0-30.44,1,219.91,219.91,0,0,0-36.78,7.49,215.26,215.26,0,0,0-34.71,14.39,177.31,177.31,0,0,0-16.27,9.41c-5.19,3.58-10.45,7.23-14.57,12.7a2.46,2.46,0,0,0-.28.53c-8.92-8.75-19.21-16-29.91-22.32a219.61,219.61,0,0,0-33.82-16.26,214.61,214.61,0,0,0-36.35-9.53,175.3,175.3,0,0,0-18.65-2.34,18.7,18.7,0,0,0-8.87,1.69,151.87,151.87,0,0,0-8.7-22.37l-6,5.88q5.19,9,9.77,18.27l-1,.3a2.13,2.13,0,0,0-1.54,2.17c.08,1.17,2.5,2,2.5,2,.76-.05,1.43-.12,2.06-.2.1.2.19.39.28.59v0a2.13,2.13,0,0,0,4-1.35,17.5,17.5,0,0,1,6.57.14c5.91,1.08,11.81,2.47,17.69,3.91s11.75,3,17.54,4.75,11.56,3.46,17.11,5.55a349.77,349.77,0,0,1,33.16,14.51,304.85,304.85,0,0,1,31.53,18h0a2.14,2.14,0,0,0,2.7-.29,2,2,0,0,0,.47-.76,2.12,2.12,0,0,0,2.74,0L337,525c4.21-3.62,9.57-6.55,14.91-9.23s10.9-5.17,16.45-7.58,11.16-4.72,16.84-6.82,11.31-4.23,17-5.92a347.31,347.31,0,0,1,35.18-8.5c9.68-1.81,19.43-3.25,29.26-4.16a2.12,2.12,0,0,0,3.54-.3c1.07-.09,2.14-.17,3.22-.24h0a2.13,2.13,0,0,0,.13-4.24l-2-.23A93.56,93.56,0,0,1,477,465.51c2.73-5.36,5.75-10.61,8.82-15.83s6.23-10.4,9.57-15.44,6.64-10.09,10.23-14.81A349.5,349.5,0,0,1,529,391.82a305.16,305.16,0,0,1,26.3-25l0,0a2.12,2.12,0,0,0,.5-2.66,2.16,2.16,0,0,0-1.14-1,78.93,78.93,0,0,1-3.78-15.71c-1-5.93-1.65-11.95-2.27-18s-1.12-12.07-1.41-18.11-.63-12.06-.52-18a347.52,347.52,0,0,1,2.52-36.1,313.26,313.26,0,0,1,5.29-31.11,2.12,2.12,0,0,0,1.38-3.93Z" transform="translate(1.32 0.94)"/><path class="a" d="M198.48,124.61a14.81,14.81,0,1,1,14.81-14.8A14.82,14.82,0,0,1,198.48,124.61Z" transform="translate(1.32 0.94)"/><path d="M198.48,99a10.81,10.81,0,1,1-10.8,10.81A10.81,10.81,0,0,1,198.48,99m0-8a18.81,18.81,0,1,0,18.81,18.81A18.83,18.83,0,0,0,198.48,91Z" transform="translate(1.32 0.94)"/><path class="a" d="M472.42,124.61a14.81,14.81,0,1,1,14.81-14.8A14.83,14.83,0,0,1,472.42,124.61Z" transform="translate(1.32 0.94)"/><path d="M472.42,99a10.81,10.81,0,1,1-10.81,10.81A10.8,10.8,0,0,1,472.42,99m0-8a18.81,18.81,0,1,0,18.8,18.81A18.83,18.83,0,0,0,472.42,91Z" transform="translate(1.32 0.94)"/><path class="a" d="M556.89,241.37a14.81,14.81,0,1,1,14.81-14.81A14.82,14.82,0,0,1,556.89,241.37Z" transform="translate(1.32 0.94)"/><path d="M556.89,215.76a10.81,10.81,0,1,1-10.8,10.8,10.8,10.8,0,0,1,10.8-10.8m0-8a18.81,18.81,0,1,0,18.81,18.8,18.82,18.82,0,0,0-18.81-18.8Z" transform="translate(1.32 0.94)"/><path class="a" d="M553.55,386.14a14.81,14.81,0,1,1,14.81-14.8A14.82,14.82,0,0,1,553.55,386.14Z" transform="translate(1.32 0.94)"/><path d="M553.55,360.53a10.81,10.81,0,1,1-10.8,10.81,10.81,10.81,0,0,1,10.8-10.81m0-8a18.81,18.81,0,1,0,18.81,18.81,18.83,18.83,0,0,0-18.81-18.81Z" transform="translate(1.32 0.94)"/><path class="a" d="M468.6,500.2a14.81,14.81,0,1,1,14.81-14.8A14.82,14.82,0,0,1,468.6,500.2Z" transform="translate(1.32 0.94)"/><path d="M468.6,474.59a10.81,10.81,0,1,1-10.8,10.81,10.81,10.81,0,0,1,10.8-10.81m0-8a18.81,18.81,0,1,0,18.81,18.81,18.83,18.83,0,0,0-18.81-18.81Z" transform="translate(1.32 0.94)"/><path class="a" d="M335,541.25a14.81,14.81,0,1,1,14.81-14.81A14.83,14.83,0,0,1,335,541.25Z" transform="translate(1.32 0.94)"/><path d="M335,515.64a10.81,10.81,0,1,1-10.8,10.8,10.8,10.8,0,0,1,10.8-10.8m0-8a18.81,18.81,0,1,0,18.81,18.8A18.82,18.82,0,0,0,335,507.64Z" transform="translate(1.32 0.94)"/><path class="a" d="M201.82,496.86a14.81,14.81,0,1,1,14.81-14.8A14.82,14.82,0,0,1,201.82,496.86Z" transform="translate(1.32 0.94)"/><path d="M201.82,471.25A10.81,10.81,0,1,1,191,482.06a10.81,10.81,0,0,1,10.8-10.81m0-8a18.81,18.81,0,1,0,18.81,18.81,18.83,18.83,0,0,0-18.81-18.81Z" transform="translate(1.32 0.94)"/><path class="a" d="M117.83,386.14a14.81,14.81,0,1,1,14.8-14.8A14.83,14.83,0,0,1,117.83,386.14Z" transform="translate(1.32 0.94)"/><path d="M117.83,360.53A10.81,10.81,0,1,1,107,371.34a10.8,10.8,0,0,1,10.81-10.81m0-8a18.81,18.81,0,1,0,18.8,18.81,18.83,18.83,0,0,0-18.8-18.81Z" transform="translate(1.32 0.94)"/><path class="a" d="M115.68,244.4a14.81,14.81,0,1,1,14.8-14.8A14.83,14.83,0,0,1,115.68,244.4Z" transform="translate(1.32 0.94)"/><path d="M115.68,218.79a10.81,10.81,0,1,1-10.81,10.81,10.8,10.8,0,0,1,10.81-10.81m0-8a18.81,18.81,0,1,0,18.8,18.81,18.83,18.83,0,0,0-18.8-18.81Z" transform="translate(1.32 0.94)"/><path class="a" d="M335.59,73.14A14.81,14.81,0,1,1,350.4,58.33,14.83,14.83,0,0,1,335.59,73.14Z" transform="translate(1.32 0.94)"/><path d="M335.59,47.53a10.81,10.81,0,1,1-10.81,10.8,10.8,10.8,0,0,1,10.81-10.8m0-8a18.81,18.81,0,1,0,18.8,18.8,18.83,18.83,0,0,0-18.8-18.8Z" transform="translate(1.32 0.94)"/><path d="M207,122.09a103.1,103.1,0,0,0,23,3.63A202.25,202.25,0,0,0,205.31,144,85.06,85.06,0,0,0,207,122.09m-7.4-11.44a2.2,2.2,0,0,0-2.11,2.76c5.39,19-2.83,47.72-14.71,66.44a194.24,194.24,0,0,1,87-64.91,155.37,155.37,0,0,1-31,3c-14.57,0-29.09-2-38.19-7a2.13,2.13,0,0,0-1-.26Z" transform="translate(1.32 0.94)"/><path d="M336.14,78.54a106.48,106.48,0,0,0,17.71,16.9c-5.41-.43-10.89-.66-16.41-.66q-7.77,0-15.48.59a83.85,83.85,0,0,0,14.18-16.83m130.4,42.08c.48,8.13,2.7,17.15,5.8,26a203.12,203.12,0,0,0-27.87-21.06,79,79,0,0,0,22.07-5m57.68,99.64A74.86,74.86,0,0,0,546,231.83a99.71,99.71,0,0,0-11.27,22.33,199.86,199.86,0,0,0-10.5-33.9m8.86,125.23c2.67,8.36,6.21,16.14,10.76,22.35a96.42,96.42,0,0,0-22.63,11.53,202.1,202.1,0,0,0,11.87-33.88M467.42,450.7c-2.88,8.36-4.7,16.75-4.74,24.45A114.31,114.31,0,0,0,440.5,470a200.89,200.89,0,0,0,26.92-19.27M335.48,64.6h-.09a2.06,2.06,0,0,0-.81.2h0c-.05,0-.08.07-.13.09a1.8,1.8,0,0,0-.91,1s0,.06-.07.1c-6.48,17.62-28,35.06-47.75,43.78a194,194,0,0,1,51.73-7c107,0,193.76,86.75,193.76,193.76A193.82,193.82,0,0,1,406.42,477.65a107,107,0,0,1,14.87-1c17.3,0,36.1,3.57,47.37,9.82l.14,0a1.78,1.78,0,0,0,.51.16l.27.05.12,0a2,2,0,0,0,.58-.09,2,2,0,0,0,.75-.38,2.11,2.11,0,0,0,.55-.64h0s0-.07,0-.1a1.93,1.93,0,0,0,.16-1.45V484h0c-6-21.19,13.27-56.28,26.82-73.41,13.06-16.51,37.83-35,56.69-37.28a3.1,3.1,0,0,0,.4-.13,3,3,0,0,0,.32-.11,2.39,2.39,0,0,0,.68-.54l0,0h0a2,2,0,0,0,.37-.75,2.11,2.11,0,0,0,.07-.83h0s0,0,0-.05a2.08,2.08,0,0,0-.25-.75,2.18,2.18,0,0,0-.5-.59l0,0h0c-16.8-13.22-23-51.54-22.1-74.53.88-21.47,10.38-52.61,24.21-65.5h0a2,2,0,0,0,.48-.68,2,2,0,0,0,.18-.72s0-.05,0-.08h0a2.16,2.16,0,0,0-.13-.83,2.07,2.07,0,0,0-.44-.71h0l-.08-.06a1.8,1.8,0,0,0-1.23-.58l-.18-.05c-20.49-.78-45.06-24-59.23-45.29-11.67-17.53-26.48-50.61-22.86-69.27h0s0,0,0,0a2.21,2.21,0,0,0,0-.81,2.13,2.13,0,0,0-.27-.64.69.69,0,0,0-.05-.13h0a2.25,2.25,0,0,0-.6-.59,2.07,2.07,0,0,0-.77-.32h-.09l-.38,0a2.31,2.31,0,0,0-.37,0,2.34,2.34,0,0,0-.71.3l-.06,0h0c-9.43,6.3-23,9-37,9a108.72,108.72,0,0,1-36.5-6.18c-19.85-7.36-52.57-28.41-60.76-46,0,0-.05-.07-.07-.1a2.15,2.15,0,0,0-.42-.58,2.57,2.57,0,0,0-.57-.35l-.14-.08h0a2.1,2.1,0,0,0-.74-.13Z" transform="translate(1.32 0.94)"/><path d="M337.44,121.82A174.82,174.82,0,1,1,228.75,433.37l65.41-62.89a36.92,36.92,0,0,0,4.69.3,31.13,31.13,0,0,0,16.79-4.66c6.71-4.36,11.92-12.36,14.18-21.36a160.17,160.17,0,0,0,18.48-7.12c10.91-5,25.85-13.35,35.12-24.78a56.92,56.92,0,0,0,12.18-38.25c-.51-12.69-4.87-24.34-11.65-31.18-3-3-14.22-12.86-32.84-12.86-10.85,0-21.61,3.41-32,10.14-11.42,7.43-21,20.12-28.54,37.73a165.47,165.47,0,0,0-7.14,20.61,42.54,42.54,0,0,0-25,23.35,24.23,24.23,0,0,0-1.53,14.4l-62.53,60.12a174.76,174.76,0,0,1,143.07-275.1m0-9A183.73,183.73,0,0,0,193.27,410.45l73.78-70.92c-2-4.89-2.13-9.56-.39-13.48,5.37-12.15,16-18.52,23.82-19.38l.34-.07A155.93,155.93,0,0,1,298.88,282c6.8-15.93,15.26-27.27,25.16-33.71,8.88-5.76,18-8.69,27.07-8.69,12,0,21.56,5.28,26.46,10.21,9.94,10,14.55,38-1.15,57.42-8.15,10.06-21.83,17.66-31.87,22.26-8.25,3.77-17.52,7.05-22.62,8.08-.72,8.42-5.09,17.07-11.19,21a22.19,22.19,0,0,1-11.89,3.2,28.16,28.16,0,0,1-7.55-1l-76,73.06a183.72,183.72,0,1,0,122.13-321Z" transform="translate(1.32 0.94)"/><path d="M150,221.77a200.48,200.48,0,0,0-9.33,30,83.44,83.44,0,0,0-11.44-19.49A103.28,103.28,0,0,0,150,221.77M141.46,345a197.48,197.48,0,0,0,10.46,31.2A79.38,79.38,0,0,0,130.79,366a98.45,98.45,0,0,0,10.67-21m35.93-157.68c-14.07,17.23-41.63,37.48-59.82,39.7a1.06,1.06,0,0,0-.25.09,2.19,2.19,0,0,0-.55.17,2.72,2.72,0,0,0-.54.47.73.73,0,0,0-.09.08h0a2.24,2.24,0,0,0-.37.74,2.13,2.13,0,0,0-.07.83h0a2.49,2.49,0,0,0,.25.77.87.87,0,0,0,.09.11,2.33,2.33,0,0,0,.43.51l0,0c16.79,13.21,27,47.42,26.08,71.09-.9,21.9-10.42,53.52-24.26,66.44h0c-.08.08-.11.18-.18.26a1.79,1.79,0,0,0-.3.42,2.24,2.24,0,0,0-.19.76s0,0,0,.06V370a2.14,2.14,0,0,0,.57,1.46h0l0,0a2.18,2.18,0,0,0,.66.46,2,2,0,0,0,.4.1,1.83,1.83,0,0,0,.39.09c20.53.79,47.38,23.16,61.47,44.33.76,1.13,1.51,2.3,2.24,3.51l2.61-2.51a193.78,193.78,0,0,1-8.61-230.12Z" transform="translate(1.32 0.94)"/><path d="M208.33,451.6A200.79,200.79,0,0,0,232.71,469a81,81,0,0,0-23.45,4,88.36,88.36,0,0,0-2.94-19.44l2-1.93M318.4,497.41q9.45.9,19,.9c4,0,8.07-.12,12.09-.36a85,85,0,0,0-14.47,16.45,96.63,96.63,0,0,0-16.66-17M208,440.78l-10.71,10.3c3.4,11.25,5,22.41,3.26,31.12,0,0,0,.09,0,.12a2.18,2.18,0,0,0,0,.72,2.09,2.09,0,0,0,.24.6c0,.05,0,.12.07.17h0a2.08,2.08,0,0,0,.6.58,2,2,0,0,0,.77.32,1.48,1.48,0,0,0,.41,0,1.42,1.42,0,0,0,.22,0l.33-.05a2.37,2.37,0,0,0,.47-.2,1.34,1.34,0,0,0,.18-.07c7.79-5.22,19.79-7.45,32.8-7.45a133.48,133.48,0,0,1,44.12,7.7c19.53,7.24,44.58,25.15,52.71,42.59h0a2.18,2.18,0,0,0,.43.6l.16.13a2,2,0,0,0,.5.31l.11.07h.07a2.63,2.63,0,0,0,.67.12h0a2.22,2.22,0,0,0,.8-.18l.09,0a.87.87,0,0,0,.1-.08,2,2,0,0,0,.47-.34c.05,0,.11-.09.15-.14a2.23,2.23,0,0,0,.4-.64c6-16.3,26.76-33.16,46.36-42.4A194,194,0,0,1,208,440.78Z" transform="translate(1.32 0.94)"/><path d="M306.1,351.41c-3.48,2.25-9.88,2.85-16.87-.52L119.75,513.54a7.52,7.52,0,1,1-10.42-10.84L277.68,341.15c-2.93-4.09-4.56-8.61-3.22-11.64,4-9.1,10.06-11.11,15.37-11.6,0,0,1.14,3.45,9.13,10.84s12,3.69,12.44,5.63C313.12,341.77,310.66,348.45,306.1,351.41Zm13.11-22.07c3.85-.15,37.17-10.95,50.58-27.51s8.27-39.43,1.72-46c-5.52-5.56-22-13.9-42.82-.37S299.38,307.24,298.58,311s.62,9.17,5.05,12.82A25.74,25.74,0,0,0,319.21,329.34Z" transform="translate(1.32 0.94)"/></svg>