<svg xmlns="http://www.w3.org/2000/svg" viewBox="0 0 640 640"><defs><style>.a{fill:#d3ad75;}.b{fill:#5b462d;}.c{fill:#8a6d46;}</style></defs><title>drum_square_color</title><rect class="a" x="7.5" y="7.5" width="625" height="625" rx="92.5"/><path class="b" d="M538.68,14.56a85.31,85.31,0,0,1,85,85v440a85.31,85.31,0,0,1-85,85h-440a85.29,85.29,0,0,1-85-85v-440a85.29,85.29,0,0,1,85-85h440m0-15h-440c-55,0-100,45-100,100v440c0,55,45,100,100,100h440c55,0,100-45,100-100v-440c0-55-45-100-100-100Z" transform="translate(1.32 0.44)"/><path class="b" d="M586.65,240.28l-.25-.15-.22-.13c.05-.19.09-.38.13-.57v0a2.49,2.49,0,0,0-4.34-2.17,109.63,109.63,0,0,1-11.54-10c-5.08-4.86-9.94-10-14.75-15.21s-9.54-10.49-14.05-15.94-9.06-10.83-13.13-16.44a407.84,407.84,0,0,1-23-35.53,359.21,359.21,0,0,1-18.62-36.66,2.46,2.46,0,0,0-1.7-4.38h-.29c-6.49.37-13.54-.72-20.4-2s-13.8-3-20.67-4.66-13.72-3.56-20.48-5.65-13.51-4.11-20-6.58a409.31,409.31,0,0,1-38.71-17.13A365.42,365.42,0,0,1,330.9,47.81a3.48,3.48,0,0,0-6.93.29,100.61,100.61,0,0,1-14.27,9.46c-6.09,3.51-12.4,6.73-18.73,9.89s-12.74,6.21-19.24,9-12.94,5.66-19.47,8A408.09,408.09,0,0,1,211.71,96.6,358.27,358.27,0,0,1,170,104.36h0a2.37,2.37,0,0,0-.46.11,2.47,2.47,0,0,0-4.41,1l-.05.28c-1.16,6.4-3.86,13-6.73,19.38s-6.08,12.73-9.35,19-6.65,12.52-10.26,18.61-7.14,12.18-11,17.9a410.74,410.74,0,0,1-25.67,33.66,362.65,362.65,0,0,1-27.5,29.2c-.46-.65-.92-1.31-1.42-1.95a2.48,2.48,0,0,0-4.18,2.61l.13.26c2.82,5.86,4.51,12.79,5.93,19.63S77.47,278,78.52,285s2,14,2.64,21.08,1.38,14.05,1.58,21a407.18,407.18,0,0,1-1,42.32,362.07,362.07,0,0,1-5,39.42,45.2,45.2,0,0,0-5-1.78,2.48,2.48,0,0,0-1.85,4.57l.25.14c5.73,3.07,11.18,7.68,16.35,12.39s10.23,9.71,15.19,14.76,9.85,10.19,14.53,15.5,9.38,10.56,13.61,16.05c3.12,4,6.14,8.08,9.09,12.23l8.52-8q-4-5.82-8.28-11.46a251.8,251.8,0,0,0-30.31-31.82,208.55,208.55,0,0,0-17.12-13.8c-3.25-2.22-6.54-4.44-10.07-6.38,5.14-13.07,8.25-26.85,10.28-40.69a257.41,257.41,0,0,0,2.6-43.82,250.41,250.41,0,0,0-5.82-43.55A204.12,204.12,0,0,0,83,261.9a98.26,98.26,0,0,0-5.75-13.74c11.87-7.57,22.49-16.9,32.28-26.91a257.36,257.36,0,0,0,27.86-33.92,250.9,250.9,0,0,0,20.89-38.65,206.44,206.44,0,0,0,7.84-20.54c1.77-6,3.53-12.18,3.83-18.83l.1,0c14.64,1.09,29.35-.25,43.75-2.7a256.44,256.44,0,0,0,42.48-11.07,250.65,250.65,0,0,0,39.62-19,205.18,205.18,0,0,0,18.41-12c4.68-3.61,9.4-7.3,13.39-12.05a188.32,188.32,0,0,0,32,23.53,257,257,0,0,0,39.48,19.19,250.4,250.4,0,0,0,42.45,11.33,208.19,208.19,0,0,0,21.8,2.83c6.05.3,12.17.59,18.44-.51,3.1,13.94,8.37,27.3,14.58,40.08A257.82,257.82,0,0,0,519,186.63a251.49,251.49,0,0,0,29.34,32.71A209.82,209.82,0,0,0,565,233.64c4.54,3.3,9.14,6.63,14.45,9.1a190.09,190.09,0,0,0-10.73,36.92,258.06,258.06,0,0,0-4.62,43.65,250.83,250.83,0,0,0,3.79,43.78,208.35,208.35,0,0,0,4.75,21.46c1.91,6.23,3.86,12.55,7.5,18.44A187.16,187.16,0,0,0,548,431.36a257.19,257.19,0,0,0-29.56,32.45,251.46,251.46,0,0,0-22.85,37.53,208,208,0,0,0-8.88,20.12c-1.92,5.51-3.84,11.11-4.62,17.18a195.24,195.24,0,0,0-35.61,1.14,258.16,258.16,0,0,0-43,8.77,251,251,0,0,0-40.59,16.83,206.66,206.66,0,0,0-19,11c-6.07,4.19-12.22,8.45-17,14.86a2.46,2.46,0,0,0-.33.62c-10.43-10.24-22.46-18.69-35-26.11a257.84,257.84,0,0,0-39.55-19,250.89,250.89,0,0,0-42.51-11.14,207.89,207.89,0,0,0-21.81-2.74,21.93,21.93,0,0,0-10.38,2,177.36,177.36,0,0,0-10.17-26.15l-7,6.88c4,7,7.87,14.09,11.42,21.37-.37.11-.75.23-1.16.34a2.48,2.48,0,0,0-1.79,2.54c.08,1.36,2.91,2.3,2.91,2.3.89-.05,1.68-.13,2.42-.23l.33.69v0A2.49,2.49,0,0,0,178.9,541a20.58,20.58,0,0,1,7.69.17c6.92,1.26,13.81,2.88,20.69,4.57s13.74,3.5,20.51,5.56,13.52,4.05,20,6.49a403,403,0,0,1,38.78,17,356.37,356.37,0,0,1,36.88,21.08h0a2.49,2.49,0,0,0,3.15-.33,2.43,2.43,0,0,0,.56-.9,2.48,2.48,0,0,0,3.2,0l.22-.19c4.93-4.23,11.19-7.65,17.44-10.79s12.74-6,19.24-8.86,13.06-5.52,19.69-8,13.23-4.95,19.87-6.93A407.58,407.58,0,0,1,448,549.92c11.32-2.12,22.72-3.8,34.22-4.87a2.46,2.46,0,0,0,4.13-.35l3.77-.29h0a2.49,2.49,0,0,0,.16-5l-2.3-.27a107.54,107.54,0,0,1,6.37-14.37c3.19-6.26,6.72-12.4,10.31-18.51s7.29-12.15,11.2-18.05,7.76-11.8,12-17.32a408.15,408.15,0,0,1,27.36-32.29A356.49,356.49,0,0,1,586,409.35l0,0a2.5,2.5,0,0,0,.58-3.11,2.45,2.45,0,0,0-1.33-1.13c-2.17-5.63-3.41-12-4.43-18.37-1.13-6.94-1.92-14-2.64-21s-1.32-14.11-1.66-21.18-.73-14.1-.61-21a407.63,407.63,0,0,1,3-42.23A366.49,366.49,0,0,1,585,244.87a2.47,2.47,0,0,0,1.61-4.59Z" transform="translate(1.32 0.44)"/><path class="a" d="M167.62,123.86a16.64,16.64,0,1,1,16.63-16.64A16.65,16.65,0,0,1,167.62,123.86Z" transform="translate(1.32 0.44)"/><path class="b" d="M167.62,94.59A12.64,12.64,0,1,1,155,107.22a12.63,12.63,0,0,1,12.64-12.63m0-8a20.64,20.64,0,1,0,20.63,20.63,20.66,20.66,0,0,0-20.63-20.63Z" transform="translate(1.32 0.44)"/><path class="a" d="M488,123.86a16.64,16.64,0,1,1,16.64-16.64A16.65,16.65,0,0,1,488,123.86Z" transform="translate(1.32 0.44)"/><path class="b" d="M488,94.59a12.64,12.64,0,1,1-12.64,12.63A12.63,12.63,0,0,1,488,94.59m0-8a20.64,20.64,0,1,0,20.63,20.63A20.66,20.66,0,0,0,488,86.59Z" transform="translate(1.32 0.44)"/><circle class="a" cx="588.1" cy="244.21" r="16.64"/><path class="b" d="M586.77,231.13a12.64,12.64,0,1,1-12.63,12.64,12.64,12.64,0,0,1,12.63-12.64m0-8a20.64,20.64,0,1,0,20.64,20.64,20.66,20.66,0,0,0-20.64-20.64Z" transform="translate(1.32 0.44)"/><path class="a" d="M582.87,429.72a16.64,16.64,0,1,1,16.63-16.64A16.66,16.66,0,0,1,582.87,429.72Z" transform="translate(1.32 0.44)"/><path class="b" d="M582.87,400.44a12.64,12.64,0,1,1-12.64,12.64,12.63,12.63,0,0,1,12.64-12.64m0-8a20.64,20.64,0,1,0,20.63,20.64,20.66,20.66,0,0,0-20.63-20.64Z" transform="translate(1.32 0.44)"/><path class="a" d="M483.52,563.11a16.64,16.64,0,1,1,16.64-16.64A16.66,16.66,0,0,1,483.52,563.11Z" transform="translate(1.32 0.44)"/><path class="b" d="M483.52,533.84a12.64,12.64,0,1,1-12.64,12.63,12.64,12.64,0,0,1,12.64-12.63m0-8a20.64,20.64,0,1,0,20.64,20.63,20.66,20.66,0,0,0-20.64-20.63Z" transform="translate(1.32 0.44)"/><path class="a" d="M327.24,611.11a16.64,16.64,0,1,1,16.64-16.64A16.65,16.65,0,0,1,327.24,611.11Z" transform="translate(1.32 0.44)"/><path class="b" d="M327.24,581.84a12.64,12.64,0,1,1-12.63,12.63,12.64,12.64,0,0,1,12.63-12.63m0-8a20.64,20.64,0,1,0,20.64,20.63,20.65,20.65,0,0,0-20.64-20.63Z" transform="translate(1.32 0.44)"/><circle class="a" cx="172.85" cy="543.01" r="16.64"/><path class="b" d="M171.52,529.93a12.64,12.64,0,1,1-12.63,12.64,12.64,12.64,0,0,1,12.63-12.64m0-8a20.64,20.64,0,1,0,20.64,20.64,20.66,20.66,0,0,0-20.64-20.64Z" transform="translate(1.32 0.44)"/><path class="a" d="M73.29,429.72a16.64,16.64,0,1,1,16.64-16.64A16.67,16.67,0,0,1,73.29,429.72Z" transform="translate(1.32 0.44)"/><path class="b" d="M73.29,400.44a12.64,12.64,0,1,1-12.64,12.64,12.64,12.64,0,0,1,12.64-12.64m0-8a20.64,20.64,0,1,0,20.64,20.64,20.66,20.66,0,0,0-20.64-20.64Z" transform="translate(1.32 0.44)"/><path class="a" d="M70.78,264a16.64,16.64,0,1,1,16.63-16.64A16.65,16.65,0,0,1,70.78,264Z" transform="translate(1.32 0.44)"/><path class="b" d="M70.78,234.68a12.64,12.64,0,1,1-12.64,12.63,12.64,12.64,0,0,1,12.64-12.63m0-8a20.64,20.64,0,1,0,20.63,20.63,20.66,20.66,0,0,0-20.63-20.63Z" transform="translate(1.32 0.44)"/><path class="a" d="M328,63.66A16.64,16.64,0,1,1,344.6,47,16.65,16.65,0,0,1,328,63.66Z" transform="translate(1.32 0.44)"/><path class="b" d="M328,34.39A12.64,12.64,0,1,1,315.33,47,12.63,12.63,0,0,1,328,34.39m0-8A20.64,20.64,0,1,0,348.6,47,20.65,20.65,0,0,0,328,26.39Z" transform="translate(1.32 0.44)"/><path class="a" d="M165.53,164.09c5.89-17,8.75-35.56,5.52-50.61,13.67,6.29,33,7.28,43.7,7.28,3.26,0,6.57-.09,9.87-.26A230.34,230.34,0,0,0,165.53,164.09Z" transform="translate(1.32 0.44)"/><path class="b" d="M176,119.7c10.48,3.41,22.59,4.66,32.92,5A235,235,0,0,0,173.44,151C175.9,140.3,177,129.51,176,119.7m-7.14-11.5a2.54,2.54,0,0,0-1.6.58,2.5,2.5,0,0,0-.87,2.65c6.3,22.27-3.31,55.81-17.2,77.7A227.18,227.18,0,0,1,251,113.22a181.29,181.29,0,0,1-36.23,3.54c-17,0-34-2.34-44.66-8.25a2.47,2.47,0,0,0-1.2-.31Z" transform="translate(1.32 0.44)"/><path class="a" d="M482.62,542.75c-12.54-6.06-31.15-9.93-50.23-10.43a230.09,230.09,0,0,0,65.41-48.71C487.36,503,479.41,525.54,482.62,542.75Zm46.12-100.47a230.93,230.93,0,0,0,29.72-84.7c3.26,20.81,10.26,42.66,22.71,54.37C564.18,415.23,544.07,428,528.74,442.28Zm30.63-141.73A228.91,228.91,0,0,0,532,214.2c15.44,16.46,34.38,30.19,51.58,32.35C572.36,258.63,563.74,280.2,559.37,300.55ZM504.1,174.41a232.1,232.1,0,0,0-68.56-53.87c2.78.18,5.56.26,8.31.26,17,0,32-3.35,42.71-9.5C484.63,129.45,494,154.85,504.1,174.41ZM370.3,98.51a232.65,232.65,0,0,0-76.19-.7c14.32-10,27.6-23.25,33.88-37.4C335.62,73.8,352.93,87.83,370.3,98.51Z" transform="translate(1.32 0.44)"/><path class="b" d="M328.45,68.28c6.22,8.25,15.36,16.5,25.42,23.92A236,236,0,0,0,330.12,91c-7.35,0-14.69.34-22,1,8.15-7.11,15.31-15.16,20.31-23.75m153.91,49.6c.34,11.41,3.86,24.58,8.7,37.19A236.1,236.1,0,0,0,451,124.61c9.72-.53,21.07-2.28,31.35-6.73m63,114.33c10,8,20.54,14.14,30.9,16.95-6.38,8.64-11.73,20-15.74,31.93a233.38,233.38,0,0,0-15.16-48.88m13.45,145.51c3.41,12.12,8.28,23.5,15,32-10.64,3.26-21.77,9.36-32,16.74a235.33,235.33,0,0,0,17.07-48.71m-73.6,123.74c-4.62,11.95-7.55,24.13-7.22,35a132.88,132.88,0,0,0-31.43-7.14,233.93,233.93,0,0,0,38.65-27.83M327.83,54.35h-.1a2.33,2.33,0,0,0-1,.23h0c-.06,0-.1.08-.15.11a2.41,2.41,0,0,0-.63.47,2.48,2.48,0,0,0-.44.71,1.25,1.25,0,0,0-.08.12c-7.57,20.6-32.71,41-55.84,51.19A226.87,226.87,0,0,1,330.12,99c125.15,0,226.6,101.45,226.6,226.6,0,96.73-60.61,179.29-145.92,211.8a125.29,125.29,0,0,1,17.39-1.15c20.23,0,42.22,4.18,55.4,11.49.05,0,.11,0,.16,0a2.54,2.54,0,0,0,.59.19l.32,0,.14,0a2.72,2.72,0,0,0,.69-.09,2.49,2.49,0,0,0,.87-.45,2.56,2.56,0,0,0,.64-.75h0s0-.08,0-.12a2.84,2.84,0,0,0,.26-.81,2.6,2.6,0,0,0-.07-.88s0-.06,0-.09h0c-7-24.78,15.52-65.81,31.36-85.85,15.27-19.31,44.24-40.9,66.29-43.6a1.86,1.86,0,0,0,.47-.16,2.4,2.4,0,0,0,.38-.12,2.45,2.45,0,0,0,.79-.63l0,0h0a2.6,2.6,0,0,0,.44-.88,2.49,2.49,0,0,0,.07-1h0s0,0,0-.05a2.24,2.24,0,0,0-.29-.87,2.61,2.61,0,0,0-.58-.7l0-.05h0c-19.64-15.47-26.93-60.29-25.84-87.17,1-25.11,12.14-61.53,28.32-76.6v0a2.54,2.54,0,0,0,.56-.78,2.51,2.51,0,0,0,.2-.86.24.24,0,0,0,0-.08h0a2.52,2.52,0,0,0-.15-1,2.48,2.48,0,0,0-.52-.83h0s-.07,0-.09-.07a2.64,2.64,0,0,0-.7-.5,2.3,2.3,0,0,0-.73-.18,1.74,1.74,0,0,0-.22-.05c-24-.92-52.7-28.1-69.27-53-13.65-20.5-31-59.19-26.73-81h0a0,0,0,0,0,0,0,2.53,2.53,0,0,0,0-1,3,3,0,0,0-.31-.76s0-.1-.06-.14h0a2.56,2.56,0,0,0-.7-.69,2.45,2.45,0,0,0-.9-.37h-.11a2.39,2.39,0,0,0-.87,0,2.45,2.45,0,0,0-.83.35s-.05,0-.07,0h0c-11,7.38-26.92,10.54-43.25,10.54-15,0-30.41-2.68-42.69-7.23-23.22-8.6-61.48-33.22-71.05-53.77a.54.54,0,0,0-.09-.12,2.46,2.46,0,0,0-.49-.67,2.57,2.57,0,0,0-.67-.41,1.4,1.4,0,0,0-.16-.1h0a2.47,2.47,0,0,0-.86-.15Z" transform="translate(1.32 0.44)"/><path class="a" d="M330.12,536.47A210.27,210.27,0,0,1,193.21,486l84.14-80.89a37.41,37.41,0,0,0,7.64.8,29.87,29.87,0,0,0,16.08-4.39c7.26-4.71,12.89-14.39,14.55-24.7a167.94,167.94,0,0,0,24.49-9.07c12.12-5.55,28.68-14.77,38.71-27.15,8.87-11,13.42-25.29,12.8-40.37-.52-13.05-5-25.36-11.72-32.12-6.31-6.34-18.49-13.12-33.79-13.12-11.41,0-22.79,3.64-33.83,10.81-12.25,8-22.66,21.82-30.93,41.2a190.31,190.31,0,0,0-9,26.86c-10.07,2.06-22.24,10.16-28.65,24.65-2.16,4.86-2.33,10.45-.52,16.29L162,452.87A210.88,210.88,0,0,1,330.12,114.75a210.86,210.86,0,0,1,0,421.72Z" transform="translate(1.32 0.44)"/><path class="b" d="M330.12,118.75A206.86,206.86,0,1,1,256.37,519a204.68,204.68,0,0,1-57.17-33.21l79.45-76.39a41,41,0,0,0,6.34.5,33.91,33.91,0,0,0,18.27-5c7.67-5,13.55-14.37,15.83-24.86a180.35,180.35,0,0,0,22.69-8.62c12.51-5.73,29.63-15.29,40.15-28.28,21.4-26.43,14.77-63.74.8-77.83-6.87-6.9-20.09-14.29-36.62-14.29-12.2,0-24.31,3.86-36,11.45-12.93,8.41-23.84,22.87-32.43,43a191.39,191.39,0,0,0-8.6,25.12c-10.59,3-22.56,11.69-29,26.33a26.14,26.14,0,0,0-1.34,16.66l-76.24,73.3a204.64,204.64,0,0,1-27.75-53.06,207,207,0,0,1,195.42-275m0-8a214.88,214.88,0,0,0-168.6,348.08l86.29-82.95c-2.32-5.72-2.49-11.18-.46-15.76,6.28-14.21,18.76-21.66,27.85-22.67l.4-.09a184.38,184.38,0,0,1,9.43-28.8c8-18.62,17.85-31.89,29.43-39.42,10.38-6.74,21-10.16,31.65-10.16,14.08,0,25.21,6.17,30.95,11.93,11.62,11.72,17,44.48-1.34,67.16-9.54,11.77-25.53,20.65-37.27,26-9.66,4.42-20.49,8.25-26.46,9.46-.85,9.85-5.95,20-13.09,24.6A26,26,0,0,1,285,401.9a33.31,33.31,0,0,1-8.83-1.21L187.3,486.13A214.86,214.86,0,1,0,330.12,110.75Z" transform="translate(1.32 0.44)"/><path class="a" d="M128.61,437.93c-15.43-14.38-33.81-25.75-49.73-27.69,10.37-11.22,18.54-30.78,23.18-50A226.18,226.18,0,0,0,128.61,437.93Zm-27-143.32C96.62,276,88,258.05,76.7,247.73c14.26-2.89,32.14-13.4,47.41-25.84A228.77,228.77,0,0,0,101.58,294.61Z" transform="translate(1.32 0.44)"/><path class="b" d="M113.81,234.63a231.91,231.91,0,0,0-13.42,43.17c-4.17-10.62-9.57-20.39-16.08-28,9.43-3.06,19.67-8.53,29.5-15.22M101.22,377.56a229.66,229.66,0,0,0,15.11,45c-9.8-7-20.13-12.43-30.1-15,6-8.16,11.06-18.72,15-30M143,197.86C126.49,218,94.26,241.7,73,244.29a1.45,1.45,0,0,0-.29.11,2.43,2.43,0,0,0-.63.2,2.78,2.78,0,0,0-.64.54.9.9,0,0,0-.1.09l0,0a2.48,2.48,0,0,0-.43.86,2.51,2.51,0,0,0-.08,1h0a2.66,2.66,0,0,0,.29.89.45.45,0,0,0,.11.13,2.62,2.62,0,0,0,.5.6l0,.05c19.63,15.45,31.62,55.46,30.49,83.13-1,25.63-12.18,62.6-28.37,77.72h0a3.06,3.06,0,0,0-.21.29,2.09,2.09,0,0,0-.35.49,2.84,2.84,0,0,0-.23.9s0,0,0,.07v.09a2.53,2.53,0,0,0,.67,1.7v0l.05,0a2.61,2.61,0,0,0,.77.54,3,3,0,0,0,.47.12,2.62,2.62,0,0,0,.45.1c24,.93,55.41,27.09,71.9,51.85.88,1.32,1.76,2.68,2.62,4.11L153,467A226.62,226.62,0,0,1,143,197.86Z" transform="translate(1.32 0.44)"/><path class="a" d="M327.69,590.79c-7.92-14.37-24.52-28.68-41.53-38.78A231.51,231.51,0,0,0,362,554C347.27,564.12,333.85,577.16,327.69,590.79Zm-153.18-50.5c1.33-11.06-1.07-23.39-3.72-32.75l8.12-7.81a230.66,230.66,0,0,0,51.88,34,154.22,154.22,0,0,0-18.48-1.16C201.13,532.6,185.9,534,174.51,540.29Z" transform="translate(1.32 0.44)"/><path class="b" d="M179.07,505.13a234.73,234.73,0,0,0,33.37,23.47h-.13c-9.73,0-22.43,1-33.43,5.27a99.58,99.58,0,0,0-3.61-25.09l3.8-3.65m124.28,53.56a235.86,235.86,0,0,0,26.77,1.53q9,0,18.06-.7c-8.35,7.06-15.7,15-20.76,23.29-6.07-8.67-14.62-16.93-24.07-24.12M178.8,494.29l-12.53,12c4,13.16,5.8,26.21,3.81,36.4,0,0,0,.09,0,.13a3,3,0,0,0,0,.85,2.53,2.53,0,0,0,.29.7,1.67,1.67,0,0,0,.08.2h0a2.48,2.48,0,0,0,.69.68,2.35,2.35,0,0,0,.91.38,2.7,2.7,0,0,0,.48,0,2.38,2.38,0,0,0,.26,0c.13,0,.25,0,.38-.06a2.17,2.17,0,0,0,.54-.24,1,1,0,0,0,.22-.08c9.12-6.1,23.14-8.71,38.36-8.71a155.88,155.88,0,0,1,51.59,9c22.84,8.46,52.14,29.4,61.65,49.8h0a2.57,2.57,0,0,0,.51.7c.06.06.13.1.19.15a2.2,2.2,0,0,0,.58.37c.05,0,.08.06.13.08H327a3,3,0,0,0,.78.14h0a2.52,2.52,0,0,0,.94-.21l.11,0a.52.52,0,0,0,.11-.1,2.24,2.24,0,0,0,.56-.39,1.36,1.36,0,0,0,.17-.17,2.41,2.41,0,0,0,.46-.75c7-19.06,31.31-38.77,54.23-49.58A226.86,226.86,0,0,1,178.8,494.29Z" transform="translate(1.32 0.44)"/><circle class="c" cx="330.29" cy="325.61" r="207.36" transform="translate(-132.18 329.36) rotate(-45)"/><path class="b" d="M330.29,125.75a199.17,199.17,0,1,1-77.79,15.7,198.54,198.54,0,0,1,77.79-15.7m0-15c-118.66,0-214.86,96.19-214.86,214.86s96.2,214.86,214.86,214.86,214.86-96.19,214.86-214.86S449,110.75,330.29,110.75Z" transform="translate(1.32 0.44)"/><path class="b" d="M69.45,587.84a14.9,14.9,0,0,1-10.67-4.54,14.8,14.8,0,0,1,.42-20.92L252.59,376.8c-2.9-5.6-3.48-10.83-1.61-15.07,4.66-10.5,12.15-16.1,22.91-17.11.25,0,.5,0,.75,0a5.93,5.93,0,0,1,3.82,1.26,17.8,17.8,0,0,1,.35-4.58c1.83-8.57,12.26-52.16,37.82-68.78,9.72-6.32,19.64-9.52,29.5-9.52,12.85,0,22.94,5.56,28.1,10.76,10.62,10.71,15.39,40.84-1.61,61.85S314.82,369.74,309,370l-.79,0c-.77,0-1.58-.05-2.44-.13,1.9,10.25-1.65,20.16-9.07,25a21.34,21.34,0,0,1-11.66,3.13,31.08,31.08,0,0,1-10-1.74L79.69,583.71A14.69,14.69,0,0,1,69.45,587.84Z" transform="translate(1.32 0.44)"/><path class="a" d="M346.13,269c11.45,0,20,5.08,23.84,9,7.66,7.73,13.66,34.48-2,53.85s-54.65,32-59.14,32.17l-.57,0a30.4,30.4,0,0,1-17.65-6.47c-5.19-4.27-6.86-10.6-5.92-15s10.89-49.18,35.23-65c9.71-6.31,18.62-8.55,26.23-8.55m-71.68,81.63s1.33,4,10.67,12.69,14,4.31,14.55,6.58c2,8.64-.86,16.45-6.2,19.91a15.54,15.54,0,0,1-8.4,2.17,26.32,26.32,0,0,1-11.32-2.77L75.54,579.38a8.79,8.79,0,0,1-12.19-12.67L260.23,377.78c-3.42-4.79-5.33-10.07-3.76-13.62,4.71-10.64,11.77-13,18-13.57M346.13,257c-11,0-22.06,3.53-32.77,10.49-26.35,17.13-37.53,59.72-40.12,71.2-12.89,1.24-22.22,8.19-27.74,20.65-2.13,4.8-2.12,10.3-.07,16.05L55,558.05a20.8,20.8,0,0,0-.58,29.41,20.9,20.9,0,0,0,15,6.38A20.66,20.66,0,0,0,83.86,588L276.75,402.92a35.73,35.73,0,0,0,8.32,1A27.37,27.37,0,0,0,300,399.85c7.74-5,12.22-14.2,12.31-24.29,6.73-1.31,18.16-5.59,26.87-9.57,12-5.46,28.29-14.52,38.11-26.65a57.86,57.86,0,0,0,12.42-39.43c-.61-12.41-4.91-24.06-11.21-30.42-6-6.06-17.67-12.53-32.36-12.53Z" transform="translate(1.32 0.44)"/></svg>