<svg xmlns="http://www.w3.org/2000/svg" viewBox="0 0 640 640"><defs><style>.a{fill:#d3ad75;}.b{fill:#5b462d;}.c{fill:#8a6d46;}</style></defs><title>drum_round_color</title><path class="a" d="M318.68,631.56a312.5,312.5,0,0,1-221-533.47A312.5,312.5,0,1,1,539.65,540,310.48,310.48,0,0,1,318.68,631.56Z" transform="translate(1.32 0.94)"/><path class="b" d="M318.68,14.06a305.09,305.09,0,0,1,118.71,586A305.08,305.08,0,0,1,200,38a303.06,303.06,0,0,1,118.72-24m0-15c-176.73,0-320,143.27-320,320s143.27,320,320,320,320-143.27,320-320-143.27-320-320-320Z" transform="translate(1.32 0.94)"/><path class="b" d="M554.22,226l-.21-.13-.18-.11c0-.16.07-.32.11-.48v0a2.1,2.1,0,0,0-3.66-1.83,92.07,92.07,0,0,1-9.73-8.42c-4.29-4.1-8.39-8.44-12.44-12.83s-8-8.84-11.86-13.44-7.64-9.13-11.07-13.87a343.17,343.17,0,0,1-19.41-30A305.12,305.12,0,0,1,470.06,114a2.08,2.08,0,0,0-1.43-3.7h-.25c-5.47.31-11.42-.61-17.21-1.72s-11.64-2.48-17.43-3.93-11.57-3-17.28-4.76-11.39-3.47-16.86-5.55A342.79,342.79,0,0,1,367,79.89,308.16,308.16,0,0,1,338.5,63.65a2.08,2.08,0,0,0-3.29-2,2.09,2.09,0,0,0-2.55,2.24,83.74,83.74,0,0,1-12,8c-5.13,3-10.46,5.68-15.8,8.35s-10.75,5.24-16.22,7.61-10.92,4.77-16.42,6.74A343.68,343.68,0,0,1,238,104.8a300.61,300.61,0,0,1-35.23,6.55h0a1.8,1.8,0,0,0-.39.08,2.08,2.08,0,0,0-3.72.89l0,.24c-1,5.4-3.25,11-5.68,16.34s-5.12,10.74-7.88,16-5.61,10.55-8.65,15.69-6,10.28-9.32,15.1a343.73,343.73,0,0,1-21.66,28.39,306.39,306.39,0,0,1-23.2,24.63c-.38-.55-.77-1.1-1.19-1.64a2.09,2.09,0,0,0-3.53,2.2l.11.22c2.38,4.94,3.81,10.79,5,16.56s2.17,11.7,3,17.61,1.66,11.84,2.22,17.78,1.17,11.85,1.34,17.7a343.31,343.31,0,0,1-.83,35.69,308.33,308.33,0,0,1-4.23,33.25,37.39,37.39,0,0,0-4.21-1.5,2.09,2.09,0,0,0-1.56,3.85l.21.12c4.83,2.59,9.42,6.48,13.79,10.45s8.63,8.19,12.81,12.45,8.31,8.6,12.26,13.08,7.91,8.9,11.48,13.53c2.63,3.37,5.18,6.82,7.66,10.32l7.19-6.75c-2.24-3.28-4.56-6.51-7-9.67a211.79,211.79,0,0,0-25.56-26.84,173.23,173.23,0,0,0-14.44-11.64c-2.74-1.87-5.52-3.75-8.49-5.38A155.93,155.93,0,0,0,137,335.83a217.21,217.21,0,0,0,2.19-37,211.68,211.68,0,0,0-4.9-36.74,177.39,177.39,0,0,0-4.84-17.9,84.17,84.17,0,0,0-4.85-11.59A155.44,155.44,0,0,0,151.78,210a217.58,217.58,0,0,0,23.49-28.61,211.73,211.73,0,0,0,17.63-32.61,176.08,176.08,0,0,0,6.61-17.32c1.49-5.1,3-10.27,3.23-15.88h.08c12.35.92,24.76-.21,36.91-2.27a216.93,216.93,0,0,0,35.82-9.34,211,211,0,0,0,33.43-16,176.51,176.51,0,0,0,15.53-10.13A70.91,70.91,0,0,0,335.8,67.62a158.24,158.24,0,0,0,27,19.84,216.85,216.85,0,0,0,33.29,16.19,211.74,211.74,0,0,0,35.82,9.55,175.58,175.58,0,0,0,18.38,2.4c5.1.25,10.27.49,15.56-.43A154.34,154.34,0,0,0,478.13,149a217.34,217.34,0,0,0,19,31.77,211.42,211.42,0,0,0,24.74,27.59A176.87,176.87,0,0,0,536,220.4a73.83,73.83,0,0,0,12.19,7.67,160.41,160.41,0,0,0-9,31.14A217,217,0,0,0,535.2,296,211.69,211.69,0,0,0,538.4,333a172.83,172.83,0,0,0,4,18.11c1.61,5.26,3.26,10.58,6.33,15.55a157.39,157.39,0,0,0-27.12,20.56,217.39,217.39,0,0,0-24.94,27.37A211.59,211.59,0,0,0,477.4,446.2a173.77,173.77,0,0,0-7.49,17,71.65,71.65,0,0,0-3.9,14.5,163.74,163.74,0,0,0-30,1A217.16,217.16,0,0,0,399.7,486a212,212,0,0,0-34.24,14.2,173.83,173.83,0,0,0-16,9.28C344.29,513,339.1,516.62,335,522a2.18,2.18,0,0,0-.28.52c-8.8-8.64-18.95-15.76-29.5-22a217,217,0,0,0-33.37-16,211.55,211.55,0,0,0-35.85-9.4,175.81,175.81,0,0,0-18.4-2.31,18.34,18.34,0,0,0-8.75,1.67,149.46,149.46,0,0,0-8.58-22.06l-5.9,5.8c3.41,5.89,6.64,11.89,9.64,18-.32.1-.64.2-1,.29a2.1,2.1,0,0,0-1.51,2.14c.07,1.15,2.45,1.95,2.45,1.95.75-.05,1.42-.12,2-.2.09.19.19.38.28.58v0a2.1,2.1,0,0,0,4-1.33,17.24,17.24,0,0,1,6.48.14c5.84,1.06,11.65,2.43,17.45,3.85s11.59,2.95,17.3,4.69,11.41,3.42,16.88,5.48a342.83,342.83,0,0,1,32.71,14.31,301.36,301.36,0,0,1,31.11,17.78h0a9.68,9.68,0,0,1,5.82-1l.19-.16c4.16-3.58,9.44-6.46,14.71-9.1s10.75-5.11,16.23-7.48,11-4.66,16.61-6.73,11.15-4.17,16.76-5.84a344.49,344.49,0,0,1,34.7-8.38c9.56-1.79,19.17-3.21,28.87-4.11a2.07,2.07,0,0,0,3.48-.3l3.18-.24h0a2.1,2.1,0,0,0,.13-4.18l-1.94-.23A91.15,91.15,0,0,1,476.39,466c2.69-5.28,5.67-10.46,8.69-15.61s6.15-10.25,9.45-15.23,6.54-9.95,10.08-14.6a344.45,344.45,0,0,1,23.09-27.24,300.14,300.14,0,0,1,25.95-24.71h0A2.09,2.09,0,0,0,553,365a77.86,77.86,0,0,1-3.74-15.5c-1-5.85-1.62-11.79-2.23-17.73s-1.11-11.9-1.4-17.87-.62-11.89-.51-17.74a343.59,343.59,0,0,1,2.48-35.61,310.64,310.64,0,0,1,5.22-30.69,2.09,2.09,0,0,0,1.36-3.87Z" transform="translate(1.32 0.94)"/><path class="a" d="M198.61,126a14.76,14.76,0,1,1,14.76-14.76A14.78,14.78,0,0,1,198.61,126Z" transform="translate(1.32 0.94)"/><path class="b" d="M198.61,100.45a10.76,10.76,0,1,1-10.76,10.76,10.76,10.76,0,0,1,10.76-10.76m0-8a18.76,18.76,0,1,0,18.76,18.76,18.78,18.78,0,0,0-18.76-18.76Z" transform="translate(1.32 0.94)"/><path class="a" d="M471.44,126a14.76,14.76,0,1,1,14.76-14.76A14.78,14.78,0,0,1,471.44,126Z" transform="translate(1.32 0.94)"/><path class="b" d="M471.44,100.45a10.76,10.76,0,1,1-10.76,10.76,10.76,10.76,0,0,1,10.76-10.76m0-8a18.76,18.76,0,1,0,18.76,18.76,18.78,18.78,0,0,0-18.76-18.76Z" transform="translate(1.32 0.94)"/><path class="a" d="M555.57,242.25a14.76,14.76,0,1,1,14.76-14.76A14.78,14.78,0,0,1,555.57,242.25Z" transform="translate(1.32 0.94)"/><path class="b" d="M555.57,216.73a10.76,10.76,0,1,1-10.76,10.76,10.76,10.76,0,0,1,10.76-10.76m0-8a18.76,18.76,0,1,0,18.76,18.76,18.78,18.78,0,0,0-18.76-18.76Z" transform="translate(1.32 0.94)"/><path class="a" d="M552.24,386.44A14.76,14.76,0,1,1,567,371.68,14.78,14.78,0,0,1,552.24,386.44Z" transform="translate(1.32 0.94)"/><path class="b" d="M552.24,360.92a10.76,10.76,0,1,1-10.76,10.76,10.77,10.77,0,0,1,10.76-10.76m0-8A18.76,18.76,0,1,0,571,371.68a18.78,18.78,0,0,0-18.77-18.76Z" transform="translate(1.32 0.94)"/><path class="a" d="M467.64,500a14.76,14.76,0,1,1,14.76-14.76A14.78,14.78,0,0,1,467.64,500Z" transform="translate(1.32 0.94)"/><path class="b" d="M467.64,474.52a10.76,10.76,0,1,1-10.76,10.76,10.76,10.76,0,0,1,10.76-10.76m0-8a18.76,18.76,0,1,0,18.76,18.76,18.77,18.77,0,0,0-18.76-18.76Z" transform="translate(1.32 0.94)"/><path class="a" d="M334.55,540.92a14.77,14.77,0,1,1,14.76-14.76A14.78,14.78,0,0,1,334.55,540.92Z" transform="translate(1.32 0.94)"/><path class="b" d="M334.55,515.4a10.76,10.76,0,1,1-10.76,10.76,10.76,10.76,0,0,1,10.76-10.76m0-8a18.76,18.76,0,1,0,18.76,18.76,18.78,18.78,0,0,0-18.76-18.76Z" transform="translate(1.32 0.94)"/><circle class="a" cx="203.26" cy="482.89" r="14.76"/><path class="b" d="M201.94,471.19A10.76,10.76,0,1,1,191.18,482a10.76,10.76,0,0,1,10.76-10.76m0-8A18.76,18.76,0,1,0,220.7,482a18.78,18.78,0,0,0-18.76-18.76Z" transform="translate(1.32 0.94)"/><path class="a" d="M118.28,386.44A14.76,14.76,0,1,1,133,371.68,14.78,14.78,0,0,1,118.28,386.44Z" transform="translate(1.32 0.94)"/><path class="b" d="M118.28,360.92a10.76,10.76,0,1,1-10.76,10.76,10.76,10.76,0,0,1,10.76-10.76m0-8A18.76,18.76,0,1,0,137,371.68a18.78,18.78,0,0,0-18.76-18.76Z" transform="translate(1.32 0.94)"/><path class="a" d="M116.14,245.27a14.76,14.76,0,1,1,14.76-14.76A14.78,14.78,0,0,1,116.14,245.27Z" transform="translate(1.32 0.94)"/><path class="b" d="M116.14,219.75a10.76,10.76,0,1,1-10.76,10.76,10.76,10.76,0,0,1,10.76-10.76m0-8a18.76,18.76,0,1,0,18.76,18.76,18.79,18.79,0,0,0-18.76-18.76Z" transform="translate(1.32 0.94)"/><path class="a" d="M335.16,74.7a14.76,14.76,0,1,1,14.76-14.76A14.78,14.78,0,0,1,335.16,74.7Z" transform="translate(1.32 0.94)"/><path class="b" d="M335.16,49.18A10.76,10.76,0,1,1,324.4,59.94a10.76,10.76,0,0,1,10.76-10.76m0-8a18.76,18.76,0,1,0,18.76,18.76,18.79,18.79,0,0,0-18.76-18.76Z" transform="translate(1.32 0.94)"/><path class="a" d="M198.2,157.42c4.36-13.45,6.41-27.88,4.14-39.88,11.67,5,27.49,5.79,36.41,5.79,1.91,0,3.84,0,5.77-.1A196.66,196.66,0,0,0,198.2,157.42Z" transform="translate(1.32 0.94)"/><path class="b" d="M207.1,123.48a102.71,102.71,0,0,0,22.8,3.61,199.93,199.93,0,0,0-24.44,18.13,84.76,84.76,0,0,0,1.64-21.74M199.7,112a2.21,2.21,0,0,0-1.37.49,2.14,2.14,0,0,0-.74,2.26c5.37,19-2.82,47.53-14.64,66.18a193.4,193.4,0,0,1,86.66-64.65,155,155,0,0,1-30.86,3c-14.5,0-29-2-38-7a2.13,2.13,0,0,0-1-.27Z" transform="translate(1.32 0.94)"/><path class="a" d="M466.1,481.09c-10.23-4.68-24.69-7.73-39.67-8.38a196.44,196.44,0,0,0,50.92-37.55C469.61,450.44,464,467.54,466.1,481.09Zm42.43-87.49a197.22,197.22,0,0,0,23-65.46c2.94,16.24,8.61,32.69,18.09,42.22C536.26,373.28,520.91,382.74,508.53,393.6ZM532.4,272.16a195.69,195.69,0,0,0-20.78-66.06c12.29,12.37,26.58,22.12,40,24.2C542.91,240.15,536.19,256.25,532.4,272.16ZM482.64,164.7a198,198,0,0,0-53.2-41.42q2.22.09,4.41.09c14.07,0,26.56-2.69,35.69-7.63C468.47,130,475,149,482.64,164.7Zm-114.25-62a198.43,198.43,0,0,0-59.71-.47c11.15-8.16,21.32-18.52,26.58-29.62C341.67,83.15,354.81,94.05,368.39,102.71Z" transform="translate(1.32 0.94)"/><path class="b" d="M335.71,80.12a105.62,105.62,0,0,0,17.54,16.74q-8-.64-16.25-.65-7.68,0-15.32.58a83.11,83.11,0,0,0,14-16.67M465.55,122c.49,8,2.68,17,5.74,25.76a201.82,201.82,0,0,0-27.59-20.84A78.45,78.45,0,0,0,465.55,122m57.56,99.29a74.27,74.27,0,0,0,21.55,11.44,99.9,99.9,0,0,0-11.17,22.11,199,199,0,0,0-10.38-33.55m8.75,124.74c2.66,8.27,6.16,16,10.66,22.12a96.68,96.68,0,0,0-22.41,11.42,201,201,0,0,0,11.75-33.54M466.4,450.82c-2.85,8.28-4.64,16.58-4.69,24.21a114,114,0,0,0-22-5.13,200.61,200.61,0,0,0,26.65-19.08M335.05,66.18H335a2.1,2.1,0,0,0-.81.2h0s-.08.07-.13.09a2,2,0,0,0-.54.4,2.21,2.21,0,0,0-.37.6l-.07.11c-6.45,17.54-27.85,34.91-47.55,43.6a192.8,192.8,0,0,1,51.51-7c106.58,0,193,86.4,193,193A193,193,0,0,1,405.71,477.56a106,106,0,0,1,14.81-1c17.22,0,36,3.56,47.17,9.78a.88.88,0,0,0,.15.05,2.66,2.66,0,0,0,.5.16,1.26,1.26,0,0,0,.27,0l.12,0a1.93,1.93,0,0,0,.58-.08,2.31,2.31,0,0,0,.75-.38,2.22,2.22,0,0,0,.54-.64h0a.38.38,0,0,0,0-.1,2.14,2.14,0,0,0,.22-.69,2.35,2.35,0,0,0-.05-.75s0-.05,0-.08h0c-6-21.1,13.21-56,26.71-73.11,13-16.44,37.67-34.83,56.45-37.13a1.34,1.34,0,0,0,.4-.13,1.21,1.21,0,0,0,.32-.11,2.09,2.09,0,0,0,.68-.54l0,0h0a2.24,2.24,0,0,0,.37-.74,2.18,2.18,0,0,0,.07-.84h0s0,0,0,0a2.24,2.24,0,0,0-.25-.74,2.18,2.18,0,0,0-.5-.59l0,0h0c-16.73-13.17-22.94-51.33-22-74.23.87-21.38,10.34-52.4,24.11-65.23v0a2.09,2.09,0,0,0,.66-1.39s0,0,0-.08h0a2.11,2.11,0,0,0-.57-1.53h0s-.06,0-.08-.06a2.19,2.19,0,0,0-.59-.42,2.32,2.32,0,0,0-.63-.15l-.18,0c-20.41-.78-44.88-23.93-59-45.1-11.63-17.47-26.38-50.41-22.77-69h0s0,0,0,0a2.45,2.45,0,0,0,0-.81,2.39,2.39,0,0,0-.26-.64s0-.09-.06-.13h0a2.21,2.21,0,0,0-.59-.59,2.47,2.47,0,0,0-.77-.32h-.09l-.38,0a1.55,1.55,0,0,0-.37,0,2.09,2.09,0,0,0-.71.29s0,0-.05,0h0c-9.39,6.28-22.93,9-36.84,9a108.17,108.17,0,0,1-36.35-6.16c-19.77-7.33-52.35-28.29-60.51-45.8l-.07-.09a2.15,2.15,0,0,0-.42-.58,2.57,2.57,0,0,0-.57-.35l-.14-.08h0a2.06,2.06,0,0,0-.74-.13Z" transform="translate(1.32 0.94)"/><path class="a" d="M337,476.17a178.46,178.46,0,0,1-115.71-42.43l71-68.22a31.52,31.52,0,0,0,6.32.64,26.07,26.07,0,0,0,14-3.83c6.22-4.05,11.07-12.27,12.58-21.06a145.61,145.61,0,0,0,20.59-7.66c10.38-4.76,24.56-12.66,33.18-23.29,17.25-21.32,12-51.27.87-62.53-5.45-5.48-16-11.34-29.19-11.34-9.83,0-19.64,3.13-29.14,9.29C311,252.59,302,264.49,294.92,281.1a161.7,161.7,0,0,0-7.61,22.61c-8.66,1.9-19,8.89-24.46,21.25a19.94,19.94,0,0,0-.57,13.93l-68.42,65.78a179,179,0,0,1,269.69-234A179,179,0,0,1,337,476.17Z" transform="translate(1.32 0.94)"/><path class="b" d="M337,122.21a175,175,0,1,1-62.38,338.56,173,173,0,0,1-47.33-27.25l66.28-63.71a36.54,36.54,0,0,0,5,.35,30.06,30.06,0,0,0,16.2-4.48c6.62-4.3,11.72-12.28,13.84-21.23a155.7,155.7,0,0,0,18.81-7.21c10.77-4.93,25.52-13.17,34.63-24.41,18.63-23,12.8-55.56.6-67.86-6-6.05-17.59-12.52-32-12.52-10.62,0-21.16,3.34-31.32,9.94-11.21,7.29-20.65,19.78-28.06,37.15a163.37,163.37,0,0,0-7.2,20.91c-9.15,2.82-19.31,10.37-24.84,22.89a23.24,23.24,0,0,0-1.36,14.27l-63.46,61A175,175,0,0,1,337,122.21m0-8A183,183,0,0,0,193.42,410.64L266.9,340c-2-4.87-2.12-9.52-.39-13.42,5.35-12.1,16-18.45,23.72-19.31l.34-.07a156.49,156.49,0,0,1,8-24.53c6.77-15.86,15.2-27.16,25.06-33.57,8.84-5.74,17.91-8.65,27-8.65,12,0,21.47,5.25,26.35,10.16,9.9,10,14.49,37.88-1.14,57.19-8.12,10-21.74,17.59-31.74,22.17-8.22,3.76-17.45,7-22.53,8-.72,8.39-5.07,17-11.15,21a22,22,0,0,1-11.84,3.19,28.33,28.33,0,0,1-7.52-1l-75.68,72.76A183,183,0,1,0,337,114.21Z" transform="translate(1.32 0.94)"/><path class="a" d="M163,389.78c-12.09-10.71-26-19.08-38.79-21,8.12-9.22,14.51-24,18.42-39A193.37,193.37,0,0,0,163,389.78ZM142.22,267.63c-4.14-14.32-10.89-27.9-19.8-36.42,11.39-2.65,25.23-10.64,37.42-20.23A195.66,195.66,0,0,0,142.22,267.63Z" transform="translate(1.32 0.94)"/><path class="b" d="M150.24,222.8A199.05,199.05,0,0,0,141,252.53a83.07,83.07,0,0,0-11.33-19.29,103.08,103.08,0,0,0,20.57-10.44m-8.43,122.75a197.76,197.76,0,0,0,10.35,30.87,78.81,78.81,0,0,0-20.92-10.12,98.38,98.38,0,0,0,10.57-20.75M177.6,188.4c-14,17.16-41.46,37.33-59.58,39.54a1.06,1.06,0,0,0-.25.09,2.12,2.12,0,0,0-.54.17,2.39,2.39,0,0,0-.54.46.73.73,0,0,0-.09.08h0a2.24,2.24,0,0,0-.37.74,2.13,2.13,0,0,0-.07.83h0a2.43,2.43,0,0,0,.25.76.87.87,0,0,0,.09.11,2.33,2.33,0,0,0,.43.51l0,0c16.72,13.16,26.93,47.23,26,70.8-.89,21.82-10.38,53.31-24.16,66.18h0a2.27,2.27,0,0,0-.18.25,1.79,1.79,0,0,0-.3.42,2.24,2.24,0,0,0-.19.76s0,0,0,.06v.08a2,2,0,0,0,.13.74,2.07,2.07,0,0,0,.44.71h0l0,0a2.18,2.18,0,0,0,.66.46,2,2,0,0,0,.4.1,1.75,1.75,0,0,0,.38.09c20.45.79,47.19,23.07,61.23,44.15.75,1.13,1.5,2.29,2.23,3.5l2.6-2.5A193,193,0,0,1,177.6,188.4Z" transform="translate(1.32 0.94)"/><path class="a" d="M334.88,521.73c-6.54-11.21-19.09-22.29-32.28-30.57a197.94,197.94,0,0,0,59.19,1.45C350.37,500.79,340.07,511,334.88,521.73ZM205.19,479c.85-9.08-1.07-19-3.21-26.65l6.27-6a196.38,196.38,0,0,0,40.84,27.22c-4.21-.41-8.39-.62-12.42-.62C227.4,472.87,214.88,474,205.19,479Z" transform="translate(1.32 0.94)"/><path class="b" d="M208.42,451.66a201.18,201.18,0,0,0,24.17,17.28,81.07,81.07,0,0,0-23.22,3.91,87.77,87.77,0,0,0-2.92-19.3l2-1.89m109.72,45.63q9.38.87,18.86.88,6,0,12-.35a84.6,84.6,0,0,0-14.32,16.29,95.45,95.45,0,0,0-16.5-16.82m-110-56.45L197.46,451.1c3.39,11.21,4.94,22.32,3.25,31,0,0,0,.08,0,.11a2.18,2.18,0,0,0,0,.72,2.09,2.09,0,0,0,.24.6c0,.05,0,.12.07.17h0a2,2,0,0,0,.59.58,2,2,0,0,0,.77.32,2,2,0,0,0,.41,0,1.43,1.43,0,0,0,.22,0l.33-.05a2.07,2.07,0,0,0,.46-.2,1.34,1.34,0,0,0,.18-.07c7.77-5.2,19.71-7.42,32.67-7.42a132.7,132.7,0,0,1,43.94,7.67c19.45,7.21,44.4,25,52.5,42.41h0a2.18,2.18,0,0,0,.43.6l.16.13a2,2,0,0,0,.5.31l.11.07h.07a2.48,2.48,0,0,0,.66.12h0a2.22,2.22,0,0,0,.8-.18l.09,0a.87.87,0,0,0,.1-.08,2,2,0,0,0,.47-.34c.05-.05.11-.09.15-.14a2.2,2.2,0,0,0,.39-.64c6-16.23,26.66-33,46.18-42.22a193.25,193.25,0,0,1-175.11-43.74Z" transform="translate(1.32 0.94)"/><circle class="c" cx="337.15" cy="297.19" r="175.48" transform="translate(-110.07 326.38) rotate(-45)"/><path class="b" d="M337.15,129.21a168,168,0,1,1-118.78,49.2,166.87,166.87,0,0,1,118.78-49.2m0-15a183,183,0,0,0,0,366c101.05,0,183-81.92,183-183s-81.93-183-183-183Z" transform="translate(1.32 0.94)"/><path class="b" d="M115,521.39a13.48,13.48,0,0,1-9.35-23.2l164.22-157.6c-2.33-4.79-2.73-9.29-1.09-13,4.11-9.27,10.73-14.21,20.24-15.1.26,0,.53,0,.78,0a6.67,6.67,0,0,1,2.31.39,15.24,15.24,0,0,1,.31-2.51C294,303,303,265.54,325,251.2c8.43-5.48,17.05-8.26,25.61-8.26,11.22,0,20,4.87,24.56,9.43,9.27,9.35,13.48,35.6-1.31,53.86s-49.81,29.43-54.8,29.62h-.71l-1,0c1.23,8.67-2,16.92-8.3,21a19.1,19.1,0,0,1-10.41,2.8,27.1,27.1,0,0,1-8.27-1.35l-166,159.32A13.42,13.42,0,0,1,115,521.39Z" transform="translate(1.32 0.94)"/><path class="a" d="M350.63,248.94c9.76,0,17,4.33,20.3,7.66,6.53,6.58,11.64,29.36-1.71,45.85s-46.54,27.26-50.37,27.4h-.48a25.93,25.93,0,0,1-15-5.5c-4.42-3.64-5.84-9-5-12.78s9.27-41.88,30-55.35c8.28-5.38,15.86-7.29,22.34-7.29m-61,69.52s1.14,3.44,9.09,10.81,11.94,3.67,12.39,5.6c1.71,7.36-.73,14-5.28,17a13.28,13.28,0,0,1-7.15,1.84,22.45,22.45,0,0,1-9.65-2.35l-168.79,162a7.49,7.49,0,0,1-10.38-10.8l167.66-160.9c-2.91-4.07-4.54-8.57-3.2-11.59,4-9.06,10-11.06,15.31-11.56m61-81.52c-9.74,0-19.46,3.11-28.88,9.23-22.13,14.39-31.94,49.05-34.64,60.5-11,1.45-19,7.66-23.8,18.49a19.54,19.54,0,0,0-.48,13.89L101.51,493.85a19.51,19.51,0,0,0-.55,27.57,19.61,19.61,0,0,0,14.05,6A19.41,19.41,0,0,0,128.52,522L292.09,365a32.05,32.05,0,0,0,6.55.69,25,25,0,0,0,13.67-3.77c6.73-4.36,10.78-12.12,11.25-20.74a136.17,136.17,0,0,0,21.89-8c15.07-6.88,26.21-14.69,33.1-23.2,17.08-21.09,11.94-50.72.9-61.85-5.37-5.42-15.76-11.21-28.82-11.21Z" transform="translate(1.32 0.94)"/></svg>