<svg xmlns="http://www.w3.org/2000/svg" viewBox="0 0 500 500"><defs><style>.a{fill:#fff;}</style></defs><title>feathers_round_w&amp;amp;b</title><path d="M250.34,495A245,245,0,0,1,77.1,76.76,245,245,0,1,1,423.58,423.24,243.35,243.35,0,0,1,250.34,495Z" transform="translate(-0.34)"/><path class="a" d="M250.34,10a240.06,240.06,0,0,1,93.42,461.14A240,240,0,0,1,80.64,80.29,239.28,239.28,0,0,1,250.34,10m0-10C112.27,0,.34,111.93.34,250s111.93,250,250,250,250-111.93,250-250S388.41,0,250.34,0Z" transform="translate(-0.34)"/><path class="a" d="M395.05,97.18s4.31,15.08,2.59,17.23-24.13,23.7-26.71,24.56-7.76-7.33-7.76-7.33S392.47,98,395.05,97.18Zm20.68,30.16c2.36-2.83-9.48-5.17-14.21-4.31S372.65,142,372.65,143.71,413.58,129.92,415.73,127.34Zm-43.08,54.28c0,6.46-16.21,42.68-16.21,67.42,0,22.62,31.29,45,31.29,45-10.34-9.91-20.25-29.3-21.54-45.67-1.09-13.75,11.2-46.52,14.42-68.93s-21.39-40.3-17.44-37.48C379.54,153.68,372.65,175.16,372.65,181.62Zm-84.44-61.18c-7.32,6-28.43,20.68-43.51,21.25s-32.31-14.35-35.33-16.94-11.2-21.54-4.31-1.9,34.47,26.46,46.1,26.89,23.27-7.33,31-12.5S302.43,121.3,318.37,120s41.12,19.7,39.76,17.31C334,95.07,295.54,114.41,288.21,120.44Zm57.85,16.85c-47.91,5.23-62.66,42.4-62.66,44.65s9.75,1.13,9.75,1.13c-19.94,6.6-30.77,28.89-34.89,34.8s-11.64,20.73-11.64,20.73,4.13-13.13-4.12-13.51-12.39,16.14-15,21.39-8.63,36.39-14.64,51-23.26,21.76-32.64,28.89-26.64,25.52-26.64,25.52S181,302.76,172,301.26s-18,24.78-18,24.78c-3.21,17.14-3.73,20.62-10.48,29.25s-20.64,16.89-32.65,19.14a22,22,0,0,1-19.51-6c1.5.75,6.38-.38,7.88-9a42.37,42.37,0,0,1,14.26-24.76,97.79,97.79,0,0,0,13.51-14.26H107s12-22.14,37.9-59.66,42.77-45,47.28-46.16,25.89-4.5,25.14-8.25-30,1.88-30,1.88,24-16.89,40.9-28.52,30-15.39,39.4-15.76,7.88,4.5,12.64,6.38,6.12-4.5,2.74-11.63-22.89,0-22.89,0S281.89,145.31,295,139C307.36,133.14,359.1,135.86,346.06,137.29ZM138.42,329.78c-13.23,1.21-20.12,9-20.12,9S102,360.53,108,364.66s14.39-4.11,22.27-10.49S143.58,329.3,138.42,329.78Zm19.28-35.72c-30-2.7-39.4,18.08-39.4,20.71s20.24-4.79,26.79-4.65C148.3,304.58,162.63,294.5,157.7,294.06Zm27-34.07c-26.26.75-50.65,31.14-49.53,31.14s25.52-6,30-7.5S193.94,259.72,184.71,260Zm8.63,8.63c-1-2.51-19.51,18-16.13,22.51s2.62,11.63,1.5,16.88-7.51,14.64-4.13,14.26,15.39-10.88,18.76-12.75S194.49,271.63,193.34,268.62Zm173-91.93c-6.75,12-4.88-6.38-6.38-7.88s-8.63-6.76-10.13-4.88,6.08,21.39,9.23,23.64,5.29,10.88-.09,18.76a74.2,74.2,0,0,1-9.33,11.54s2.83-10.42-1.49-15.67a33.12,33.12,0,0,0-9.58-7.88s3.38,12.38,3.76,21-10.88,46.53-36,66c0,0-2.26-51.78-9-53.65s-1.13,43.9,0,49.53,1.88,22.13-12.38,42.4-23.27,51-23.27,51-3-25.52-13.88-30c0,0-1.06,12.76,3.41,20.64s-4.21,22.89-11.29,29.64a64.37,64.37,0,0,1-18.59,11.88s-7.67,0-9.93-20.14c-.76-6.8,17.64-22.88,17.64-22.88s4.13-4.13-1.5-2.63c-5.05,1.35-14.18,6.92-15.93,10.22.91-5.46,3.85-27.29,8.15-30.11,5.15-3.37,25-16.13,24.66-18.76s-22.89,9-22.89,9l19.89-59.12s5-12.13,33-33.19c30.16-22.64-25.1,9-25.1,9s18.36-30.76,23.84-37.15c7.42-8.67,18.28-21.82,35.41-24.42,10.15-1.54,9.38-6.38,2.25-5.63a145.3,145.3,0,0,1-16.89.38s11.26-17.26,20.26-22.52,16-16.16,44-11.08C362.61,144.64,373.08,164.68,366.32,176.69ZM236.87,342.54c1.23-.93,4-10.14,5.12-14.47.26-1-1,3.72,0,0,0,0-13.38,8.84-16.75,13s-5.53,15-5.53,15S235.37,343.66,236.87,342.54Zm1.88,16.13c-3.76,1.76-15.76,16.51-16.89,20.64s-.75,11.63,2.25,12.38,18-14.68,19.9-18.81S241.72,357.27,238.75,358.67Zm12.41-51.41c1.16-1.12,12-16.51,12-18.38,0,0-25.17,9.79-26.64,10.88s-6.38,16-6.38,16S250,308.39,251.16,307.26Zm18.35,22.51c0-6.37-1.12-23.3-6.38-25-2-.64-12.68,28-12,30.23s7.22,2.92,10.47,12.24C262.4,349.47,269.51,336.14,269.51,329.77Z" transform="translate(-0.34)"/></svg>