<svg xmlns="http://www.w3.org/2000/svg" viewBox="0 0 500 500"><defs><style>.a{fill:#da6969;}.b{fill:#ed2024;}.c{fill:#fff;}</style></defs><title>feathers_square_color</title><rect class="a" x="5" y="5" width="490" height="490" rx="45"/><path class="b" d="M450,10a40,40,0,0,1,40,40V450a40,40,0,0,1-40,40H50a40,40,0,0,1-40-40V50A40,40,0,0,1,50,10H450m0-10H50A50.15,50.15,0,0,0,0,50V450a50.15,50.15,0,0,0,50,50H450a50.15,50.15,0,0,0,50-50V50A50.15,50.15,0,0,0,450,0Z"/><path class="c" d="M440.14,46.8s5.68,19.88,3.41,22.72-31.82,31.25-35.23,32.39-10.23-9.66-10.23-9.66S436.73,47.93,440.14,46.8Zm27.27,39.77c3.11-3.73-12.5-6.82-18.75-5.68s-38.07,25-38.07,27.27S464.57,90,467.41,86.57Zm-56.82,71.59c0,8.52-21.38,56.28-21.38,88.91,0,29.84,41.27,59.38,41.27,59.38-13.64-13.06-26.71-38.63-28.41-60.22-1.43-18.14,14.77-61.37,19-90.91s-28.22-53.16-23-49.43C419.68,121.31,410.59,149.64,410.59,158.16ZM299.23,77.48c-9.66,8-37.5,27.27-57.39,28s-42.61-18.93-46.59-22.34-14.77-28.41-5.68-2.51,45.45,34.9,60.79,35.46,30.69-9.66,40.91-16.47S318,78.61,339,76.91s54.24,26,52.44,22.83C359.65,44,308.89,69.52,299.23,77.48Zm76.29,22.21c-63.19,6.91-82.64,55.92-82.64,58.89s12.86,1.49,12.86,1.49c-26.3,8.71-40.58,38.1-46,45.91s-15.34,27.33-15.34,27.33,5.44-17.32-5.44-17.82-16.33,21.28-19.8,28.21-11.38,48-19.3,67.3-30.68,28.7-43.05,38.11-35.14,33.65-35.14,33.65S157.78,317.93,145.9,316s-23.79,32.69-23.79,32.69c-4.23,22.59-4.91,27.19-13.82,38.57s-27.22,22.27-43.05,25.24a29.06,29.06,0,0,1-25.74-7.92c2,1,8.42-.49,10.4-11.87A55.85,55.85,0,0,1,68.7,360a129.29,129.29,0,0,0,17.82-18.8H60.29s15.83-29.2,50-78.68,56.42-59.39,62.35-60.87,34.15-5.94,33.16-10.89-39.59,2.47-39.59,2.47,31.67-22.26,53.94-37.61,39.59-20.29,52-20.78,10.39,5.94,16.68,8.41,8.07-5.94,3.61-15.34-30.19,0-30.19,0,28.7-17.63,46-25.91C324.48,94.22,392.72,97.81,375.52,99.69ZM101.67,353.56c-17.45,1.6-26.53,11.81-26.53,11.81S53.69,394.12,61.6,399.56s19-5.42,29.37-13.83S108.48,352.94,101.67,353.56Zm25.43-47.11c-39.59-3.55-52,23.85-52,27.32s26.7-6.33,35.32-6.13C114.7,320.32,133.6,307,127.1,306.45Zm35.63-44.93c-34.64,1-66.81,41.07-65.33,41.07s33.66-7.92,39.59-9.9S174.89,261.17,162.73,261.52Zm11.38,11.38c-1.26-3.31-25.73,23.75-21.28,29.69s3.46,15.34,2,22.27-9.9,19.3-5.44,18.8,20.28-14.35,24.74-16.82S175.62,276.88,174.11,272.9ZM402.24,151.66c-8.91,15.83-6.43-8.42-8.41-10.4s-11.38-8.9-13.36-6.43,8,28.21,12.17,31.18,7,14.35-.12,24.74S380.21,206,380.21,206s3.74-13.75-2-20.67a43.71,43.71,0,0,0-12.63-10.4s4.46,16.33,4.95,27.72S356.22,264,323.06,289.72c0,0-3-68.29-11.87-70.76s-1.49,57.9,0,65.32,2.47,29.2-16.33,55.92-30.69,67.3-30.69,67.3-3.95-33.65-18.31-39.59c0,0-1.39,16.83,4.5,27.22s-5.55,30.19-14.89,39.09C224.66,444.54,211,449.9,211,449.9s-10.12,0-13.09-26.56c-1-9,23.26-30.19,23.26-30.19s5.44-5.44-2-3.46c-6.66,1.77-18.69,9.13-21,13.48,1.2-7.21,5.07-36,10.74-39.71,6.8-4.46,33-21.28,32.53-24.74s-30.19,11.87-30.19,11.87l26.23-78s6.55-16,43.55-43.77c39.78-29.85-33.11,11.93-33.11,11.93s24.22-40.57,31.45-49c9.78-11.42,24.1-28.77,46.69-32.2,13.4-2,12.37-8.41,3-7.42a191.21,191.21,0,0,1-22.27.5s14.85-22.77,26.73-29.7,21.1-21.32,58.05-14.62C397.34,109.39,411.15,135.82,402.24,151.66ZM231.51,370.39c1.62-1.22,5.23-13.37,6.76-19.09.34-1.27-1.28,4.92,0,0,0,0-17.64,11.66-22.1,17.12s-7.29,19.78-7.29,19.78S229.53,371.87,231.51,370.39ZM234,391.67c-5,2.32-20.79,21.77-22.27,27.21s-1,15.34,3,16.33,23.76-19.36,26.24-24.8S237.91,389.82,234,391.67Zm16.37-67.8c1.53-1.49,15.79-21.77,15.79-24.25,0,0-33.2,12.91-35.13,14.35-2.13,1.59-8.41,21.13-8.41,21.13S248.83,325.35,250.36,323.87Zm24.21,29.68c0-8.4-1.49-30.73-8.42-32.93-2.66-.84-16.73,36.9-15.79,39.87s9.53,3.84,13.81,16.14C265.19,379.53,274.57,362,274.57,353.55Z"/></svg>