<svg xmlns="http://www.w3.org/2000/svg" viewBox="0 0 640 640"><defs><style>.a{fill:#fff;}</style></defs><title>fire_round_b&amp;amp;w</title><path class="a" d="M320,632.5A312.5,312.5,0,0,1,99,99,312.5,312.5,0,1,1,541,541,310.46,310.46,0,0,1,320,632.5Z" transform="translate(0)"/><path d="M320,15A305.09,305.09,0,0,1,438.72,601,305.09,305.09,0,0,1,201.28,39,303.13,303.13,0,0,1,320,15m0-15C143.27,0,0,143.27,0,320S143.27,640,320,640,640,496.73,640,320,496.73,0,320,0Z" transform="translate(0)"/><path d="M276.59,63.55S300.64,102,283.8,161c0,0,18-14,18-54.11C301.84,79.58,276.59,63.55,276.59,63.55Z" transform="translate(0)"/><path d="M328,400.22s52.81-4,62.43-19.23c0,0-101.2,4-106.62-72.14-4.29-60.39,34.27-99.4,44.8-123.45,0,0,27.35,18.43,16.93,62.12s-10.42,69.34-.8,84.57S368,363.36,392,361.75s34.47-4,53.71-51.3c0,0-23.25,11.22-32.86,4,0,0,16.83-26.46,14.42-50.5s-12-75.36-33.66-97.8c0,0,3.2,52.1-17.64,68.94,0,0-.8-72.95-16.83-101S319.88,82,308.65,76.38c0,0,11.23,21.64,11.23,42.48s-16,52.91-34.47,78.56-37.68,50.5-37.68,77c0,0-14.43-1.61-18.44-43.29,0,0-13.46,24.79-13.62,69.74-.25,65.73,68.94,117.84,132.26,117.84C347.93,418.67,332.89,409,328,400.22Z" transform="translate(0)"/><path d="M242.79,470.5,143.07,498a17.71,17.71,0,1,0,9.4,34.14l157-43.24Z" transform="translate(0)"/><path d="M409.53,461.31l99.72-27.45a17.71,17.71,0,1,0-9.4-34.14L342.83,443Z" transform="translate(0)"/><path d="M503.46,532.43a17.41,17.41,0,0,1-4.71-.64L142,433.55a17.71,17.71,0,1,1,9.4-34.14l356.77,98.24a17.71,17.71,0,0,1-4.69,34.78Z" transform="translate(0)"/></svg>