<svg xmlns="http://www.w3.org/2000/svg" viewBox="0 0 444.61 530.05"><title>fire_borderless_blk</title><path d="M265.51,49.5s27.16,43.46,8.15,110c0,0,20.37-15.85,20.37-61.13C294,67.62,265.51,49.5,265.51,49.5Z" transform="translate(-98.76 -49.5)"/><path d="M323.57,429.81s59.65-4.52,70.52-21.72c0,0-114.32,4.52-120.43-81.5-4.85-68.22,38.71-112.28,50.59-139.45,0,0,30.9,20.83,19.13,70.18s-11.77,78.33-.9,95.53,26.25,35.32,53.42,33.5,38.94-4.52,60.67-58c0,0-26.26,12.68-37.13,4.53,0,0,19-29.88,16.3-57.05s-13.58-85.12-38-110.47c0,0,3.62,58.86-19.92,77.87,0,0-.91-82.4-19-114.09s-44.37-58.86-57-65.2c0,0,12.67,24.45,12.67,48s-18.11,59.76-38.93,88.74S233,257.68,233,287.6c0,0-16.3-1.81-20.83-48.89,0,0-15.2,28-15.39,78.78-.28,74.25,77.87,133.11,149.41,133.11C346.1,450.65,329.11,439.76,323.57,429.81Z" transform="translate(-98.76 -49.5)"/><path d="M227.33,509.19l-112.64,31a20,20,0,1,0,10.06,38.72l.56-.16,177.36-48.84Z" transform="translate(-98.76 -49.5)"/><path d="M415.67,498.82l112.64-31a20,20,0,0,0-9.89-38.76l-.72.2L340.34,478.07Z" transform="translate(-98.76 -49.5)"/><path d="M521.78,579.15a19.9,19.9,0,0,1-5.32-.72l-403-111a20,20,0,0,1,10.62-38.57h0l403,111a20,20,0,0,1-5.3,39.29Z" transform="translate(-98.76 -49.5)"/></svg>