<svg xmlns="http://www.w3.org/2000/svg" viewBox="0 0 640 640"><defs><style>.a{fill:#f99b1c;}.b{fill:#925c25;}.c{fill:#fff;}</style></defs><title>fire_square_color</title><rect class="a" x="7.5" y="7.5" width="625" height="625" rx="92.5"/><path class="b" d="M540,15.5a85.29,85.29,0,0,1,85,85v440a85.29,85.29,0,0,1-85,85H100a85.29,85.29,0,0,1-85-85v-440a85.29,85.29,0,0,1,85-85H540m0-15H100C45,.5,0,45.5,0,100.5v440c0,55,45,100,100,100H540c55,0,100-45,100-100v-440c0-55-45-100-100-100Z" transform="translate(0 -0.5)"/><path class="c" d="M265.51,50s27.16,43.46,8.15,110c0,0,20.37-15.85,20.37-61.13C294,68.12,265.51,50,265.51,50Z" transform="translate(0 -0.5)"/><path class="c" d="M323.57,430.31s59.65-4.52,70.52-21.72c0,0-114.32,4.52-120.43-81.5-4.85-68.22,38.71-112.28,50.59-139.45,0,0,30.9,20.83,19.13,70.18s-11.77,78.33-.9,95.53,26.25,35.32,53.42,33.5,38.94-4.52,60.67-58c0,0-26.26,12.68-37.13,4.53,0,0,19-29.88,16.3-57.05s-13.58-85.12-38-110.47c0,0,3.62,58.86-19.92,77.87,0,0-.91-82.4-19-114.09s-44.37-58.86-57-65.2c0,0,12.67,24.45,12.67,48s-18.11,59.76-38.93,88.74-42.56,57-42.56,86.92c0,0-16.3-1.81-20.83-48.89,0,0-15.2,28-15.39,78.78-.28,74.25,77.87,133.11,149.41,133.11C346.1,451.15,329.11,440.26,323.57,430.31Z" transform="translate(0 -0.5)"/><path class="c" d="M227.33,509.69l-112.64,31a20,20,0,1,0,10.62,38.56l177.36-48.84Z" transform="translate(0 -0.5)"/><path class="c" d="M415.67,499.32l112.64-31a20,20,0,1,0-10.61-38.56L340.34,478.57Z" transform="translate(0 -0.5)"/><path class="c" d="M521.78,579.65a19.93,19.93,0,0,1-5.32-.72l-403-111a20,20,0,0,1,10.62-38.57l403,111a20,20,0,0,1-5.3,39.29Z" transform="translate(0 -0.5)"/></svg>