<svg xmlns="http://www.w3.org/2000/svg" viewBox="0 0 640 640"><defs><style>.a{fill:#fff;}</style></defs><title>lodge_closed_round_w&amp;amp;b</title><path d="M320,632.5A312.5,312.5,0,0,1,99,99,312.5,312.5,0,1,1,541,541,310.46,310.46,0,0,1,320,632.5Z" transform="translate(0)"/><path class="a" d="M320,15A305.09,305.09,0,0,1,438.72,601,305.09,305.09,0,0,1,201.28,39,303.13,303.13,0,0,1,320,15m0-15C143.27,0,0,143.27,0,320S143.27,640,320,640,640,496.73,640,320,496.73,0,320,0Z" transform="translate(0)"/><path class="a" d="M324.48,65.76c6,2.65,8.24,7.35,7.94,13.78a90.93,90.93,0,0,0,.9,18.22c3.81-5.67,7.49-11.43,11.47-17a10.33,10.33,0,0,1,14.42-2.65c4.73,3.19,6,9.18,3,14.39-.6,1-1.32,2-2,3-4.42,6.65-8.69,13.4-13.34,19.89-1.93,2.7-2,4.75-.53,7.69q44.2,88,88.2,176.08,35.49,71,70.9,142c7.51,15,15.14,30,22.66,45.06,9.49,19,2.7,35.31-17.44,42.12-.25.08-.43.39-.64.59H133.54a15,15,0,0,0-1.95-.92c-17.59-5.48-25.33-23.2-17.12-39.72q25-50.37,50.27-100.63,66.27-132.51,132.61-265c1.31-2.61,1.34-4.44-.39-6.89-5.12-7.27-10-14.73-14.85-22.16-3.86-5.87-2.95-12,2.16-15.53s11.27-2,15.23,3.7a152.94,152.94,0,0,0,11.66,15.72V92.65c0-4.38.2-8.76-.05-13.12-.38-6.43,1.9-11.13,7.94-13.77ZM310.91,508.2V340.37c0-1.36-.06-2.72,0-4.07a9.13,9.13,0,0,1,8.88-9c7.88-.56,11.9,3.13,11.9,11q0,82.1,0,164.19v5.73H337L501.67,508c9.08,0,11.61-4.12,7.51-12.34Q481.37,440,453.52,384.32q-17.77-35.55-35.59-71.09c-3-5.9-4.8-13.21-9.44-17.21s-12.23-4.54-18.39-6.93c-2.79-1.09-4.77-.5-7.05,1.07-7.32,5-14.85,9.79-22.13,14.88-5.11,3.58-9.86,3.68-15,.1-7-4.91-14.33-9.48-21.37-14.38-2.08-1.45-3.5-1.43-5.57,0-7.18,5-14.56,9.68-21.77,14.62-4.84,3.31-9.42,3.22-14.23-.08-7.45-5.12-15.1-10-22.49-15.16a7.19,7.19,0,0,0-7.5-.93c-4.78,1.82-9.81,3-14.5,5a12,12,0,0,0-5.74,4.92q-49.31,98.07-98.3,196.29C130.18,504,132.62,508,142,508l163.76.18ZM375.27,228c-.67-1.37-1.18-2.44-1.71-3.5q-23-46-45.94-92.08c-1.37-2.77-2.95-3.54-5.86-3.54s-4.51.78-5.87,3.55c-10,20.38-20.23,40.67-30.39,61-5.71,11.42-11.43,22.83-17.28,34.52,6.46,4.31,12.78,8.35,18.88,12.7,2.42,1.73,4.08,1.42,6.35-.17,6.92-4.81,14.07-9.3,21-14.09,5-3.43,9.67-3.42,14.63,0q10.6,7.29,21.45,14.24c1.17.75,3.34,1.4,4.26.83C361.67,237.18,368.35,232.6,375.27,228Zm-85.11,56.68c8.46-5.61,16.66-10.95,24.75-16.46,4.7-3.2,9.13-3.16,13.8,0,7,4.77,14.15,9.19,21,14.12,2.84,2.05,4.77,1.88,7.46-.12,4.58-3.41,9.67-6.16,14.18-9.65,7-5.44,14.17-9.24,23.08-4.42.06,0,.24-.16.74-.51L384.8,247c-8.07,5.39-15.91,10.4-23.51,15.75-5.39,3.8-10.35,3.92-15.77.08-6.87-4.88-14-9.34-21-14.15-2.07-1.44-3.55-1.41-5.61,0-6.8,4.72-13.74,9.24-20.63,13.83s-9.46,4.52-16.43-.12L258.73,247c-3.61,7.24-7,14-10.8,21.63a27.32,27.32,0,0,0,3.41-1c6.14-3,11.42-1.62,16.79,2.34C275.14,275.09,282.6,279.66,290.16,284.69Z" transform="translate(0)"/><path class="a" d="M91,197c4.1-5.36,5.71-5.8,13.17-3.6,27.22,8,52.48-6.25,58.58-33.83,1.53-6.91,1.06-14.43.48-21.59-.63-7.83,5.93-11.25,12.16-7.19,15,9.76,24.8,23.25,27.65,41,3.64,22.73-3.59,41.79-21,56.91-21,18.22-52.87,17.36-73.31-1.56-7.89-7.3-13.36-16-17.69-25.61Zm22.29,14.15c10.2,13.16,23.59,17.2,39.16,15.63a40.76,40.76,0,0,0,35.08-31.29c3.35-14.41,2.6-28.82-8.12-41.75C171.49,189.48,151,209.66,113.3,211.11Z" transform="translate(0)"/><path class="a" d="M236.66,113.77a8.11,8.11,0,0,1-16.21.14,8.11,8.11,0,1,1,16.21-.14Z" transform="translate(0)"/><path class="a" d="M152.51,325.37a8.07,8.07,0,0,1-7.91,8.17,8.11,8.11,0,1,1,7.91-8.17Z" transform="translate(0)"/></svg>