<svg xmlns="http://www.w3.org/2000/svg" viewBox="0 0 640 640"><defs><style>.a{fill:#fff;}.b{fill:#c40000;}</style></defs><title>lodge_open_square_color</title><rect class="a" x="7.5" y="7.5" width="625" height="625" rx="92.5"/><path d="M540,15a85.29,85.29,0,0,1,85,85V540a85.29,85.29,0,0,1-85,85H100a85.29,85.29,0,0,1-85-85V100a85.29,85.29,0,0,1,85-85H540m0-15H100C45,0,0,45,0,100V540c0,55,45,100,100,100H540c55,0,100-45,100-100V100C640,45,595,0,540,0Z"/><rect class="b" x="7.5" y="7.5" width="625" height="625" rx="92.5"/><path class="a" d="M540,15a85.29,85.29,0,0,1,85,85V540a85.29,85.29,0,0,1-85,85H100a85.29,85.29,0,0,1-85-85V100a85.29,85.29,0,0,1,85-85H540m0-15H100C45,0,0,45,0,100V540c0,55,45,100,100,100H540c55,0,100-45,100-100V100C640,45,595,0,540,0Z"/><path class="a" d="M130.49,567.31a15.65,15.65,0,0,0-2.16-1c-19.44-6-28-25.63-18.92-43.89Q137.07,466.73,165,411.17q73.25-146.46,146.57-292.89c1.44-2.86,1.5-4.89-.41-7.61-5.67-8-11-16.27-16.42-24.48-4.27-6.48-3.27-13.32,2.37-17.17s12.44-2.27,16.83,4.06c2,2.87,3.89,5.82,5.83,8.73a43.16,43.16,0,0,0,7.07,8.64V85c0-4.84.21-9.68-.07-14.5-.4-7.1,2.11-12.31,8.79-15.21h6c6.68,2.91,9.11,8.11,8.78,15.22a100.52,100.52,0,0,0,1,20.14c4.12-6.13,8.13-12.33,12.38-18.37,4-5.66,10.85-7,16.23-3.33s6.64,10.33,3,16.32c-.6,1-1.28,2-1.93,2.92-5,7.49-9.83,15.07-15,22.41-1.89,2.67-2,4.7-.5,7.62Q410.8,208.58,456,299q24.57,49.11,49.17,98.21c2.63,5.24,3.14,10.2-.93,14.84-5.73,6.54-15.34,4.7-19.62-3.81q-16.59-33-33.06-66.08c-4.83-9.67-9.51-19.43-14.63-29A12.73,12.73,0,0,0,431,308a122.33,122.33,0,0,0-17-5.66,10.25,10.25,0,0,0-7.19.88c-8.49,5.24-16.8,10.81-25,16.53-5.65,4-10.9,4.06-16.57.11-7.79-5.43-15.84-10.48-23.63-15.9-2.29-1.6-3.85-1.58-6.15,0-7.93,5.52-16.09,10.7-24.06,16.15-5.34,3.66-10.41,3.58-15.72-.08-8.23-5.66-16.69-11-24.86-16.75a7.94,7.94,0,0,0-8.29-1c-6.68,2.53-14.84,3.16-19.86,7.5s-7,12.21-10.2,18.6Q182.06,429,131.71,529.73l-.65,1.35c-4,8.21-1.22,12.95,7.81,13h18c25.33,0,50.66-.08,76,.08,3.72,0,5.48-1.11,7-4.56Q283.09,442,326.58,344.39c5.34-12,14.43-13.13,22.94-3.2,41.11,48,91.79,80.62,153.83,94.41,10.33,2.3,21.1,2.81,31.7,3.61,8.45.63,13.13,4.78,12.83,13.15a116.7,116.7,0,0,1-1.75,18.37A17.58,17.58,0,0,0,548,483.07c6.37,12.25,12.42,24.67,18.58,37,10.45,21,3,39-19.3,46.55-.27.09-.46.43-.7.66h-258c-2.63-3-6.5-5.63-7.66-9.13-2.52-7.64,3.67-14.06,12.76-14.07H413.81l-75.12-169c-1.2,2.51-1.86,3.82-2.46,5.16q-39.35,88.45-78.63,177c-2,4.47-4.58,8-9,10.09ZM375,398.93c1,2.62,1.55,4.14,2.2,5.6,19.93,44.86,39.94,89.68,59.68,134.62,1.76,4,3.92,4.52,7.57,4,37.92-5.25,69.6-34.25,77.94-71.5.67-3,1-6.07,1.53-9.32C467.66,456.73,419.67,433.25,375,398.93Zm22.64-164.31c-.74-1.51-1.3-2.69-1.88-3.85Q370.34,179.89,345,129c-1.51-3-3.25-3.91-6.47-3.91s-5,.85-6.49,3.91c-11.06,22.54-22.36,45-33.59,67.42-6.31,12.61-12.63,25.23-19.09,38.15,7.12,4.76,14.12,9.22,20.86,14,2.67,1.91,4.5,1.56,7-.19,7.64-5.32,15.54-10.28,23.21-15.57,5.49-3.79,10.68-3.78,16.16,0q11.71,8.06,23.71,15.73c1.29.82,3.69,1.55,4.7.92,7.62-4.69,15-9.76,22.65-14.84ZM257,279.4a29.29,29.29,0,0,0,3.9-1.09c6.59-3.13,12.34-1.89,18.12,2.44,6.65,5,13.88,9.18,20.66,14,2.83,2,4.87,2.2,7.83.1,7.58-5.41,15.52-10.31,23.19-15.61,5.33-3.67,10.34-3.72,15.69,0,7.94,5.49,16.11,10.64,24,16.15,2.3,1.6,3.88,1.57,6.13,0,6.12-4.32,12.72-8,18.58-12.62,7.3-5.74,14.68-8.27,23.41-3.69.19.09.57-.21,1.2-.45-3.79-7.56-7.57-15.08-11.52-23-9.15,6.1-17.94,11.78-26.54,17.74-5.68,3.94-11,3.83-16.58-.09-7.64-5.33-15.53-10.31-23.18-15.63-2.39-1.65-4.16-1.86-6.63-.08-5.53,4-11.3,7.64-17,11.42-14.68,9.81-14.68,9.81-29.39,0l-20-13.36Zm277.69,229-31,35.71c11.94,0,24.68.23,37.4-.11,5.8-.15,8.47-5.41,5.86-10.9-4.12-8.59-8.46-17-12.31-24.75Z"/><path class="a" d="M74.48,169.31c2.48-1,4.91-2.71,7.43-2.87,6.61-.4,13.26-.18,19.88-.11,5.11,0,6.7,1.78,6.7,7s-1.59,6.92-6.69,7c-6.63.07-13.28.29-19.88-.12-2.53-.16-5-1.86-7.44-2.86Z"/><path class="a" d="M165.56,123.31a50,50,0,1,1-50.07,49.93v-.12A50,50,0,0,1,165.56,123.31Zm34.94,48.82a35,35,0,1,0-34.83,35.17h0a35,35,0,0,0,34.83-35.17Z"/><path class="a" d="M127.45,217.88c-1.34,2.2-2,3.79-3,4.91-5.1,5.26-10.34,10.4-15.52,15.59-3.2,3.2-6,2.42-9-.52s-4.28-5.94-.84-9.39c5.18-5.2,10.21-10.55,15.65-15.45,1.43-1.3,4.67-2.26,6.12-1.51C123.38,212.84,125.19,215.59,127.45,217.88Z"/><path class="a" d="M172.48,98.27c0,3.83.09,7.67,0,11.5-.12,4.28-2.77,5.55-6.68,5.58s-7.15-.84-7.23-5.51c-.14-7.66-.11-15.33,0-23,.06-4.28,2.77-5.56,6.67-5.59s7.07.85,7.24,5.52C172.59,90.6,172.48,94.44,172.48,98.27Z"/><path class="a" d="M238.8,166.32c3.67,0,7.33-.06,11,0,4.6.09,5.76,3,5.76,7s-1.26,6.9-5.85,6.93c-7.5.05-15,.07-22.49,0-4.61-.05-5.76-2.95-5.76-7s1.26-6.87,5.84-6.93C231.13,166.27,235,166.32,238.8,166.32Z"/><path class="a" d="M157.51,247.81c0-3.66-.1-7.33,0-11,.15-4.66,3.22-5.58,7.2-5.56s6.65,1.25,6.71,5.55q.17,11.49,0,23c-.08,4.65-3.22,5.58-7.2,5.55s-6.58-1.25-6.71-5.54C157.42,255.81,157.51,251.81,157.51,247.81Z"/><path class="a" d="M128.9,128.66c-2.3,2.35-4.1,5.09-6.64,6.41-1.45.75-4.69-.16-6.11-1.45-5.52-5-10.66-10.38-15.88-15.69-3.48-3.55-1.79-6.49,1.18-9.34s5.77-3.55,9-.25c5,5.1,10.11,10,15.06,15.12C126.67,124.7,127.42,126.37,128.9,128.66Z"/><path class="a" d="M225.05,240.56c-2.29-1.32-3.89-1.89-5-2.95-5.28-5.07-10.51-10.2-15.59-15.47-3.34-3.47-2.9-5.86,1.12-9.73,3.07-3,5.88-3.19,9,.06,4.83,5.05,10,9.73,14.7,14.93,1.41,1.58,2.66,4.85,1.95,6.45C230.1,236.43,227.29,238.27,225.05,240.56Z"/><path class="a" d="M234.33,112.4c-1.45,2.32-2.16,4-3.36,5.27-5,5.16-10.13,10.14-15.15,15.25-3.48,3.55-6.37,2.22-9.41-.69s-3.89-5.77-.69-9c5.16-5.21,10.22-10.54,15.64-15.46,1.43-1.29,4.58-2.29,6-1.58C230,107.44,231.91,110.11,234.33,112.4Z"/></svg>