<svg xmlns="http://www.w3.org/2000/svg" viewBox="0 0 640 640"><defs><style>.a{fill:#c40000;}.b{fill:#fff;}</style></defs><title>lodge_open_round_color</title><path class="a" d="M320,632.5C147.41,632.53,7.47,492.65,7.44,320.06A312.46,312.46,0,0,1,99,99C221.05-23,419-23,541,99s122,320,0,442A310.48,310.48,0,0,1,320,632.5Z"/><path class="b" d="M320,15c168.5.17,305,136.91,304.77,305.41A305.08,305.08,0,0,1,438.72,601c-156.26,63-334-12.51-397.09-168.76C-20,279.55,50.67,105.53,201.28,39A303,303,0,0,1,320,15m0-15C143.27,0,0,143.27,0,320S143.27,640,320,640,640,496.73,640,320,496.73,0,320,0Z"/><path class="b" d="M134.69,527.21a14.31,14.31,0,0,0-1.95-.9c-17.52-5.46-25.24-23.11-17.05-39.57q24.93-50.19,50.08-100.28,66-132.07,132.16-264.07c1.29-2.58,1.35-4.41-.38-6.87-5.11-7.21-9.92-14.67-14.8-22.07-3.85-5.84-3-12,2.14-15.48s11.2-2,15.17,3.67c1.81,2.59,3.5,5.24,5.26,7.86a38.16,38.16,0,0,0,6.36,7.79V92.4c0-4.36.19-8.73-.05-13.08-.36-6.41,1.9-11.1,7.89-13.73h5.41c6,2.64,8.21,7.32,7.91,13.73a89.72,89.72,0,0,0,.91,18.16c3.74-5.53,7.35-11.15,11.18-16.56,3.6-5.1,9.79-6.31,14.64-3s6,9.32,2.7,14.72c-.54.9-1.15,1.75-1.74,2.62C356,102,351.67,108.85,347,115.47c-1.71,2.42-1.81,4.24-.46,6.87q40.89,81.47,81.6,163,22.14,44.3,44.32,88.54c2.38,4.74,2.83,9.2-.83,13.38-5.16,5.91-13.83,4.24-17.68-3.43q-15-29.76-29.81-59.57c-4.37-8.73-8.58-17.53-13.19-26.15a11.44,11.44,0,0,0-5.33-4.7,111.58,111.58,0,0,0-15.33-5.11,9.23,9.23,0,0,0-6.48.8c-7.66,4.72-15.16,9.74-22.54,14.9-5.09,3.61-9.83,3.66-14.94.1-7-4.89-14.28-9.45-21.3-14.33-2.07-1.44-3.48-1.43-5.55,0-7.15,5-14.51,9.63-21.69,14.56-4.82,3.3-9.39,3.21-14.17-.08-7.43-5.11-15.05-9.92-22.42-15.11a7.15,7.15,0,0,0-7.47-.9c-6,2.29-13.38,2.86-17.91,6.77s-6.31,11-9.2,16.76Q181.2,402.55,135.8,493.34c-.21.39-.39.81-.59,1.21-3.6,7.41-1.1,11.67,7,11.72h16.23c22.84,0,45.68-.08,68.52.07,3.34,0,4.94-1,6.31-4.1q39-88.08,78.17-176c4.81-10.82,13-11.85,20.73-2.89C369.28,366.61,415,396,470.91,408.45c9.31,2.07,19,2.53,28.58,3.25,7.61.57,11.82,4.31,11.55,11.85a104.66,104.66,0,0,1-1.56,16.57,15.78,15.78,0,0,0,1.65,11.12c5.75,11.05,11.19,22.24,16.75,33.36,9.43,18.93,2.7,35.16-17.39,42-.26.08-.43.4-.64.6H277.14c-2.38-2.71-5.86-5.07-6.9-8.24-2.28-6.88,3.31-12.67,11.49-12.68H390L322.31,353.87c-1.07,2.25-1.66,3.43-2.21,4.64q-35.48,79.77-70.89,159.58c-1.8,4-4.13,7.22-8.11,9.1Zm220.46-151.8c.9,2.35,1.41,3.72,2,5,18,40.43,36,80.84,53.8,121.37,1.6,3.61,3.54,4.07,6.83,3.61C452,500.69,480.53,474.55,488,441c.61-2.7.91-5.47,1.38-8.4C438.68,427.51,395.42,406.4,355.15,375.41Zm20.42-148.14c-.67-1.36-1.17-2.43-1.7-3.48Q350.95,177.94,328.09,132c-1.36-2.76-2.93-3.53-5.83-3.53s-4.51.76-5.85,3.52c-10,20.32-20.16,40.57-30.29,60.79-5.69,11.38-11.38,22.75-17.22,34.39,6.43,4.3,12.73,8.33,18.81,12.63,2.42,1.72,4.06,1.41,6.31-.18,6.9-4.79,14-9.26,20.94-14,4.94-3.42,9.63-3.41,14.57,0q10.56,7.26,21.36,14.18c1.18.75,3.34,1.4,4.25.83,6.88-4.22,13.54-8.79,20.43-13.36ZM248.71,267.64a28.7,28.7,0,0,0,3.52-1c5.93-2.82,11.12-1.72,16.34,2.19,6,4.51,12.51,8.28,18.63,12.62,2.55,1.8,4.39,2,7.06.09,6.83-4.88,14-9.29,20.9-14.06,4.81-3.32,9.33-3.37,14.15,0,7.16,4.95,14.52,9.6,21.64,14.56,2.07,1.44,3.51,1.41,5.53,0,5.52-3.9,11.46-7.22,16.76-11.38,6.57-5.19,13.22-7.46,21.1-3.34.16.09.52-.18,1.07-.4L385,246.2c-8.25,5.49-16.18,10.62-23.93,16-5.13,3.55-9.92,3.46-14.95-.09-6.89-4.8-14-9.29-20.91-14.08-2.14-1.5-3.74-1.68-6-.08-5,3.61-10.18,6.89-15.32,10.31-13.25,8.83-13.24,8.83-26.5,0l-18-12.05C255.81,253.42,252.48,260.1,248.71,267.64ZM499.07,474l-27.95,32.19c10.77,0,22.24.21,33.72-.1,5.23-.13,7.63-4.88,5.28-9.83C506.46,488.62,502.54,481,499.07,474Z"/><path class="b" d="M84.2,168.37c2.23-.9,4.43-2.44,6.7-2.57,6-.37,11.95-.18,17.92-.11,4.6,0,6,1.6,6,6.31s-1.43,6.25-6,6.31c-6,.06-12,.26-17.92-.11-2.27-.17-4.47-1.71-6.7-2.61Z"/><path class="b" d="M166.32,126.9a45.08,45.08,0,1,1-45.15,45v-.1A45.07,45.07,0,0,1,166.32,126.9Zm31.48,44a31.56,31.56,0,1,0-31.39,31.72h0A31.56,31.56,0,0,0,197.8,170.92Z"/><path class="b" d="M132,212.17a35.43,35.43,0,0,1-2.71,4.42c-4.61,4.75-9.32,9.38-14,14.06-2.89,2.88-5.41,2.19-8.12-.47s-3.84-5.35-.74-8.47c4.66-4.68,9.2-9.5,14.1-13.93,1.3-1.16,4.22-2,5.52-1.36C128.28,207.62,129.92,210.1,132,212.17Z"/><path class="b" d="M172.56,104.36c0,3.46.08,6.92,0,10.37-.13,3.82-2.53,5-6,5s-6.45-.76-6.52-5c-.13-6.91-.11-13.82,0-20.74,0-3.85,2.49-5,6-5s6.38.76,6.53,5C172.66,97.42,172.56,100.87,172.56,104.36Z"/><path class="b" d="M232.35,165.67c3.3,0,6.61,0,9.92,0,4.16.08,5.2,2.7,5.19,6.31s-1.13,6.23-5.26,6.26c-6.76,0-13.53,0-20.29,0-4.15,0-5.19-2.71-5.18-6.31s1.12-6.21,5.26-6.26Z"/><path class="b" d="M159,239.16c0-3.31-.09-6.62,0-9.92.15-4.2,2.92-5,6.51-5s6,1.12,6,5q.15,10.36,0,20.74c-.06,4.19-2.89,5-6.48,5s-5.94-1.12-6.06-5C159,246.37,159,242.76,159,239.16Z"/><path class="b" d="M133.27,131.73c-2.08,2.11-3.71,4.58-6,5.77-1.3.69-4.22-.14-5.5-1.3-5-4.51-9.61-9.36-14.32-14.15-3.14-3.2-1.61-5.84,1.1-8.41s5.2-3.21,8.11-.24c4.51,4.6,9.11,9,13.58,13.64A41.45,41.45,0,0,1,133.27,131.73Z"/><path class="b" d="M220,232.61c-2.07-1.19-3.51-1.69-4.51-2.66-4.75-4.57-9.47-9.19-14-13.94-3-3.12-2.61-5.29,1-8.78,2.78-2.7,5.31-2.86,8.12.07,4.36,4.5,9,8.77,13.25,13.45,1.28,1.42,2.4,4.37,1.8,5.81C224.51,228.89,222,230.58,220,232.61Z"/><path class="b" d="M228.32,117.07c-1.31,2.09-1.95,3.6-3,4.75-4.51,4.65-9.13,9.14-13.66,13.75-3.13,3.2-5.74,2-8.48-.63s-3.51-5.2-.62-8.11c4.65-4.7,9.2-9.51,14.1-13.94,1.29-1.17,4.13-2.07,5.41-1.43C224.42,112.59,226.14,115,228.32,117.07Z"/></svg>