<svg xmlns="http://www.w3.org/2000/svg" viewBox="0 0 496.76 512"><title>lodge_open_borderless_blk</title><path d="M56,512a17.58,17.58,0,0,0-2.16-1c-19.44-6.05-28-25.63-18.92-43.89q27.66-55.67,55.55-111.22Q163.73,209.4,237.05,63c1.44-2.87,1.5-4.9-.42-7.62-5.66-8-11-16.27-16.41-24.48-4.27-6.48-3.28-13.32,2.37-17.17S235,11.47,239.42,17.8c2,2.87,3.88,5.81,5.83,8.72a42.49,42.49,0,0,0,7.06,8.64V29.73c0-4.83.21-9.68-.06-14.5C251.85,8.12,254.36,2.91,261,0h6c6.67,2.92,9.11,8.12,8.78,15.22a99.92,99.92,0,0,0,1,20.15c4.15-6.14,8.16-12.37,12.4-18.37,4-5.66,10.86-7,16.24-3.33s6.64,10.34,3,16.33c-.6,1-1.28,1.94-1.93,2.91-5,7.49-9.83,15.07-15,22.41-1.89,2.68-2,4.7-.51,7.62q45.36,90.35,90.51,180.79,24.56,49.13,49.16,98.21c2.64,5.25,3.14,10.2-.92,14.84-5.73,6.55-15.34,4.7-19.62-3.81q-16.61-33-33.06-66.07c-4.84-9.68-9.51-19.44-14.63-29a12.76,12.76,0,0,0-5.91-5.22,122.33,122.33,0,0,0-17-5.66,10.25,10.25,0,0,0-7.19.88c-8.5,5.24-16.81,10.81-25,16.53-5.65,4-10.9,4.06-16.57.11-7.79-5.43-15.84-10.48-23.63-15.9-2.29-1.59-3.86-1.58-6.15,0-7.93,5.51-16.09,10.69-24.06,16.15-5.34,3.66-10.41,3.57-15.72-.09C213,259,204.5,253.7,196.33,248a7.94,7.94,0,0,0-8.29-1c-6.68,2.54-14.84,3.17-19.86,7.51s-7,12.21-10.21,18.59Q107.59,373.75,57.23,474.43c-.23.44-.43.9-.65,1.35-4,8.21-1.22,12.94,7.8,13h18c25.34,0,50.67-.09,76,.07,3.71,0,5.48-1.11,7-4.55q43.22-97.68,86.7-195.23c5.34-12,14.44-13.14,23-3.2,41.11,48,91.78,80.61,153.83,94.41,10.33,2.29,21.09,2.8,31.7,3.6,8.45.63,13.12,4.78,12.82,13.15a115.51,115.51,0,0,1-1.74,18.37,17.56,17.56,0,0,0,1.83,12.34c6.38,12.25,12.42,24.67,18.58,37,10.46,21,3,39-19.29,46.54-.28.09-.47.44-.7.66H214c-2.64-3-6.5-5.62-7.66-9.13-2.53-7.64,3.67-14.06,12.75-14.07H339.22l-75.12-169c-1.19,2.5-1.85,3.81-2.45,5.15q-39.34,88.47-78.63,177c-2,4.47-4.58,8-9,10.09ZM300.52,343.63c1,2.61,1.56,4.13,2.21,5.6,19.93,44.85,39.94,89.67,59.67,134.62,1.77,4,3.93,4.51,7.58,4,37.92-5.26,69.6-34.26,77.94-71.51.67-3,1-6.07,1.53-9.32C393.17,401.42,345.19,378,300.52,343.63Zm22.65-164.31c-.74-1.51-1.3-2.69-1.89-3.86Q295.86,124.6,270.51,73.69c-1.51-3.06-3.25-3.92-6.47-3.92s-5,.85-6.49,3.91c-11.07,22.54-22.36,45-33.59,67.42-6.31,12.62-12.63,25.23-19.1,38.15,7.13,4.76,14.12,9.23,20.86,14,2.68,1.91,4.5,1.57,7-.19,7.65-5.32,15.55-10.28,23.22-15.57,5.48-3.79,10.68-3.78,16.16,0q11.72,8.06,23.7,15.73c1.3.83,3.7,1.55,4.71.92,7.63-4.68,15-9.75,22.66-14.82ZM182.46,224.1a33.34,33.34,0,0,0,3.91-1.09c6.58-3.13,12.33-1.9,18.12,2.43,6.64,5,13.88,9.18,20.66,14,2.83,2,4.87,2.21,7.83.1,7.58-5.41,15.52-10.31,23.19-15.6,5.33-3.68,10.34-3.73,15.69,0,7.94,5.49,16.11,10.65,24,16.15,2.3,1.6,3.89,1.57,6.14,0,6.12-4.32,12.71-8,18.58-12.62,7.29-5.75,14.67-8.27,23.41-3.7.18.1.57-.2,1.19-.45l-11.51-23c-9.15,6.09-17.94,11.78-26.54,17.74-5.69,3.93-11,3.83-16.58-.1-7.64-5.33-15.53-10.31-23.19-15.62-2.38-1.66-4.15-1.87-6.62-.09-5.53,4-11.3,7.64-17,11.43-14.69,9.8-14.68,9.8-29.39,0l-20-13.36ZM460.15,453l-31,35.71c11.94,0,24.67.23,37.4-.11,5.8-.15,8.46-5.41,5.86-10.9C468.35,469.2,464,460.79,460.15,453Z"/><path d="M0,114c2.47-1,4.91-2.71,7.43-2.86,6.61-.41,13.25-.19,19.88-.12,5.1,0,6.69,1.78,6.69,7s-1.58,6.93-6.69,7c-6.63.07-13.27.29-19.88-.12-2.52-.19-5-1.9-7.43-2.9Z"/><path d="M91.08,68A50,50,0,1,1,41,117.92v-.11A50,50,0,0,1,91.08,68ZM126,116.82A35,35,0,1,0,91.18,152h0A35,35,0,0,0,126,116.82Z"/><path d="M53,162.57c-1.34,2.21-2,3.79-3,4.91-5.11,5.27-10.34,10.4-15.52,15.59-3.2,3.2-6,2.43-9-.52s-4.27-5.93-.83-9.39c5.17-5.19,10.21-10.54,15.64-15.45,1.44-1.29,4.68-2.26,6.12-1.51C48.89,157.53,50.71,160.28,53,162.57Z"/><path d="M98,43c0,3.84.09,7.67,0,11.5-.14,4.24-2.8,5.5-6.7,5.5s-7.15-.84-7.23-5.51c-.14-7.66-.12-15.33,0-23,0-4.28,2.76-5.56,6.67-5.58s7.07.84,7.24,5.51C98.11,35.3,98,39.13,98,43Z"/><path d="M164.32,111c3.66,0,7.33-.06,11,0,4.61.09,5.77,3,5.76,7s-1.26,6.91-5.84,6.94c-7.5,0-15,.06-22.5,0-4.61,0-5.76-3-5.75-7s1.25-6.88,5.84-6.94Z"/><path d="M83,192.51c0-3.67-.1-7.34,0-11,.16-4.66,3.23-5.58,7.21-5.55s6.64,1.25,6.71,5.54q.17,11.49,0,23c-.07,4.65-3.21,5.58-7.19,5.55s-6.59-1.25-6.72-5.54C82.93,200.51,83,196.5,83,192.51Z"/><path d="M54.42,73.36c-2.3,2.34-4.11,5.08-6.65,6.4-1.44.76-4.68-.16-6.1-1.45-5.52-5-10.66-10.38-15.88-15.69C22.3,59.07,24,56.14,27,53.29s5.77-3.56,9-.26c5,5.1,10.1,10,15.06,15.12C52.19,69.39,52.94,71.07,54.42,73.36Z"/><path d="M150.57,185.25c-2.29-1.32-3.89-1.88-5-2.95-5.27-5.07-10.5-10.2-15.58-15.46-3.34-3.47-2.9-5.87,1.11-9.74,3.08-3,5.89-3.18,9,.07,4.84,5,10,9.73,14.7,14.92,1.42,1.58,2.66,4.85,2,6.45C155.62,181.12,152.8,183,150.57,185.25Z"/><path d="M159.85,57.09c-1.45,2.32-2.16,4-3.36,5.27-5,5.16-10.13,10.14-15.15,15.26-3.48,3.54-6.37,2.21-9.41-.7s-3.89-5.77-.69-9c5.16-5.21,10.21-10.55,15.64-15.46,1.43-1.3,4.58-2.3,6-1.59C155.52,52.13,157.43,54.8,159.85,57.09Z"/></svg>