<svg xmlns="http://www.w3.org/2000/svg" viewBox="0 0 487.73 512.01"><defs><style>.a{fill:#fff;}</style></defs><title>lodge_closed_borderless_wht</title><path class="a" d="M340.54,63.5c6.67,2.92,9.11,8.12,8.77,15.23a101.16,101.16,0,0,0,1,20.13C354.53,92.6,358.6,86.23,363,80.1a11.41,11.41,0,0,1,15.87-3l.07,0c5.24,3.54,6.61,10.15,3.27,15.91-.66,1.15-1.45,2.23-2.19,3.34-4.89,7.34-9.61,14.81-14.75,22-2.13,3-2.21,5.25-.58,8.5q48.85,97.23,97.47,194.59,39.23,78.48,78.35,157c8.31,16.62,16.74,33.18,25.06,49.8,10.48,21,3,39-19.29,46.55-.27.09-.47.43-.7.66H129.51a17.58,17.58,0,0,0-2.16-1c-19.45-6-28-25.63-18.92-43.89Q136.09,474.93,164,419.36,237.25,272.9,310.56,126.5c1.44-2.88,1.48-4.91-.43-7.62-5.66-8-11-16.27-16.42-24.48-4.26-6.49-3.26-13.32,2.39-17.17s12.46-2.27,16.82,4.09c4,5.76,7.79,11.61,12.89,17.37V93.21c0-4.83.23-9.68-.05-14.5-.42-7.1,2.1-12.3,8.78-15.21Zm-15,489V367c0-1.5-.06-3,0-4.49a10.1,10.1,0,0,1,9.82-10c8.7-.61,13.15,3.47,13.15,12.18V552.5h5.84l182-.2c10,0,12.84-4.56,8.31-13.64q-30.75-61.54-61.52-123.08Q463.49,376.28,443.8,337c-3.27-6.53-5.3-14.6-10.43-19s-13.52-5-20.33-7.66c-3.08-1.2-5.26-.55-7.79,1.19-8.09,5.57-16.41,10.82-24.46,16.45-5.64,4-10.9,4.06-16.57.11-7.79-5.43-15.84-10.48-23.63-15.9-2.3-1.6-3.86-1.58-6.16,0-7.93,5.52-16.08,10.7-24.05,16.16-5.35,3.66-10.41,3.57-15.73-.09-8.23-5.66-16.69-11-24.86-16.75a7.94,7.94,0,0,0-8.29-1c-5.28,2-10.84,3.32-16,5.54a13.23,13.23,0,0,0-6.35,5.44Q184.67,429.83,130.51,538.39c-4.71,9.43-2,13.9,8.38,13.91l181,.2Zm71.13-309.69c-.74-1.51-1.3-2.69-1.89-3.86-16.95-33.91-34-67.79-50.77-101.77-1.52-3.06-3.26-3.91-6.48-3.91s-5,.86-6.48,3.92c-11.07,22.53-22.36,45-33.59,67.41-6.31,12.62-12.63,25.23-19.1,38.15,7.13,4.77,14.12,9.23,20.86,14,2.68,1.91,4.51,1.56,7-.19,7.65-5.32,15.55-10.28,23.22-15.57,5.49-3.79,10.68-3.78,16.16,0q11.72,8.06,23.71,15.73c1.29.83,3.69,1.55,4.7.92C381.64,253,389,247.89,396.67,242.81ZM302.61,305.5C312,299.26,321,293.36,330,287.27c5.19-3.54,10.09-3.49,15.25.06,7.68,5.27,15.64,10.16,23.2,15.6,3.14,2.27,5.27,2.08,8.24-.13,5.07-3.77,10.69-6.81,15.68-10.66,7.78-6,15.66-10.22,25.51-4.9a5.31,5.31,0,0,0,.82-.55l-11.45-22.91c-8.92,6-17.59,11.49-26,17.4-6,4.2-11.44,4.33-17.43.09-7.6-5.39-15.52-10.32-23.17-15.64-2.29-1.59-3.93-1.56-6.2,0-7.52,5.22-15.19,10.22-22.81,15.29s-10.45,5-18.16-.13l-25.58-17c-4,8-7.73,15.49-11.93,23.91a30.73,30.73,0,0,0,3.76-1.14c6.79-3.31,12.62-1.79,18.55,2.59C286,294.86,294.25,299.91,302.61,305.5Z" transform="translate(-82.5 -63.5)"/><path class="a" d="M82.5,208.5c4.53-5.92,6.31-6.41,14.55-4,30.09,8.88,58-6.9,64.75-37.39,1.69-7.64,1.17-16,.53-23.86-.69-8.65,6.55-12.44,13.44-8,16.55,10.79,27.41,25.7,30.56,45.31,4,25.12-4,46.19-23.26,62.89-23.26,20.14-58.43,19.19-81-1.71-8.74-8-14.78-17.61-19.57-28.24Zm24.63,15.64c11.28,14.55,26.08,19,43.28,17.28,18.07-1.82,34.34-15.47,38.78-34.58,3.7-15.94,2.87-31.86-9-46.15C171.45,200.23,148.77,222.5,107.13,224.14Z" transform="translate(-82.5 -63.5)"/><path class="a" d="M243.48,116.55a9,9,0,1,1,0-1.69A8.68,8.68,0,0,1,243.48,116.55Z" transform="translate(-82.5 -63.5)"/><path class="a" d="M150.47,350.42a8.87,8.87,0,1,1,0-.26Z" transform="translate(-82.5 -63.5)"/></svg>