<svg xmlns="http://www.w3.org/2000/svg" viewBox="0 0 640 640"><defs><style>.a{fill:#a3b99a;}.b{fill:#667b68;}.c{fill:#fff;}</style></defs><title>sage_bundle_round_color</title><path class="a" d="M319.05,632.25a312.5,312.5,0,0,1-221-533.47A312.5,312.5,0,1,1,540,540.72,310.46,310.46,0,0,1,319.05,632.25Z" transform="translate(0.95 0.25)"/><path class="b" d="M319.05,14.75a305.08,305.08,0,0,1,118.71,586A305.08,305.08,0,0,1,200.33,38.71a303.1,303.1,0,0,1,118.72-24m0-15c-176.73,0-320,143.27-320,320s143.27,320,320,320,320-143.27,320-320-143.27-320-320-320Z" transform="translate(0.95 0.25)"/><path class="c" d="M525.36,179.48c-.75-17-.75-17-12.65-15.14-1.94-5.68-3.74-11-6.41-18.78.14-1.34,2.78-8.43.58-10.6-2.93-2.89-9.64-2-14.16-2.57.37-1.75,1.9-5,1.51-8-.44-3.4-27.9-19.79-31.27-18.75-9.34,2.87-18.5,6.31-27.7,9.61a58.67,58.67,0,0,0-6.63,3c-9.12,4.63-20.51,7.3-26.78,14.45-9.83,11.2-16.08,25.51-24.09,38.36-2.92,4.68-5.6,10.61-10,13-11.81,6.53-25.23,10.29-36.6,17.41a109.23,109.23,0,0,0-26.8,23.84c-11.59,14.46-20.5,31.07-32,45.61-9.51,12-21,22.51-31.88,33.43-7.64,7.68-16.18,14.51-23.41,22.54-5.16,5.72-8.56,13-13.16,19.24-9.41,12.86-20.35,24.79-28.36,38.45C166,400.78,154.67,412.06,135,413.4a59.1,59.1,0,0,0-19.76,5.26c-3.4,1.53-7.64,6.07-7.69,9.31-.18,12.59,1,25.22,2,37.81,1.22,15.47,8.12,22.79,22.8,27.21,6.74,2,12.8,6.31,19.16,9.57h13.16c7.22-10.65,16.17-20.53,21.3-32.1,11.26-25.4,26.68-41.67,56.81-44.89,34.62-3.71,67.73-14.15,91.25-43.51,5.28-6.6,12.67-13.62,20.4-15.76,24.3-6.73,43.31-19,54.93-41.84,3-6,5.71-13.71,10.86-16.83,16.8-10.19,21-32.85,40.72-39.75,1.65-.58,4-3.94,3.52-5-4.67-11.34,5.73-11.47,11.06-14.29,7.19-3.8,15.4-5.64,22.78-9.14,3.17-1.5,5.8-4.75,7.89-7.75,2.31-3.31,3-7.92,5.66-10.77,5.36-5.71,11.91-10.29,17.4-15.89C542.06,191.94,541.26,187.42,525.36,179.48ZM425.05,223.14c-3-1-7.53,2.44-11.36,3.84-.57-1.28-1.14-2.56-1.72-3.84l49.19-23.78c-5.4,27.78-20.78,41.53-37.5,34.22C425.43,229.76,437.84,227.37,425.05,223.14ZM342.29,297.7c-8.6-1-22.63-2.1-34.12-3.48,11.45-15.66,21.85-29.89,32.26-44.11,1,.53,8.54-12.84,9.5-12.31C348,252.43,339.21,277.93,342.29,297.7ZM267,373.94l25.84,3.66c-15,7.32-26.8,13.31-38.8,18.9-12.39,5.77-25,11.15-37.45,16.7l-.87-1,34.49-29.36,5.66,7.41C260,385,271.15,385.75,267,373.94Zm-56.56,35.13c-1.07-18.23,7.66-25.24,26.61-21.1C227.64,395.42,219.52,401.85,210.41,409.07Zm24.22-56.7c6.76-10.18,11.56-25.74,21.37-30.12,13.08-5.86,19-28.15,39.59-17.69-7.16,13.43-13.33,27.11-21.38,39.56C265.06,358.27,252,362.41,234.63,352.37Zm68.49-47.22,2.62,1.15v11.39l19.52-11.11,3.34,5.72-41.83,24.31L284,334.67Zm-13-16.1-3-2.74,55.89-53c1.39,1.44,20.86-13.89,22.24-12.45C343.48,235.14,321.14,284.14,290.16,289.05ZM373,229.24l.22-.1c-.73,3-1.65,7.7-2.5,10,7.75-3.87,25.45-8.1,32.17,6.12-14,5.08-37.87,18.19-50.05,29.09C356.92,258.43,351,237.69,373,229.24Zm12.4-20.87c4.56,18.69,26.59,14.77,35.74,30.14C402.87,245.26,380.78,218.33,385.38,208.37Zm51.78-5.64-22.51-2.58,18.29-21.35-1.79-2-16.66,10.42c2.16-3.56,3.45-8.56,6.6-10.42,17.61-10.34,36.2-17.88,47.86-16.92l-38.24,38.5Zm-11.39,2.09.84,3.24c-8.93,2.9-14.48,19.53-29.08,4.33Zm23.52-6.7c11-17.87,22.32-25.29,32.94-21L469.9,193.66Zm43.08-2.41c-10,17.61-17.19,23.78-30.21,25.19C466,203,474.92,195.78,492.37,195.71Zm-12.13-6.29c10.69-10.85,6.27-30.74,25.1-34.13C505.57,177.92,497.06,189.83,480.24,189.42Zm24.93-52.54L488,163.22l-15.82-16.74Zm-46.66,16.47c-6.24,4-16.33,2.14-25.22,2.9,8.57-28.74,25.29-38.71,41.52-25.13C469.53,138.76,465.72,148.67,458.51,153.35Zm10.28-42-39.2,26.13C427.9,119.26,447.5,111.62,468.79,111.34Zm-37,32.44c-2.91,6.81-4.42,11.34-6.67,15.47-7.78,14.26-16.21,28.19-23.63,42.64-5.68,11-10.1,5.86-14.59.67l12.23-9.76-1-3.37-14,1C399.86,175.09,407.89,154.15,431.84,143.78Zm-36.63,13.49c13.19-4,19.17-15.68,11.45-25.17l21.26-10.73c-7.57,29.66-33.08,41.44-45.78,65C379.43,176.25,388.36,159.33,395.21,157.27Zm-29.88,35.31c4.62-1.31,9.87-7.85,9.87-7.85,7.46.66,2.64,13.78,2.65,20.09s6.77,22.38,6.77,22.38-11.39-4.34-9.42-9.76S360.72,193.9,365.33,192.58Zm0,9c-14.78,5.72-38.89,17-53.39,22.58C322.21,208.92,346.25,197.48,365.33,201.61Zm-66.14,40.9,2.14,1.13-4.8,9.76c17.64-1.67,23.83-9.67,15.2-22.05l35.2-15.74c1,.89,17.37-8.19,18.4-7.3-2.52,3.93-19.7,18.52-23,21.65-17.24,16.43-34.93,32.38-52.26,48.71-5.63,5.31-10.22,12.76-20.21,4.94ZM220.61,341.4c4-1.74,9.39-3,11.29-6.2,1.26-2.11-2.59-7.24-4.48-11.8,19.27-21.94,31.37-28.09,43.06-23.69-10.61,12.35-22.78,24-31.81,37.71-9.77,14.83-8.49,15.67-27.21,11.14l-1.22-3.63C213.7,343.77,217.26,342.84,220.61,341.4Zm-100.33,81c10.09-1.11,21.38-10.79,31.43,2.44l-40.31,8.73C115.7,427.9,117.72,422.65,120.28,422.37Zm-7.88,18.12,55.53-14,1.55,4.15L130.6,450l-5.54-10.83-11.39,5.72C113.25,443.4,112.82,441.94,112.4,440.49Zm32.12,50.86,22.55-21.13c-.91,4.47-1.49,7.31-2.29,11.29l11.71-7.08C170.71,496.39,162.76,500.5,144.52,491.35Zm26.86-33.75c-5.38,5.61-11.36,10.66-17.07,15.95q-.87-2.31-1.75-4.62l-24.6,12,1.59,3.69L148.72,479c-14.92,15.1-25.46,11.56-34.07-12.05l55.52-30.41C179.9,443.7,177.85,450.84,171.38,457.6Zm-10.87-44.4c10.58,3.25,15.9,5.83,19.19,7.8s7.13,29,7.13,29C185.12,435,160.51,413.2,160.51,413.2Zm33.64,31.87,0,.29,0-.29c-.33-2.7-3-23.89-7.9-27.16-5.23-3.49-19.72-8.84-19.72-8.84l2.95-6.5s19.44,3.49,24.7,10.63S203,431.58,203,431.58,193.2,437.54,194.15,445.07Zm-5.23-39.87c-3.95.66-1.32-15.7,0-18.38S200.76,364,200.76,364s18.44-4.34,18.44,0-4.11,10.92-9.63,13.56S192.86,404.55,188.92,405.2Zm96.61,4.55c-4.75,1.6-10.89-1.18-15.82.16C250,415.26,230.57,421.44,211,427.32c-.49-1.13-1-2.26-1.46-3.38,8.49-4.43,16.89-9,25.46-13.26q29.62-14.65,59.4-29c3-1.42,8.77-3.25,9.28-2.42,7.32,11.78,29-18.56,38.58-22.82C330.72,374,302,404.19,285.53,409.75Zm35.16-53.56c-13.89-1.33-24,13.61-38.37,5.26.9-7.78,25.42,7.48,14.89-14l-30,15c-.58-1.16-1.17-2.31-1.76-3.47,19.62-18.52,54.37-36.46,80.1-44.34C349.26,330.07,338.64,357.9,320.69,356.19ZM385,273.49l-2.41-3.62-29.79,18.92c3.93-16.29,39.36-36,63.94-32.24L396.6,277.42c13.84,7.93,16.35-19.08,31.26-11.1-25.53,28.81-44.41,36.86-78,32.21Zm-31.9,83c-7.58-17.93-.85-29.73,11.58-39.5q-3,6.11-5.89,12.21L362,331.4l15.13-16.7,3.59,3.11Zm7,.93,27-40.31,3.19,1.89V333.4l14.42-16.5C401.12,335.55,380.46,353.76,360.1,357.4Zm31.46-55.22L416.5,285.7C406.77,308.21,406.77,308.21,391.56,302.18Zm26.18,2.18-3-2.09,18.28-34,9,7.72C433.64,285.79,425.69,295.07,417.74,304.36Zm27.9-36.62c-5.27-3.4-19.4-18.14-33.57-19.33,0,0,19.16-3,23.4-.79s21.36,10.13,21.36,13.42S450.91,271.15,445.64,267.74Zm2.4-19.33-12.57-6.55,25-14.66Zm17.75-1.95c-7.69-6.6-7.42-11.47,3.73-13.05,8.87-1.25,17.82-1.93,26.74-2.86l.54,3.81Zm37.36-28,7.28-8.86-21.74,5.73c3.91-9.07,6-17.2,10.64-23.44,2.94-4,9.54-6.75,14.73-7.15,5.93-.46,12.11,2.3,21.81,4.47Z" transform="translate(0.95 0.25)"/></svg>