<svg xmlns="http://www.w3.org/2000/svg" viewBox="0 0 640 640"><defs><style>.a{fill:#a3b99a;}.b{fill:#667b68;}.c{fill:#fff;}</style></defs><title>sage_bundle_square_color</title><rect class="a" x="7.5" y="7.5" width="625" height="625" rx="92.5"/><path class="b" d="M539.05,15.25a85.29,85.29,0,0,1,85,85v440a85.29,85.29,0,0,1-85,85h-440a85.29,85.29,0,0,1-85-85v-440a85.29,85.29,0,0,1,85-85h440m0-15h-440c-55,0-100,45-100,100v440c0,55,45,100,100,100h440c55,0,100-45,100-100v-440c0-55-45-100-100-100Z" transform="translate(0.95 -0.25)"/><path class="c" d="M567,170.35c-.89-20.16-.89-20.16-15.05-18-2.3-6.74-4.44-13-7.61-22.32.16-1.6,3.31-10,.69-12.61-3.49-3.43-11.47-2.31-16.84-3,.44-2.08,2.26-6,1.79-9.53-.52-4-33.16-23.54-37.18-22.3C481.68,86,470.78,90,459.85,94A67.9,67.9,0,0,0,452,97.51c-10.84,5.5-24.37,8.68-31.83,17.18C408.44,128,401,145,391.48,160.29c-3.47,5.57-6.65,12.62-11.89,15.52-14,7.76-30,12.23-43.52,20.7a129.94,129.94,0,0,0-31.86,28.34c-13.78,17.2-24.38,36.94-38.06,54.23-11.31,14.3-25,26.76-37.9,39.74-9.08,9.13-19.24,17.25-27.84,26.8-6.12,6.8-10.17,15.42-15.63,22.87-11.2,15.29-24.2,29.48-33.72,45.72-11.29,19.25-24.81,32.66-48.22,34.25a70.36,70.36,0,0,0-23.5,6.25c-4,1.83-9.08,7.22-9.14,11.07-.21,15,1.19,30,2.37,45,1.45,18.39,9.64,27.09,27.1,32.35,8,2.42,15.22,7.5,22.79,11.38H138.1c8.58-12.66,19.23-24.4,25.32-38.16,13.38-30.2,31.72-49.55,67.54-53.38,41.16-4.4,80.52-16.81,108.48-51.72,6.29-7.84,15.07-16.2,24.26-18.74,28.89-8,51.49-22.57,65.3-49.75,3.63-7.12,6.79-16.29,12.91-20,20-12.11,25-39,48.43-47.26,2-.69,4.7-4.68,4.18-5.94-5.55-13.48,6.81-13.64,13.14-17,8.55-4.52,18.31-6.71,27.09-10.87,3.77-1.79,6.9-5.64,9.38-9.21,2.74-3.94,3.55-9.42,6.73-12.8,6.37-6.79,14.16-12.24,20.69-18.9C586.82,185.16,585.87,179.79,567,170.35ZM447.71,222.26c-3.6-1.2-8.95,2.9-13.5,4.57l-2-4.57L490.64,194c-6.43,33-24.71,49.38-44.58,40.69C448.16,230.13,462.92,227.29,447.71,222.26ZM349.32,310.9c-10.23-1.22-26.91-2.5-40.57-4.14l38.35-52.44c1.14.63,10.16-15.26,11.3-14.63C356.09,257.08,345.65,287.39,349.32,310.9Zm-89.55,90.65,30.72,4.35c-17.81,8.7-31.86,15.82-46.13,22.46-14.73,6.86-29.67,13.26-44.52,19.86l-1-1.21,41-34.91,6.72,8.82C251.49,414.65,264.73,415.59,259.77,401.55Zm-67.24,41.77c-1.28-21.68,9.1-30,31.63-25.09Zm28.79-67.42c8-12.1,13.74-30.6,25.4-35.81,15.55-7,22.65-33.47,47.07-21-8.5,16-15.84,32.22-25.41,47C257.5,382.92,241.91,387.83,221.32,375.9Zm81.43-56.13,3.11,1.36v13.55l23.21-13.22,4,6.8-49.73,28.9-3.35-2.3Q291.36,337.31,302.75,319.77Zm-15.42-19.15-3.51-3.25,66.45-63c1.65,1.71,24.8-16.51,26.44-14.8C350.73,236.53,324.16,294.79,287.33,300.62Zm98.47-71.1.26-.13c-.87,3.59-2,9.15-3,11.89,9.22-4.6,30.26-9.62,38.25,7.28-16.68,6-45,21.62-59.5,34.59C366.7,264.22,359.65,239.56,385.8,229.52Zm14.74-24.82c5.42,22.23,31.62,17.56,42.5,35.83C421.34,248.56,395.07,216.54,400.54,204.7ZM462.11,198l-26.77-3.06,21.75-25.39L455,167.15l-19.8,12.39c2.56-4.22,4.1-10.18,7.84-12.38,20.94-12.3,43-21.26,56.9-20.12l-45.46,45.77Zm-13.55,2.49c.33,1.29.67,2.57,1,3.85-10.61,3.45-17.21,23.22-34.57,5.15Zm28-8c13.12-21.24,26.54-30.07,39.16-24.93L501,187.21Zm51.22-2.86c-12,20.94-20.44,28.27-35.93,29.95C496.37,198.29,507,189.73,527.75,189.65Zm-14.43-7.48c12.72-12.9,7.45-36.54,29.84-40.58C543.44,168.5,533.32,182.66,513.32,182.17ZM543,119.7,522.59,151l-18.8-19.9Zm-55.47,19.59c-7.42,4.8-19.42,2.54-30,3.45,10.18-34.18,30.07-46,49.36-29.88C500.59,121.94,496.06,133.73,487.49,139.29Zm12.22-49.95-46.6,31.07C451.09,98.76,474.39,89.67,499.71,89.34Zm-43.93,38.57c-3.46,8.1-5.26,13.48-7.93,18.39-9.25,17-19.27,33.52-28.1,50.69-6.75,13.14-12,7-17.34.8L417,186.19l-1.23-4-16.68,1.19C417.76,165.13,427.3,140.24,455.78,127.91Zm-43.55,16c15.68-4.71,22.79-18.64,13.61-29.92l25.28-12.77c-9,35.27-39.32,49.27-54.43,77.35C393.47,166.51,404.08,146.4,412.23,144Zm-35.52,42c5.49-1.56,11.74-9.34,11.74-9.34,8.86.79,3.13,16.39,3.14,23.89s8.05,26.6,8.05,26.6-13.54-5.15-11.19-11.6S371.23,187.5,376.71,185.93Zm0,10.74c-17.58,6.79-46.24,20.17-63.48,26.83C325.44,205.35,354,191.75,376.71,196.67Zm-78.64,48.62,2.55,1.35-5.71,11.59c21-2,28.33-11.49,18.07-26.2l41.85-18.72c1.23,1.06,20.66-9.75,21.88-8.69-3,4.68-23.42,22-27.33,25.75-20.5,19.53-41.53,38.49-62.14,57.91-6.69,6.32-12.15,15.17-24,5.88C275,277.67,286.52,261.48,298.07,245.29ZM204.65,362.86c4.8-2.07,11.17-3.58,13.43-7.38,1.49-2.5-3.09-8.6-5.34-14,22.91-26.09,37.3-33.4,51.2-28.16-12.61,14.67-27.08,28.52-37.82,44.83-11.61,17.63-10.09,18.63-32.35,13.24l-1.45-4.32C196.44,365.68,200.67,364.57,204.65,362.86ZM85.36,459.12c12-1.32,25.43-12.83,37.38,2.9L74.81,472.4C79.93,465.69,82.32,459.46,85.36,459.12ZM76,480.66,142,464l1.84,4.93-46.23,23-6.58-12.87-13.54,6.8Zm38.19,60.47L141,516l-2.73,13.42L152.2,521C145.32,547.13,135.87,552,114.19,541.13ZM146.13,501c-6.4,6.68-13.51,12.68-20.31,19l-2.07-5.49L94.49,528.7q1,2.19,1.9,4.38l22.79-6.69c-17.74,18-30.26,13.75-40.5-14.33l66-36.15C156.25,484.49,153.82,493,146.13,501Zm-12.94-52.78c12.59,3.86,18.91,6.93,22.82,9.28s8.48,34.43,8.48,34.43C162.46,474.16,133.19,448.22,133.19,448.22Zm40,37.89c0,.22,0,.34,0,.34s0-.22,0-.34c-.38-3.21-3.57-28.4-9.39-32.28-6.22-4.16-23.44-10.51-23.44-10.51l3.5-7.74s23.11,4.15,29.37,12.64,10.5,21.86,10.5,21.86S172.06,477.15,173.19,486.11ZM167,438.72c-4.7.78-1.57-18.68,0-21.86s14.09-27.13,14.09-27.13,21.91-5.17,21.91,0-4.88,13-11.44,16.12S171.66,437.93,167,438.72Zm114.86,5.4c-5.64,1.9-12.94-1.4-18.8.19-23.41,6.36-46.54,13.71-69.77,20.7-.58-1.34-1.15-2.69-1.73-4,10.08-5.26,20.07-10.71,30.27-15.75q35.2-17.43,70.62-34.45c3.51-1.68,10.42-3.86,11-2.87,8.69,14,34.48-22.07,45.87-27.14C335.55,401.57,301.43,437.51,281.83,444.12Zm41.81-63.68c-16.52-1.58-28.58,16.18-45.62,6.26,1.07-9.25,30.22,8.89,17.7-16.62L260.09,388,258,383.83c23.33-22,64.63-43.34,95.23-52.72C357.6,349.39,345,382.48,323.64,380.44Zm76.48-98.32q-1.44-2.14-2.87-4.31l-35.42,22.5c4.68-19.37,46.8-42.77,76-38.33l-24,24.82c16.46,9.42,19.45-22.69,37.17-13.21-30.35,34.26-52.81,43.83-92.77,38.3Zm-37.93,98.65c-9-21.31-1-35.34,13.77-47l-7,14.52,3.82,2.64,18-19.86,4.27,3.7Zm8.29,1.11L402.59,334l3.79,2.24v17.14l17.14-19.6C419.26,355.91,394.7,377.56,370.48,381.88Zm37.41-65.65,29.65-19.59C426,323.4,426,323.4,407.89,316.23ZM439,318.82l-3.56-2.49,21.73-40.39,10.68,9.18C457.92,296.74,448.47,307.78,439,318.82Zm33.18-43.53c-6.26-4.05-23.06-21.57-39.91-23,0,0,22.77-3.59,27.82-.93s25.39,12,25.39,15.95S478.45,279.34,472.19,275.29Zm2.85-23-14.94-7.79,29.77-17.43ZM496.15,250c-9.15-7.85-8.82-13.64,4.43-15.52,10.55-1.49,21.19-2.29,31.79-3.4l.65,4.53Zm44.41-33.25,8.65-10.53L523.37,213c4.65-10.79,7.14-20.45,12.64-27.87,3.51-4.72,11.35-8,17.52-8.5,7.05-.55,14.4,2.73,25.93,5.32Z" transform="translate(0.95 -0.25)"/></svg>