<svg xmlns="http://www.w3.org/2000/svg" viewBox="0 0 500 500"><defs><style>.a{fill:#fff;}</style></defs><title>shell_round_b&amp;amp;w</title><path class="a" d="M250.34,495A245,245,0,0,1,77.1,76.76,245,245,0,1,1,423.58,423.24,243.35,243.35,0,0,1,250.34,495Z" transform="translate(-0.34)"/><path d="M250.34,10a240.06,240.06,0,0,1,93.42,461.14A240,240,0,0,1,80.64,80.29,239.28,239.28,0,0,1,250.34,10m0-10C112.27,0,.34,111.93.34,250s111.93,250,250,250,250-111.93,250-250S388.41,0,250.34,0Z" transform="translate(-0.34)"/><path d="M360.86,191.77c-4.53-8.78-90.72-78.54-111.08-80.62-24.47-2.51-92.84,53.17-96.59,61.16s-21.92,84.12-11.61,134.15c4.48,21.75,93.66,75.35,118.91,71.85,32.61-4.52,89.49-42.66,96.24-53.43S365,199.77,360.86,191.77Zm-19.39,78.68c-6.14,6.07-30.63,2.34-39.2-2.34s-20.17-8.41-19.79-17.59c.21-5.05,4.11-12.29,12-17.67,5.77-3.91,13.68-6.84,23.86-7.24,13.82-.53,22.2-10.81,26.23-6.76S347.61,264.38,341.47,270.45ZM230.3,258.23c9.61-1.79,32.36-3.42,36.89,1.25s20,11.83,20,18.37-16.79,21.09-23.55,25.07c-3.16,1.86-25.57,4.26-30.23.94-6.55-4.68-20.27-14.8-20.27-20.61C213.17,277.85,223.28,259.54,230.3,258.23Zm-21.28-38c0-5.4,11.06-17.71,16.74-21.75,3.53-2.5,38.29-3.73,42.82.94s14.49,15.41,14.49,21.95-15.26,20.3-22,24.29c-3.15,1.85-27.21,2.38-31.87-.94C222.62,240.09,209,226.08,209,220.27Zm132.81-28.38c3,7.94-12.36,16-18.4,17.84s-20.65,8.88-28.71,7S280.5,202,283.07,196.3s10.42-6.55,19.69-25.3C306.92,162.6,338.81,184,341.83,191.89ZM217.36,163a82.36,82.36,0,0,1,15.16-22c10.58-10.79,15.12-10.79,21.41-10.79s37,21.11,38,32.79-10.08,29-16.63,24.75-36.77-10.27-51.38-6.07C214.83,184.3,214.76,165.8,217.36,163Zm-27.15-3.7c5,2.34,21,25.2,23,31.27S204,215.34,198.5,219.07s-36.82-9.18-36.8-24.75C161.71,188.23,185.17,157,190.21,159.31ZM161.7,221.74c6-7.56,30.25,1.54,34.28,6.67s17.71,16.35,17.42,22.89-7.34,22.89-15.4,27.56-34.76,4.2-38.29,0S156.64,228.13,161.7,221.74Zm31.91,102.67c-3.91,8.07-24.57,1-31.91-9.71-3.54-5.19-5.3-14.92-4.28-21.36.73-4.58,35.54-7.48,41.59-5.14s18.2,12.67,16.15,17.31S197.3,316.81,193.61,324.41Zm97.64,18c-1.44,7.47-26.43,20.48-35.82,20.75-16.43.47-49.88-21.69-52.9-28.23S218.65,315.29,224.7,319s48.86-3.27,54-7S292.7,334.9,291.25,342.38Zm58.37-37.68c-.5,4.21-29.08,29.61-37.65,28.85s-19.71-23.24-20.72-31.18c-.93-7.34.16-11.21,4.72-17.05,3.55-4.53,10.6-4.32,18.78-2s21.08,7.16,26.72,5.18S350.13,300.5,349.62,304.7Zm29.5-114.51c0,.09-.14-.15-.38-.49s-.53-.73-.84-1.14c-.65-.83-1.35-1.7-2.12-2.59-1.52-1.76-3.14-3.56-4.84-5.3-3.39-3.51-6.93-7-10.59-10.32-7.27-6.76-15-13.14-22.79-19.31-15.63-12.35-32-23.73-48.29-34.18-8.14-5.16-16.28-10.13-24.21-14.17a94.71,94.71,0,0,0-11.33-5,33.83,33.83,0,0,0-4.67-1.33c-.63-.12-1.18-.21-1.61-.26-.21,0-.33,0-.5,0s.11,0,.26,0l.46,0a1,1,0,0,0,.26,0l-.14,0-.34.07-1,.25c-.77.22-1.71.46-2.66.77-1.92.59-4,1.34-6.13,2.15-4.28,1.55-8.66,3.4-13.09,5.21-8.84,3.73-17.78,7.68-26.66,11.8-17.66,8.32-35.34,17.52-50.24,29.41a89.3,89.3,0,0,0-10.13,9.5,37.42,37.42,0,0,0-6.89,10.21l-.26.63-.31.82c-.21.54-.38,1.1-.57,1.66l-1.07,3.41c-.7,2.3-1.28,4.66-1.87,7-1.09,4.77-2,9.61-2.72,14.52a291.16,291.16,0,0,0-2.62,29.7c-.45,9.94-.66,19.87-.89,29.73s-.1,19.68.5,29.27c.35,4.78.82,9.51,1.51,14a68.67,68.67,0,0,0,2.81,12.28,13.91,13.91,0,0,0,1.75,3.62,40.88,40.88,0,0,0,3,4,126.6,126.6,0,0,0,9.19,9.61c6.75,6.45,14.21,12.65,21.75,18.71s15.43,11.81,23.35,17.42,16,10.91,24.18,15.83a216.18,216.18,0,0,0,24.46,13.19,98.79,98.79,0,0,0,11.58,4.42,23.71,23.71,0,0,0,7.51,1.29,29.7,29.7,0,0,0,4.47-.86c1.81-.46,3.77-1.06,5.79-1.75,4.07-1.36,8.31-3,12.56-4.88,8.55-3.64,17.17-7.86,25.71-12.28s17-9.15,25.34-14.09S342.3,352.53,350,346.93s15.06-11.59,20.88-18a40.13,40.13,0,0,0,6.63-9.4,36.79,36.79,0,0,0,2-5.64c.57-2.2,1.09-4.48,1.57-6.82a235.1,235.1,0,0,0,3.32-29.33c.61-10,1-20,1-30s-.43-20-1.42-30c-.42-5-1.09-9.89-1.81-14.74-.38-2.41-.82-4.82-1.33-7.09A31.35,31.35,0,0,0,379.12,190.19Zm14.45-5.87a44.84,44.84,0,0,1,1.94,9c.38,2.71.59,5.32.84,7.92.51,5.2.75,10.34,1.11,15.45l1.66,30.62c1.13,20.46,2,40.68,1.26,61.9-.11,2.68-.27,5.41-.54,8.2a58.39,58.39,0,0,1-1.58,9.09A61.56,61.56,0,0,1,390,343.4a167.33,167.33,0,0,1-21.51,25.21,308.78,308.78,0,0,1-49.91,39.45,270.76,270.76,0,0,1-28.11,15.69c-5,2.32-10.06,4.53-15.54,6.53-2.74,1-5.6,1.91-8.68,2.74a67.2,67.2,0,0,1-10.41,2,44.82,44.82,0,0,1-6.56.21,51.64,51.64,0,0,1-5.85-.56,75.71,75.71,0,0,1-10-2.27A118.32,118.32,0,0,1,216.78,426a254.21,254.21,0,0,1-28.64-16.06,412.22,412.22,0,0,1-50.07-38.69,319.17,319.17,0,0,1-22.76-22.49,158.13,158.13,0,0,1-10.83-13.16A65.22,65.22,0,0,1,99.12,327a44.79,44.79,0,0,1-3.63-10.53,103.08,103.08,0,0,1-2.1-17.61c-.25-5.56-.2-10.94,0-16.26.3-10.64,1.1-21,2.28-31.36,2.26-20.66,7-40.78,11.53-60.92l3.53-15.16c.59-2.55,1.25-5.09,1.91-7.66l1-3.87.57-2,.28-1,.4-1.15a60.9,60.9,0,0,1,8.79-15.6,141,141,0,0,1,10.74-12.48,285.22,285.22,0,0,1,23.33-21.74q12-10.24,24.9-19.38a271.7,271.7,0,0,1,26.74-17c4.65-2.63,9.48-5,14.54-7.32,2.55-1.12,5.17-2.21,8-3.26,1.44-.52,2.9-1.06,4.57-1.52a48.1,48.1,0,0,1,5.9-1.35l2.14-.26,1.41-.09c.46,0,1,0,1.2,0,1.09,0,2.25.06,3.29.15a53.22,53.22,0,0,1,5.89.83,65.85,65.85,0,0,1,9.87,2.92,104.31,104.31,0,0,1,16.14,7.8,194,194,0,0,1,26.53,19c16.25,13.64,30.5,28.76,44.38,44.05,6.91,7.68,13.66,15.47,20.37,23.33,3.33,4,6.67,7.9,9.93,12,1.62,2.07,3.27,4.13,4.88,6.33.81,1.1,1.62,2.25,2.44,3.48.41.63.82,1.28,1.25,2A23.6,23.6,0,0,1,393.57,184.32Z" transform="translate(-0.34)"/></svg>