<svg xmlns="http://www.w3.org/2000/svg" viewBox="0 0 500 500"><defs><style>.a{fill:#fff;}</style></defs><title>shell_square_w&amp;amp;b</title><rect x="5" y="5" width="490" height="490" rx="45"/><path class="a" d="M450,10a40,40,0,0,1,40,40V450a40,40,0,0,1-40,40H50a40,40,0,0,1-40-40V50A40,40,0,0,1,50,10H450m0-10H50A50.15,50.15,0,0,0,0,50V450a50.15,50.15,0,0,0,50,50H450a50.15,50.15,0,0,0,50-50V50A50.15,50.15,0,0,0,450,0Z"/><path class="a" d="M377.67,187.89c-5.05-9.79-101.15-87.57-123.85-89.9-27.29-2.79-103.52,59.29-107.7,68.2s-24.45,93.8-13,149.58c5,24.25,104.44,84,132.6,80.11,36.36-5,99.78-47.56,107.3-59.57S382.27,196.8,377.67,187.89Zm-21.62,87.73c-6.85,6.77-34.16,2.6-43.71-2.61s-22.48-9.38-22.07-19.62c.23-5.63,4.58-13.7,13.44-19.7,6.44-4.36,15.26-7.63,26.61-8.07,15.41-.59,24.75-12.05,29.24-7.54S362.89,268.85,356.05,275.62ZM232.1,262c10.71-2,36.07-3.81,41.13,1.4s22.33,13.19,22.33,20.48-18.72,23.51-26.26,27.95c-3.52,2.07-28.51,4.75-33.7,1-7.31-5.2-22.6-16.49-22.6-23C213,283.87,224.27,263.45,232.1,262Zm-23.73-42.32c0-6,12.33-19.75,18.67-24.25,3.93-2.8,42.68-4.17,47.74,1s16.16,17.18,16.16,24.47-17,22.65-24.57,27.08c-3.52,2.08-30.34,2.67-35.53-1C223.53,241.77,208.37,226.14,208.37,219.67ZM356.46,188c3.37,8.85-13.79,17.81-20.53,19.89s-23,9.9-32,7.82-15.86-16.42-13-22.79,11.61-7.31,21.95-28.21C317.53,155.36,353.09,179.16,356.46,188Zm-138.79-32.2a91.64,91.64,0,0,1,16.9-24.53c11.8-12,16.86-12,23.88-12s41.22,23.54,42.35,36.56-11.24,32.28-18.54,27.6-41-11.46-57.29-6.77C214.85,179.56,214.77,158.93,217.67,155.82Zm-30.28-4.12c5.62,2.6,23.43,28.09,25.61,34.86s-10.18,27.6-16.36,31.77-41.06-10.24-41-27.6C155.62,183.94,181.77,149.09,187.39,151.7Zm-31.78,69.6c6.66-8.42,33.73,1.72,38.22,7.45s19.75,18.22,19.42,25.51-8.19,25.52-17.17,30.73-38.76,4.69-42.69,0S150,228.43,155.61,221.3Zm35.58,114.48c-4.36,9-27.41,1.12-35.58-10.83-4-5.78-5.91-16.63-4.77-23.82.8-5.1,39.62-8.33,46.36-5.72s20.3,14.13,18,19.3S195.29,327.31,191.19,335.78Zm108.87,20c-1.62,8.33-29.48,22.84-39.94,23.13-18.32.52-55.62-24.18-59-31.47s18-21.87,24.72-17.7S280.33,326.13,286,322,301.67,347.48,300.06,355.82Zm65.08-42c-.56,4.68-32.43,33-42,32.16s-22-25.91-23.1-34.77c-1-8.17.17-12.5,5.25-19,4-5.06,11.82-4.82,20.94-2.28s23.51,8,29.8,5.78S365.7,309.12,365.14,313.81ZM398,186.13c0,.1-.14-.17-.41-.55s-.59-.82-.94-1.27c-.72-.93-1.51-1.9-2.36-2.89-1.69-2-3.5-4-5.4-5.91-3.78-3.91-7.73-7.78-11.81-11.51-8.11-7.53-16.69-14.65-25.41-21.53C334.27,128.7,316,116,297.84,104.36c-9.07-5.76-18.15-11.29-27-15.8A106.18,106.18,0,0,0,258.22,83,36.59,36.59,0,0,0,253,81.49c-.7-.14-1.32-.25-1.79-.3-.24,0-.37,0-.56,0s.13,0,.29,0a4.4,4.4,0,0,0,.51-.05,1.17,1.17,0,0,0,.29,0l-.15,0-.39.08-1.12.28c-.85.24-1.9.52-3,.85-2.15.67-4.49,1.5-6.84,2.4-4.78,1.74-9.65,3.79-14.6,5.82-9.85,4.15-19.82,8.55-29.72,13.15-19.7,9.28-39.41,19.53-56,32.79a100.39,100.39,0,0,0-11.3,10.59A42.07,42.07,0,0,0,121,158.44l-.29.7-.34.91c-.23.6-.43,1.23-.64,1.86l-1.2,3.8c-.78,2.56-1.42,5.2-2.08,7.84-1.22,5.31-2.29,10.72-3,16.19a320.79,320.79,0,0,0-2.92,33.11c-.5,11.09-.74,22.16-1,33.15s-.11,21.95.57,32.64c.38,5.33.91,10.6,1.68,15.64a77.17,77.17,0,0,0,3.13,13.7,15.46,15.46,0,0,0,2,4,47.7,47.7,0,0,0,3.39,4.46,143.79,143.79,0,0,0,10.25,10.72c7.52,7.19,15.84,14.1,24.25,20.86s17.21,13.16,26,19.42,17.86,12.17,27,17.66A242.82,242.82,0,0,0,235,409.83a109.57,109.57,0,0,0,12.91,4.93,26.84,26.84,0,0,0,8.37,1.44,33.16,33.16,0,0,0,5-1c2-.52,4.21-1.18,6.47-2,4.53-1.51,9.26-3.39,14-5.44,9.53-4.06,19.14-8.76,28.67-13.69s19-10.2,28.25-15.71,18.37-11.31,27-17.55,16.79-12.92,23.28-20.11a45,45,0,0,0,7.39-10.48,39.89,39.89,0,0,0,2.19-6.3c.64-2.44,1.22-5,1.75-7.6a263.23,263.23,0,0,0,3.71-32.71c.67-11.09,1.08-22.27,1.06-33.44s-.48-22.35-1.58-33.41c-.47-5.54-1.22-11-2-16.44-.42-2.69-.92-5.37-1.48-7.9A34.93,34.93,0,0,0,398,186.13Zm16.12-6.55a49,49,0,0,1,2.16,10c.43,3,.66,5.92.94,8.83.57,5.79.83,11.52,1.24,17.23l1.85,34.14c1.26,22.81,2.21,45.36,1.4,69-.12,3-.3,6-.6,9.15a64.68,64.68,0,0,1-1.76,10.13c-2.17,7.51-5.62,13.41-9.16,18.85-7.25,10.72-15.46,19.65-24,28.11a344.92,344.92,0,0,1-55.66,44,299.4,299.4,0,0,1-31.34,17.49c-5.54,2.59-11.22,5.06-17.32,7.29-3.07,1.1-6.26,2.13-9.69,3.05a74.13,74.13,0,0,1-11.6,2.26,49.63,49.63,0,0,1-7.32.24,55.9,55.9,0,0,1-6.52-.63,84.62,84.62,0,0,1-11.12-2.52A131.79,131.79,0,0,1,217,449a284.82,284.82,0,0,1-31.94-17.91A458.35,458.35,0,0,1,129.26,388a354.49,354.49,0,0,1-25.38-25.07,176.2,176.2,0,0,1-12.07-14.68,73.18,73.18,0,0,1-6-9.59,50.8,50.8,0,0,1-4-11.74,116,116,0,0,1-2.35-19.64c-.27-6.19-.22-12.2,0-18.13.34-11.86,1.24-23.46,2.55-35,2.51-23,7.79-45.47,12.85-67.92l3.94-16.91c.65-2.84,1.39-5.67,2.12-8.54l1.17-4.31.64-2.18.31-1.09.44-1.29c2.46-6.89,6.1-12.31,9.81-17.39a155,155,0,0,1,12-13.93,319.92,319.92,0,0,1,26-24.23Q164.64,85,179,74.77a301.35,301.35,0,0,1,29.82-18.93c5.19-2.92,10.57-5.57,16.21-8.16,2.85-1.25,5.77-2.46,8.95-3.63,1.61-.58,3.24-1.18,5.1-1.7a53.6,53.6,0,0,1,6.58-1.5l2.38-.29,1.57-.09c.52,0,1.13,0,1.35,0,1.22,0,2.5.06,3.66.16a59.72,59.72,0,0,1,6.57.93,74.78,74.78,0,0,1,11,3.25,116.66,116.66,0,0,1,18,8.7,218.07,218.07,0,0,1,29.58,21.2c18.12,15.2,34,32.06,49.48,49.12,7.71,8.56,15.23,17.25,22.71,26,3.71,4.42,7.44,8.82,11.07,13.41,1.81,2.31,3.65,4.6,5.45,7.06.9,1.22,1.8,2.5,2.71,3.88.46.7.92,1.42,1.4,2.25A25.45,25.45,0,0,1,414.14,179.58Z"/></svg>