<svg xmlns="http://www.w3.org/2000/svg" viewBox="0 0 640 640"><defs><style>.a{fill:#fff;}.b{fill:#010101;}</style></defs><title>smudge_round_b&amp;amp;w</title><path class="a" d="M320,632.25A312.5,312.5,0,0,1,99,98.78,312.5,312.5,0,1,1,541,540.72,310.46,310.46,0,0,1,320,632.25Z" transform="translate(0 0.25)"/><path class="b" d="M320,14.75a305.09,305.09,0,0,1,118.72,586A305.09,305.09,0,0,1,201.28,38.71,303.13,303.13,0,0,1,320,14.75m0-15C143.27-.25,0,143,0,319.75s143.27,320,320,320,320-143.27,320-320S496.73-.25,320-.25Z" transform="translate(0 0.25)"/><path d="M508.8,513.28l-.85-1.79c-.32-.55-.68-1.06-1-1.59l-1.07-1.57L504.66,507A48.18,48.18,0,0,0,494,498.09,118.86,118.86,0,0,0,470.17,487c-16.3-5.68-33-9.27-49.8-11.89s-33.69-4-50.57-4.94-33.75-1.37-50.65-2.61c-8.46-.39-16.92-.73-25.41-.89s-17-.41-25.48,0c-4.24.15-8.48.54-12.71.89s-8.46.93-12.68,1.5c-8.43,1.13-16.84,2.56-25.18,4.37a386,386,0,0,0-49.41,13.71c-4.07,1.4-8.08,3-12.08,4.69s-8,3.47-12,5.54a55.94,55.94,0,0,0-11.78,7.65,26.76,26.76,0,0,0-5.15,6.19l-1.06,1.92-.81,2.18a20.67,20.67,0,0,0-1,4.73,21.19,21.19,0,0,0,.42,4.86c.17.78.36,1.57.57,2.34l.87,2.11a30.3,30.3,0,0,0,4.56,7.12,56.31,56.31,0,0,0,11.17,9.67,124.91,124.91,0,0,0,24.08,12.49,192.16,192.16,0,0,0,25,8,210.38,210.38,0,0,0,25.44,4.75c8.54,1.06,17.11,1.57,25.64,2,8,.41,15.91.75,23.85.84,25,4.2,50.19,4.48,75.22,4.82,13.23.17,26.47,0,39.78-.36s26.6-1.49,40.06-2.77a177.18,177.18,0,0,0,20.17-3.18c3.37-.68,6.51-2.35,9.64-3.94s6.24-3.33,9.23-5.29a107.19,107.19,0,0,0,17-13.44c1.29-1.27,2.56-2.57,3.76-4l5.27-2.18c1-.37,1.94-.89,2.93-1.3s2-.82,2.93-1.33a48.81,48.81,0,0,0,11.33-7l1.32-1.15,1.2-1.36c.39-.47.81-.9,1.18-1.41l1-1.61a17.56,17.56,0,0,0,2.39-7.6A18.3,18.3,0,0,0,508.8,513.28Zm-41,28.89a14.91,14.91,0,0,1-2.21,1.24c-4,.75-8,1.13-12.07,1.5-2.45.17-4.87.38-7.31.56-6.14-4.55-20.33-8.48-38.15-10-26.18-2.25-50.27,1.56-53.8,8.5-2.72,5.34,7.56,11,24.4,14.33-7.25.94-14.53,1.6-21.84,2.05-17.84.2-35.64-.68-53.46-1.69a93.09,93.09,0,0,1-27.8-7.82,74.22,74.22,0,0,1-11.69-6.62,20.56,20.56,0,0,1-3.91-3.46,4,4,0,0,1-.68-1,2,2,0,0,0,.15-.33,15.86,15.86,0,0,1,3.07-3.93,32.89,32.89,0,0,1,11.41-7,159.75,159.75,0,0,1,27.68-8.14,264,264,0,0,1,29.07-4.23,275.67,275.67,0,0,1,29.45-1.34c9.84.07,19.66.76,29.43,1.5q7.32.63,14.61,1.39c4.87.43,9.75.67,14.67.76s9.85.38,14.76.81a77.71,77.71,0,0,1,14.59,2.33A69.73,69.73,0,0,1,462,526.48a23.46,23.46,0,0,1,5.9,4.26,9.64,9.64,0,0,1,3,6.07A6.73,6.73,0,0,1,467.76,542.17ZM259.17,540c0-.06,0-.15.06-.25a.64.64,0,0,1-.07.49C259.07,540.26,259.13,540.14,259.17,540Zm0-.32c-.11-.26-.06-.3,0,0Zm220.4-1.93a23.49,23.49,0,0,1-7.2,3.86,10.86,10.86,0,0,0,.42-5,12.47,12.47,0,0,0-4.13-6.68,37.32,37.32,0,0,0-6.13-4.46A84.52,84.52,0,0,0,449,519l-14.25-5.2c-4.8-1.65-9.67-3.05-14.57-4.46a91.92,91.92,0,0,0-14.91-2.88c-5-.5-10.07-.76-15.11-.94-10.07-.41-20.14-.13-30.17.22s-20.06.77-30.09,1.52q-7.51.61-15,1.4c-5,.55-10,1.25-15,1.95A209.76,209.76,0,0,0,269.76,517c-5,1.7-10.06,3.19-15.54,5.6a26.72,26.72,0,0,0-8.28,5.63,17.45,17.45,0,0,0-3.61,5.5,16.46,16.46,0,0,0-1.15,7.84,18.08,18.08,0,0,0,2.51,7.06l.93,1.41,1,1.17a15.75,15.75,0,0,0,2,2.06c.26.23.52.44.78.65-.84-.05-1.67-.11-2.49-.2a53.44,53.44,0,0,1-9.25-2c-3-.85-6-1.77-8.95-2.79a78.83,78.83,0,0,1-16.31-7.6,29,29,0,0,1-6-5c-1.51-1.73-2-3.21-1.91-4A4.35,4.35,0,0,1,204,531a9.56,9.56,0,0,1,1.53-2.06,26.89,26.89,0,0,1,5.9-4.47,84.34,84.34,0,0,1,16.17-7c5.8-2,11.9-3.28,17.86-5.28s12.14-3.58,18.34-5.08c12.41-3,25.09-5.34,37.87-7.19a314.24,314.24,0,0,1,38.65-3.46,408.13,408.13,0,0,1,77.31,5.69c12.73,2.09,25.5,4.11,37.88,7.72,3.09.91,6.12,2,9.1,3.18a67.73,67.73,0,0,1,8.55,4.31,31.43,31.43,0,0,1,7.2,6,11.56,11.56,0,0,1,3.15,7.71A9.69,9.69,0,0,1,479.61,537.76Zm19.28-7.64a39.82,39.82,0,0,1-8.69,8.13,49.73,49.73,0,0,1-6.09,3.71l.16-.23c2-3.07,3.64-7,3.24-10.9a16,16,0,0,0-5-9.6,41.48,41.48,0,0,0-8.08-6.09,80.07,80.07,0,0,0-8.8-4.6c-3-1.43-6-2.67-9.1-3.88a192,192,0,0,0-38-10.4c-13-2.06-26-3.35-39.08-4.11-6.53-.44-13.07-.71-19.6-.95s-13.07-.45-19.62-.51c-13.08-.2-26.19-.42-39.36-.3s-26.37.91-39.62,2.34c-6.62.72-13.25,1.62-19.89,2.82s-13.12,3.35-19.58,5.75a96.22,96.22,0,0,0-19.13,9.5,42,42,0,0,0-9,8,24.2,24.2,0,0,0-3.71,6.12,18.31,18.31,0,0,0,.75,15.74,22.16,22.16,0,0,0,2.07,3.26c-6.78-1.43-13.5-2.95-20.1-4.72-3.84-1.05-7.67-2.09-11.35-3.36a85.51,85.51,0,0,1-10.65-4.21,40,40,0,0,1-8.83-5.49c-2.38-2.09-3.56-4.12-3.87-5.85s.68-4.39,2.85-7a36.4,36.4,0,0,1,8.37-7.29c6.54-4.39,14.36-7.12,22.14-9.53,15.71-4.73,32.21-7,48.62-8.81s33-2.83,49.47-4.27l24.79-2.49c8.29-.75,16.61-1.23,24.94-1.65,16.66-1.14,33.35-.34,49.95,1s33.1,3.6,49.44,6.41,32.56,6.09,48.14,10.95c3.88,1.22,7.73,2.53,11.46,4a91.72,91.72,0,0,1,10.82,4.95,42.83,42.83,0,0,1,9.15,6.48c2.54,2.48,4.18,5.25,4.35,8.08S501.17,527.11,498.89,530.12Z" transform="translate(0 0.25)"/><path d="M328.47,52.67s85.9,79.89,79.24,126.5-31,58.59-43.84,104.09-14.16,63.22-.14,94.53c0,0-8.54-44.24,23.5-98s42.47-70.26,43.17-93.89S416.91,98.16,328.47,52.67Z" transform="translate(0 0.25)"/><path d="M328.47,124.11s51.67,5.11,55.71,52.37S355,239.62,355,239.62s14.68-29.75,11-57.75S339.63,130.15,328.47,124.11Z" transform="translate(0 0.25)"/><path d="M341.52,225.86s-60.54,30.64-60.43,82,33.12,62.29,38.55,101.37c0,0-6.25-11.7-24.54-26.15s-46.24-47.22-36-89.58S304.61,226.63,341.52,225.86Z" transform="translate(0 0.25)"/><path d="M348.2,253.76c-7.78,17-17.6,48.37-8.06,89.35,10.26,44.11,18.78,40.25,34.44,56.5S396.5,440.1,377,463.77s-42.66,19.92-49.14,56.91c0,0-8.51-27.26,22.21-54.22s14.86-44.67,11.35-47.78-37.28-27.93-41.24-63.38C316,317.53,318,274.65,348.2,253.76Z" transform="translate(0 0.25)"/></svg>