<svg xmlns="http://www.w3.org/2000/svg" viewBox="0 0 640 640"><defs><style>.a{fill:#6cc5a7;}.b{fill:#105942;}.c{fill:#fff;}</style></defs><title>smudge_round_color</title><circle class="a" cx="319.81" cy="318.81" r="308.81"/><path class="b" d="M320,15c168.5.17,305,136.91,304.77,305.41A305.08,305.08,0,0,1,438.72,601c-156,63.72-334.09-11.08-397.81-167.07C-21.73,280.57,49.46,105.24,201.28,39A303.22,303.22,0,0,1,320,15m0-15C143.27,0,0,143.25,0,320S143.27,640,320,640,640,496.73,640,320,496.73,0,320,0Z"/><path class="c" d="M545.69,513.53l-1-1.79c-.39-.55-.83-1.06-1.24-1.59l-1.29-1.57-1.44-1.33a57,57,0,0,0-12.85-8.86,156.9,156.9,0,0,0-28.61-11.14c-19.6-5.68-39.7-9.27-59.88-11.89s-40.5-4-60.79-4.94c-8.58-.44-17.15-.75-25.72-1.06a110.64,110.64,0,0,1-14.33,9.52c13.08,0,26.16.66,39.19,1.55,19.94,1.46,39.79,3.6,59.43,6.41s39.15,6.09,57.88,11c4.66,1.22,9.29,2.53,13.77,4a121.5,121.5,0,0,1,13,5,52.64,52.64,0,0,1,11,6.48c3,2.48,5,5.25,5.23,8.08s-1.52,6-4.27,9a45,45,0,0,1-10.44,8.13A63.73,63.73,0,0,1,516,542.3l.19-.23c2.46-3.08,4.38-7,3.9-10.9s-3.07-7.18-6-9.6a49.64,49.64,0,0,0-9.71-6.09,104.36,104.36,0,0,0-10.58-4.6c-3.58-1.43-7.25-2.67-10.94-3.88a268.59,268.59,0,0,0-45.68-10.4c-15.59-2.06-31.27-3.35-47-4.11-7.85-.44-15.7-.71-23.56-.95S350.9,491,343,491c-8.19-.1-16.4-.21-24.62-.27a39.08,39.08,0,0,0-8.2,7.94c10.9-1,21.87-1.73,32.85-2a588.8,588.8,0,0,1,93,5.67c15.3,2.09,30.65,4.11,45.53,7.72,3.72.91,7.36,2,10.94,3.18a89.09,89.09,0,0,1,10.29,4.31,37.18,37.18,0,0,1,8.65,6c2.39,2.31,3.92,5.08,3.79,7.71s-2,5-4.66,6.79a30.43,30.43,0,0,1-8.65,3.86,9.19,9.19,0,0,0,.51-5c-.64-2.8-2.74-5-5-6.68a45.32,45.32,0,0,0-7.37-4.46,112,112,0,0,0-16.37-6.5l-17.12-5.2c-5.77-1.65-11.63-3.05-17.52-4.46a129.25,129.25,0,0,0-17.93-2.88c-6-.5-12.1-.76-18.15-.94-12.11-.41-24.21-.13-36.27.22s-24.12.77-36.17,1.52q-9,.62-18.07,1.4c-2.67.24-5.34.52-8,.81a60.27,60.27,0,0,0-2,7.25l-.59,2.79c9.75-1.5,19.63-2.63,29.55-3.38,11.76-.89,23.58-1.5,35.41-1.34s23.63.76,35.37,1.5q8.81.63,17.57,1.39c5.85.43,11.72.67,17.64.76s11.83.38,17.75.81a111.19,111.19,0,0,1,17.53,2.33,96.09,96.09,0,0,1,16.67,4.94,28.87,28.87,0,0,1,7.09,4.26c2,1.71,3.49,3.89,3.59,6.07s-1.59,4.1-3.76,5.36a18.77,18.77,0,0,1-2.65,1.24c-4.75.75-9.66,1.13-14.5,1.5-3,.17-5.87.38-8.79.56-7.39-4.55-24.45-8.48-45.87-10-31.48-2.25-60.43,1.56-64.67,8.5-3.27,5.34,9.09,11,29.33,14.33q-13.07,1.41-26.26,2c-21.45.2-42.84-.68-64.26-1.69a130.26,130.26,0,0,1-33.43-7.82,95.22,95.22,0,0,1-14-6.62,22.8,22.8,0,0,1-4.7-3.46,4.17,4.17,0,0,1-.83-1,1.35,1.35,0,0,0,.19-.33,16.81,16.81,0,0,1,3.69-3.93,41.43,41.43,0,0,1,13.71-7,212.59,212.59,0,0,1,29.09-7.38L291,517.8a29.33,29.33,0,0,1-1.4-6.34,272.4,272.4,0,0,0-31.3,5.83c-6,1.7-12.1,3.19-18.69,5.6a33.14,33.14,0,0,0-10,5.63,17.47,17.47,0,0,0-4.34,5.5,13.8,13.8,0,0,0-1.38,7.84,16.21,16.21,0,0,0,3,7.06l1.12,1.41,1.16,1.17a19,19,0,0,0,2.41,2.06c.31.23.63.44.94.65-1-.05-2-.11-3-.2a76.22,76.22,0,0,1-11.12-2c-3.63-.85-7.23-1.77-10.75-2.79-7-2.09-13.87-4.48-19.6-7.6a33.64,33.64,0,0,1-7.17-5c-1.82-1.73-2.38-3.21-2.3-4a4.06,4.06,0,0,1,.56-1.46A10.12,10.12,0,0,1,181,529.1a32.48,32.48,0,0,1,7.09-4.47,114,114,0,0,1,19.45-7c7-2,14.3-3.28,21.47-5.28s14.59-3.58,22-5.08c12.66-2.56,25.55-4.62,38.55-6.31A47.88,47.88,0,0,1,292,490.67q-21.93.39-44,2.28c-8,.72-15.93,1.62-23.92,2.82a159.9,159.9,0,0,0-23.53,5.75,125.76,125.76,0,0,0-23,9.5,48.2,48.2,0,0,0-10.87,8,24,24,0,0,0-4.46,6.12,16.15,16.15,0,0,0-1.69,8.05,16.74,16.74,0,0,0,2.59,7.69,22.48,22.48,0,0,0,2.49,3.26c-8.16-1.43-16.24-3-24.17-4.72-4.61-1-9.22-2.09-13.64-3.36a114.7,114.7,0,0,1-12.8-4.21,49.88,49.88,0,0,1-10.61-5.49c-2.88-2.09-4.28-4.12-4.66-5.85s.81-4.39,3.43-7a42.69,42.69,0,0,1,10-7.29c7.87-4.39,17.27-7.12,26.63-9.53,18.88-4.73,38.71-7,58.44-8.81s39.62-2.83,59.47-4.27l29.81-2.49c3.09-.23,6.19-.43,9.29-.62a72.39,72.39,0,0,1,10.19-13q-10-.35-20-.52c-10.2-.24-20.43-.41-30.64,0-5.1.15-10.19.54-15.28.89s-10.17.93-15.24,1.5c-10.14,1.13-20.25,2.56-30.27,4.37a541.59,541.59,0,0,0-59.41,13.71c-4.88,1.4-9.7,3-14.51,4.69s-9.61,3.47-14.41,5.54a70.39,70.39,0,0,0-14.16,7.65,28.35,28.35,0,0,0-6.18,6.19l-1.28,1.92-1,2.18a14.5,14.5,0,0,0-.65,9.59c.21.78.44,1.57.69,2.34l1,2.11a30.64,30.64,0,0,0,5.49,7.12,66.24,66.24,0,0,0,13.42,9.67,162.73,162.73,0,0,0,29,12.49,266.54,266.54,0,0,0,30.05,8,297.57,297.57,0,0,0,30.58,4.75c10.26,1.06,20.56,1.57,30.82,2,9.57.41,19.12.75,28.67.84,30,4.2,60.33,4.48,90.43,4.82,15.91.17,31.83,0,47.81-.36s32-1.49,48.17-2.77c8.08-.72,16.19-1.67,24.25-3.18,4.05-.68,7.82-2.35,11.59-3.94s7.49-3.33,11.09-5.29a127.83,127.83,0,0,0,20.39-13.44c1.56-1.27,3.08-2.57,4.53-4l6.34-2.18c1.2-.37,2.33-.89,3.51-1.3s2.39-.82,3.53-1.33a61.78,61.78,0,0,0,13.62-7l1.59-1.15,1.44-1.36a18.76,18.76,0,0,0,1.41-1.41l1.23-1.61a13.69,13.69,0,0,0,.89-15.55Zm-300,26.41C245.55,539.68,245.61,539.64,245.69,539.94Zm-.07.56c-.1,0,0-.11,0-.24a.29.29,0,0,1,.08-.25.58.58,0,0,1-.11.49Z"/><path class="c" d="M297.4,47.69s103.26,79.89,95.25,126.49S355.32,232.78,340,278.25s-17,63.23-.17,94.54c0,0-10.26-44.24,28.26-98s51-70.26,51.89-93.89S403.72,93.17,297.4,47.69Z"/><path class="c" d="M297.4,119.13s62.11,5.1,67,52.37-35.12,63.14-35.12,63.14,17.65-29.75,13.18-57.76S310.81,125.17,297.4,119.13Z"/><path class="c" d="M313.08,220.88s-72.77,30.64-72.65,82,39.82,62.25,46.36,101.37c0,0-7.52-11.7-29.52-26.15S201.69,330.84,214,288.48,268.72,221.64,313.08,220.88Z"/><path class="c" d="M321.11,248.77c-9.35,17-21.15,48.38-9.69,89.35,12.34,44.11,22.58,40.25,41.4,56.5s26.36,40.49,2.91,64.16-51.27,19.93-59.07,56.91c0,0-10.23-27.25,26.7-54.22S341.22,416.8,337,413.7s-44.82-27.93-49.57-63.38C282.36,312.54,284.77,269.67,321.11,248.77Z"/></svg>