<svg xmlns="http://www.w3.org/2000/svg" viewBox="0 0 640 640"><defs><style>.a{fill:#fff;}.b{fill:#010101;}</style></defs><title>smudge_square_b&amp;amp;w</title><rect class="a" x="7.5" y="7.5" width="625" height="625" rx="92.5"/><path class="b" d="M540,15.25a85.29,85.29,0,0,1,85,85v440a85.29,85.29,0,0,1-85,85H100a85.29,85.29,0,0,1-85-85v-440a85.29,85.29,0,0,1,85-85H540m0-15H100c-55,0-100,45-100,100v440c0,55,45,100,100,100H540c55,0,100-45,100-100v-440c0-55-45-100-100-100Z" transform="translate(0 -0.25)"/><path d="M545.69,513.28l-1-1.79c-.39-.55-.83-1.06-1.24-1.59l-1.29-1.57L540.72,507a56.87,56.87,0,0,0-12.85-8.86A157.68,157.68,0,0,0,499.26,487c-19.6-5.68-39.7-9.27-59.88-11.89s-40.5-4-60.79-4.94c-8.58-.44-17.15-.75-25.72-1.06a111.39,111.39,0,0,1-14.33,9.52c13.08,0,26.16.66,39.19,1.55,19.94,1.46,39.79,3.6,59.43,6.41s39.15,6.09,57.88,10.95c4.66,1.22,9.29,2.53,13.77,4a121.66,121.66,0,0,1,13,4.95,52.74,52.74,0,0,1,11,6.48c3,2.48,5,5.25,5.23,8.08s-1.52,6-4.27,9a45.38,45.38,0,0,1-10.44,8.13A63.69,63.69,0,0,1,516,542l.19-.23c2.46-3.08,4.38-7,3.9-10.9s-3.07-7.18-6-9.6a49.82,49.82,0,0,0-9.71-6.09,103.68,103.68,0,0,0-10.58-4.6c-3.58-1.43-7.25-2.67-10.94-3.88a268.28,268.28,0,0,0-45.68-10.4c-15.59-2.06-31.27-3.35-47-4.11-7.85-.44-15.7-.71-23.56-.95s-15.72-.45-23.58-.51c-8.19-.1-16.4-.21-24.62-.27a39.28,39.28,0,0,0-8.2,7.94c10.9-1.05,21.87-1.73,32.85-2a587.88,587.88,0,0,1,92.94,5.69c15.3,2.09,30.65,4.11,45.53,7.72,3.72.91,7.36,2,10.94,3.18a88.75,88.75,0,0,1,10.29,4.31,37.12,37.12,0,0,1,8.65,6c2.39,2.31,3.92,5.08,3.79,7.71s-2,5-4.66,6.79a30.48,30.48,0,0,1-8.65,3.86,9.22,9.22,0,0,0,.51-5c-.64-2.8-2.74-5-5-6.68a45.3,45.3,0,0,0-7.37-4.46,111.81,111.81,0,0,0-16.37-6.5l-17.12-5.2c-5.77-1.65-11.63-3.05-17.52-4.46a130.51,130.51,0,0,0-17.93-2.88c-6-.5-12.1-.76-18.15-.94-12.11-.41-24.21-.13-36.27.22s-24.12.77-36.17,1.52q-9,.61-18.07,1.4c-2.67.24-5.34.52-8,.81a60.41,60.41,0,0,0-2,7.25l-.59,2.79c9.75-1.5,19.63-2.63,29.55-3.38,11.76-.89,23.58-1.5,35.41-1.34s23.63.76,35.37,1.5q8.81.63,17.57,1.39c5.85.43,11.72.67,17.64.76s11.83.38,17.75.81a111,111,0,0,1,17.53,2.33,95.7,95.7,0,0,1,16.67,4.94,28.79,28.79,0,0,1,7.09,4.26c2,1.71,3.49,3.89,3.59,6.07s-1.59,4.1-3.76,5.36a18.4,18.4,0,0,1-2.65,1.24c-4.75.75-9.66,1.13-14.5,1.5-2.95.17-5.87.38-8.79.56-7.39-4.55-24.45-8.48-45.87-10-31.48-2.25-60.43,1.56-64.67,8.5-3.27,5.34,9.09,11,29.33,14.33-8.71.94-17.47,1.6-26.26,2.05-21.45.2-42.84-.68-64.26-1.69a129.8,129.8,0,0,1-33.43-7.82,95.67,95.67,0,0,1-14-6.62,23.34,23.34,0,0,1-4.7-3.46,4.28,4.28,0,0,1-.83-1,1.23,1.23,0,0,0,.19-.33,16.69,16.69,0,0,1,3.69-3.93,41.38,41.38,0,0,1,13.71-7,212.3,212.3,0,0,1,29.09-7.38L291,517.55a29.42,29.42,0,0,1-1.4-6.34,273.41,273.41,0,0,0-31.3,5.83c-6,1.7-12.1,3.19-18.69,5.6a33.1,33.1,0,0,0-10,5.63,17.57,17.57,0,0,0-4.34,5.5,13.79,13.79,0,0,0-1.38,7.84,16.2,16.2,0,0,0,3,7.06l1.12,1.41,1.16,1.17a18.49,18.49,0,0,0,2.41,2.06c.31.23.63.44.94.65-1-.05-2-.11-3-.2a75.62,75.62,0,0,1-11.12-2c-3.63-.85-7.23-1.77-10.75-2.79-7-2.09-13.87-4.48-19.6-7.6a33.68,33.68,0,0,1-7.17-5c-1.82-1.73-2.38-3.21-2.3-4a4,4,0,0,1,.56-1.46,10,10,0,0,1,1.84-2.06,32.28,32.28,0,0,1,7.09-4.47,113.41,113.41,0,0,1,19.45-7c7-2,14.3-3.28,21.47-5.28s14.59-3.58,22-5.08c12.66-2.56,25.55-4.62,38.55-6.31a48.2,48.2,0,0,1,2.44-10.29c-14.62.26-29.28,1-44,2.28-8,.72-15.93,1.62-23.92,2.82s-15.76,3.35-23.53,5.75a126,126,0,0,0-23,9.5,48.24,48.24,0,0,0-10.87,8,23.72,23.72,0,0,0-4.46,6.12,16.18,16.18,0,0,0-1.69,8.05,16.88,16.88,0,0,0,2.59,7.69,21.72,21.72,0,0,0,2.49,3.26c-8.16-1.43-16.24-3-24.17-4.72-4.61-1.05-9.22-2.09-13.64-3.36a115.63,115.63,0,0,1-12.8-4.21,49.83,49.83,0,0,1-10.61-5.49c-2.88-2.09-4.28-4.12-4.66-5.85s.81-4.39,3.43-7a42.55,42.55,0,0,1,10-7.29c7.87-4.39,17.27-7.12,26.63-9.53,18.88-4.73,38.71-7,58.44-8.81s39.62-2.83,59.47-4.27l29.81-2.49c3.09-.23,6.19-.43,9.29-.62a71.78,71.78,0,0,1,10.19-13q-10-.35-20-.52c-10.2-.24-20.43-.41-30.64,0-5.1.15-10.19.54-15.28.89s-10.17.93-15.24,1.5c-10.14,1.13-20.25,2.56-30.27,4.37a540.18,540.18,0,0,0-59.41,13.71c-4.88,1.4-9.7,3-14.51,4.69s-9.61,3.47-14.41,5.54a70.32,70.32,0,0,0-14.16,7.65,28.56,28.56,0,0,0-6.18,6.19l-1.28,1.92-1,2.18a14.54,14.54,0,0,0-.65,9.59c.21.78.44,1.57.69,2.34l1,2.11a30.46,30.46,0,0,0,5.49,7.12,65.86,65.86,0,0,0,13.42,9.67,163,163,0,0,0,29,12.49,265.49,265.49,0,0,0,30.05,8,298.85,298.85,0,0,0,30.58,4.75c10.26,1.06,20.56,1.57,30.82,2,9.57.41,19.12.75,28.67.84,30,4.2,60.33,4.48,90.43,4.82,15.91.17,31.83,0,47.81-.36s32-1.49,48.17-2.77c8.08-.72,16.19-1.67,24.25-3.18,4.05-.68,7.82-2.35,11.59-3.94s7.49-3.33,11.09-5.29a127.21,127.21,0,0,0,20.39-13.44c1.56-1.27,3.08-2.57,4.53-4l6.34-2.18c1.2-.37,2.33-.89,3.51-1.3s2.39-.82,3.53-1.33a61.82,61.82,0,0,0,13.62-7l1.59-1.15,1.44-1.36c.47-.47,1-.9,1.41-1.41l1.23-1.61a13.69,13.69,0,0,0,.89-15.55Zm-300,26.41c-.14-.26-.08-.3,0,0Zm-.07.56c-.1,0,0-.11,0-.24s0-.15.08-.25A.6.6,0,0,1,245.59,540.25Z" transform="translate(0 -0.25)"/><path d="M297.4,47.44s103.26,79.89,95.25,126.49S355.32,232.53,340,278s-17,63.23-.17,94.54c0,0-10.26-44.24,28.26-98s51-70.26,51.89-93.89S403.72,92.92,297.4,47.44Z" transform="translate(0 -0.25)"/><path d="M297.4,118.88s62.11,5.1,67,52.37-35.12,63.14-35.12,63.14,17.65-29.75,13.18-57.76S310.81,124.92,297.4,118.88Z" transform="translate(0 -0.25)"/><path d="M313.08,220.63s-72.77,30.64-72.65,82S280.25,364.88,286.79,404c0,0-7.52-11.7-29.52-26.15S201.69,330.59,214,288.23,268.72,221.39,313.08,220.63Z" transform="translate(0 -0.25)"/><path d="M321.11,248.52c-9.35,17-21.15,48.38-9.69,89.35,12.34,44.11,22.58,40.25,41.4,56.5s26.36,40.49,2.91,64.16-51.27,19.93-59.07,56.91c0,0-10.23-27.25,26.7-54.22s17.86-44.67,13.64-47.77-44.82-27.93-49.57-63.38C282.36,312.29,284.77,269.42,321.11,248.52Z" transform="translate(0 -0.25)"/></svg>