<svg xmlns="http://www.w3.org/2000/svg" viewBox="0 0 500 500"><defs><style>.a{fill:#f99b1c;}.b{fill:#925c25;}.c{fill:#fff;}</style></defs><title>sun_round_color</title><path class="a" d="M250.34,495A245,245,0,0,1,77.1,76.76,245,245,0,1,1,423.58,423.24,243.35,243.35,0,0,1,250.34,495Z" transform="translate(-0.34)"/><path class="b" d="M250.34,10a240.06,240.06,0,0,1,93.42,461.14A240,240,0,0,1,80.64,80.29,239.28,239.28,0,0,1,250.34,10m0-10C112.27,0,.34,111.93.34,250s111.93,250,250,250,250-111.93,250-250S388.41,0,250.34,0Z" transform="translate(-0.34)"/><path class="c" d="M150.6,108.83s1.3,11.81,12.22,23.87c8.11,9,20.49,11.87,24.13,18,4.77,8-2.3,16.66,1.88,22.78,3,4.39,18.06,11.33,17.3,25.88,0,0-15.92,6-27.6-12.65-8.63-13.79,3.45-28.35.76-32.94s-18.39-11.11-24.52-19.92S148.69,113.8,150.6,108.83Zm-.23,113.78c-3.45-4.31-3.26-10.63-13.79-16s-14.55-2.49-21.83-2.1-10.92-5.37-15.32-7.66-16.09-14.37-16.09-14.37c.77,12.07,12.07,23.56,18.77,30.84s18.38,5.93,21.06,7.27,6.13,3.45,9,10.34,22,13.79,24.13,13,13.52-16.23,10.72-15.71C152.67,230.94,153.82,226.92,150.37,222.61ZM90.43,292.23c16.27,17.81,32.74,15.32,43.47,11.3s14.75-19.35,14.75-19.35c-4-.19-2.49.77-13.6,5.56s-22.33,4.92-38.69-9C77,264.27,60.08,270.39,63.76,270.39,71.18,270.39,74.15,274.42,90.43,292.23Zm5.74,69.9c8.81-1.34,23-6.22,32.56-8.24,14.55-3.06,22.21-14.94,52.66-19.34,21.94-3.17,41.53,6.32,64.16,6.89s43.47-6.89,58.6-6.89,35,5.85,54.2,12.45c14.11,4.86,56.3,19.15,54.77,15.13-3.46-9.08-35.05-25.09-64.35-34.47s-28.86-7-50.37-15.13c-45.43-17.1-73.53-7.28-79.85-4.6S178.9,329,160.71,329.57s-30.26,4.21-42.9,9S83.34,359.64,84.3,362.13,87.36,363.47,96.17,362.13Zm258-67.8c-2-.81,11.69,9.63,22.6,8.36s23-10.65,25.28-11.8,11.3-5,22,2.68,10.54,7.78,12.64,9.25-.2-17.67-6.71-21.88c-9.42-6.1-22.59-9-32.55-2.31-11.45,7.71-17,14.75-21.64,16.09S358.92,296.25,354.13,294.33Zm32.56-73.92c4.6-4.78,5.36-14.36,6.7-17.23s9.26-3.79,13.41-8.24c2.68-2.87,14-5.94,14-5.94-19.54-3.25-32.75,5-37.35,9.77-3.8,4-3.36,12.41-8.42,15.32-7.66,4.41-10,10.51-12.26,13.41-5.55,7.08-27.3,13.55-25.28,14.36C357,249.71,380.38,227,386.69,220.41Zm-39.26-101.5s-10.92,7.85-13,17.43-1.92,14.55-9.77,19.34-14.55,7.47-18.19,13.22-7.66,15.32-3.83,31.59c0,0,4.79-20.1,16.28-25.08,5.09-2.21,22-4.79,28.53-15.71S354.52,134.62,347.43,118.91ZM208,302.69c9.58-7.21,28.78-14.35,42.74-13.84s35.74,8.55,50.32,16.21c13.72,7.21,25.89,8.31,36.3,8.09a88.86,88.86,0,1,0-173.07,3.49C177.65,313.87,200.16,308.6,208,302.69Zm37-191.25c.17,8.53,4.41,22,4.22,27.39s-6.51,11.49-7.47,22,13.21,26.62,13.21,26.62c-.38-3.45,10.15-28,11.11-36.77s-5.75-16.66-9-25.85-4.28-37.92-4-44C253,80.8,244.78,101.87,245,111.44Z" transform="translate(-0.34)"/></svg>