<svg xmlns="http://www.w3.org/2000/svg" viewBox="0 0 434.18 328.15"><defs><style>.a{fill:#fff;}</style></defs><title>sun_borderless_wht</title><path class="a" d="M134.16,102s1.51,13.71,14.17,27.71c9.42,10.4,23.78,13.77,28,20.89,5.54,9.33-2.66,19.33,2.19,26.42,3.49,5.1,21,13.15,20.07,30,0,0-18.47,7-32-14.69-10-16,4-32.89.87-38.22S146.11,141.22,139,131,131.94,107.74,134.16,102Zm-.27,132c-4-5-3.78-12.33-16-18.56S101,212.56,92.56,213s-12.67-6.22-17.78-8.89-18.67-16.67-18.67-16.67c.89,14,14,27.34,21.78,35.78s21.33,6.89,24.44,8.45,7.11,4,10.45,12,25.55,16,28,15.11,15.69-18.83,12.44-18.22C136.56,243.67,137.89,239,133.89,234ZM64.33,314.78c18.89,20.66,38,17.78,50.45,13.11s17.11-22.45,17.11-22.45c-4.67-.22-2.89.89-15.78,6.45S90.2,317.6,71.22,301.44c-22.44-19.11-42.1-12-37.83-12C42,289.44,45.44,294.11,64.33,314.78ZM71,395.89c10.22-1.56,26.63-7.21,37.78-9.56,16.89-3.55,25.78-17.33,61.11-22.44,25.45-3.68,48.19,7.33,74.44,8s50.45-8,68-8,40.67,6.79,62.89,14.44c16.38,5.64,65.34,22.23,63.56,17.56-4-10.53-40.67-29.11-74.67-40s-33.49-8.17-58.44-17.56C253,318.5,220.33,329.89,213,333s-46,24.44-67.11,25.11S110.78,363,96.11,368.56s-40,24.44-38.89,27.33S60.78,397.44,71,395.89Zm299.33-78.67c-2.35-.94,13.56,11.18,26.23,9.7s26.66-12.36,29.33-13.7,13.11-5.78,25.55,3.11,12.23,9,14.67,10.74-.23-20.51-7.79-25.39c-10.93-7.08-26.21-10.46-37.76-2.68-13.3,8.95-19.78,17.11-25.12,18.67s-19.55,1.77-25.11-.45Zm37.78-85.78c5.33-5.54,6.22-16.66,7.78-20s10.74-4.39,15.55-9.55c3.12-3.33,16.23-6.89,16.23-6.89-22.67-3.78-38,5.78-43.34,11.33-4.41,4.6-3.9,14.4-9.77,17.78-8.89,5.11-11.59,12.19-14.23,15.56-6.44,8.22-31.68,15.72-29.33,16.66,22.67,9.11,49.79-17.27,57.11-24.89ZM362.56,113.67s-12.67,9.11-15.12,20.22-2.22,16.89-11.33,22.44S319.22,165,315,171.67s-8.89,17.77-4.44,36.66c0,0,5.55-23.33,18.88-29.11,5.92-2.56,25.56-5.55,33.12-18.22S370.78,131.89,362.56,113.67ZM200.78,326.92c11.11-8.36,33.39-16.65,49.58-16.06s41.48,9.92,58.39,18.81c15.93,8.37,30.06,9.64,42.13,9.39a103.11,103.11,0,1,0-200.83,4.05C165.54,339.9,191.67,333.78,200.78,326.92ZM243.67,105c.19,9.9,5.11,25.56,4.89,31.78s-7.56,13.33-8.67,25.55,15.33,30.89,15.33,30.89c-.44-4,11.78-32.44,12.89-42.66s-6.67-19.34-10.44-30-5-44-4.67-51.12C253,69.44,243.44,93.89,243.67,105Z" transform="translate(-32.8 -69.44)"/></svg>