<svg xmlns="http://www.w3.org/2000/svg" viewBox="0 0 366.23 386.57"><title>track_borderless_blk</title><path d="M164.3,167.46c16.92,16.66,25,45.76,25.86,49.32s2,29.64-21.38,29.78c-25.78.14-38.15-24.75-48.45-55.56-16.75-50.12-1.77-109.81,6.23-109.78C133.74,81.25,139,142.56,164.3,167.46Zm-79.08-36c-5.06.22-22.22,68.45-16.44,97.78s14.66,72,32,78.22,19.11,6.67,29.78,3.56,21.77-28.44,11.11-52.44S108.38,208.33,106.8,195s-3.8-36.89-6.91-41.78-4-22.22-14.67-21.78ZM166.56,56c-8,0-17.34,34.17,4,87.5s27.11,68.89,48.88,68.89,18.23-26.22,16-33.33-13.33-50.22-31.55-72.89-30.67-50.19-37.33-50.19Zm58.22,47.5c10.66,11.12,28.89,44.89,28.44,60.45s3.56,26.22,11.56,44.44,24.89,27.11,35.11,0-23.56-78.66-43.11-106.66S213.25,57.63,209.67,64.8c-2.67,5.31,4.44,27.53,15.11,38.64Zm59.55,8c9.34,8.45,21.78,36.89,29.34,52.45s7.11,45.33,8,56.44,20.89,32,36.44,29.67,20-15.44,23.56-27.84-13.78-42.72-36.45-73.38-69.23-69.46-72-60.45c-1.78,5.76,1.78,14.65,11.11,23.09ZM433.84,330.11c0,31.56-27.73,44.89-41.51,48.89s-71.11,1.33-88.44,4.89-68,41.33-78.22,47.55-32.89,19.12-71.11,4-44.89-57.33-36.45-75.55,36.88-39.07,45.78-47c23.55-21,19.11-60.56,61.33-71.22,10.36-2.62,42.67-13.34,81.34,4.89a525.81,525.81,0,0,0,86.22,31.11C401.67,279.89,433.84,298.56,433.84,330.11Zm-51.71-28.44c-12.82-8.24-68-23.11-80.36-30.23s-39.21-12-60.55-8.45c-22.82,3.8-32.44,27.12-41.33,44s-42.42,42.07-51.11,51.56c-5.26,5.73-20.89,36,15.55,52.44s48.45-1.78,59.11-10.67,45.78-32.89,62.67-39.55,56.45-3.56,82.22-5.78c23.48-2,32.45-8.89,36-21.78s-13.41-25.9-22.2-31.54ZM166.26,391.44c8.68,11.7,34.52,8.45,48.3-6.22s32.16-30.8,50.22-38.22c18.66-7.67,57-5.71,74.66-4,13.78,1.33,33.73-7.11,33.73-18.82,0-7.11-14.81-18.73-32.39-22.07-21-4-72.21-27.77-94.82-22.56-17.33,4-32.15,40.78-40.59,50.56S150.65,370.42,166.26,391.44Z" transform="translate(-67.61 -55.94)"/></svg>