<svg xmlns="http://www.w3.org/2000/svg" viewBox="0 0 500 500"><defs><style>.a{fill:#fff;}</style></defs><title>track_round_b&amp;amp;w</title><path class="a" d="M250.34,495A245,245,0,0,1,77.1,76.76,245,245,0,1,1,423.58,423.24,243.35,243.35,0,0,1,250.34,495Z" transform="translate(-0.34)"/><path d="M250.34,10a240.06,240.06,0,0,1,93.42,461.14A240,240,0,0,1,80.64,80.29,239.28,239.28,0,0,1,250.34,10m0-10C112.27,0,.34,111.93.34,250s111.93,250,250,250,250-111.93,250-250S388.41,0,250.34,0Z" transform="translate(-0.34)"/><path d="M183.77,171.92c15.14,14.91,22.35,41,23.14,44.14s1.81,26.53-19.13,26.65c-23.07.13-34.14-22.15-43.36-49.72-15-44.86-1.59-98.28,5.57-98.25C156.42,94.76,161.13,149.63,183.77,171.92ZM113,139.69c-4.53.18-19.89,61.25-14.72,87.5s13.13,64.44,28.64,70,17.11,6,26.65,3.18,19.49-25.45,10-46.93-29.79-44.95-31.21-56.88-3.4-33-6.18-37.39S122.55,139.29,113,139.69Zm72.79-67.57c-7.14,0-15.51,30.57,3.58,78.31s24.26,61.65,43.75,61.65,16.31-23.47,14.32-29.83S235.51,137.3,219.2,117,191.76,72.12,185.79,72.12Zm52.11,42.51c9.54,9.94,25.85,40.17,25.45,54.09s3.19,23.47,10.35,39.78,22.27,24.26,31.42,0S284,138.09,266.54,113s-39-39.43-42.17-33C222,84.79,228.35,104.68,237.9,114.63Zm53.3,7.16c8.35,7.55,19.49,33,26.25,46.93s6.36,40.57,7.16,50.52,18.69,28.64,32.62,26.55,17.9-13.82,21.08-24.92S366,182.64,345.69,155.2,283.74,93,281.25,101.1C279.66,106.27,282.84,114.23,291.2,121.79ZM425,317.49c0,28.24-24.82,40.17-37.15,43.75s-63.64,1.19-79.15,4.38-60.86,37-70,42.56-29.43,17.1-63.64,3.58-40.17-51.32-32.62-67.62,33-35,41-42.07c21.09-18.79,17.11-54.19,54.9-63.74,9.27-2.34,38.18-11.93,72.79,4.38a470.87,470.87,0,0,0,77.16,27.84C396.21,272.54,425,289.24,425,317.49ZM378.72,292c-11.47-7.37-60.87-20.68-71.91-27s-35.1-10.74-54.2-7.56c-20.42,3.4-29,24.27-37,39.38s-38,37.66-45.74,46.14c-4.7,5.13-18.69,32.22,13.92,46.94s43.36-1.59,52.9-9.55,41-29.43,56.09-35.4,50.51-3.18,73.59-5.17c21-1.81,29-7.95,32.21-19.49S386.59,297.08,378.72,292ZM185.53,372.38c7.76,10.46,30.89,7.55,43.22-5.57s28.78-27.57,44.95-34.21c16.7-6.86,51-5.11,66.82-3.58,12.33,1.19,30.19-6.36,30.19-16.85,0-6.36-13.26-16.75-29-19.74-18.82-3.58-64.62-24.86-84.85-20.19-15.51,3.58-28.77,36.5-36.33,45.25S171.56,353.56,185.53,372.38Z" transform="translate(-0.34)"/></svg>